{
.appVersion = "3151";
.formatVersion = 3;
DisplayStrings = (
"̇ĊĖĠİṄṤṦṠṨẎŻċėġịįḭṅṥṧṡṩẏẓ̇˙",
""
);
classes = (
{
automatic = 1;
code = "A Aacute Abreve Acircumflex Adieresis Adotbelow Agrave Amacron Aogonek Aring Aringacute Atilde AE AEacute B C Cacute Ccaron Ccedilla Ccedillaacute Ccircumflex Cdotaccent D Eth Dcaron Dcroat Ddotbelow Dmacronbelow E Eacute Ebreve Ecaron Ecedillabreve Ecircumflex Edieresis Edotaccent Edotbelow Egrave Emacron Emacronacute Emacrongrave Eogonek Etilde Schwa F G Gbreve Gcaron Gcircumflex Gcommaaccent Gdotaccent Gmacron H Hbar Hbrevebelow Hcircumflex Hdotbelow I IJ Iacute Ibreve Icircumflex Idieresis Idieresisacute Idotaccent Idotbelow Igrave Imacron Iogonek Itilde J Jacute Jcircumflex K Kcommaaccent Kmacronbelow L Lacute Lcaron Lcommaaccent Ldot Ldotbelow Lmacronbelow Lslash M Mdotbelow N Nacute Ncaron Ncommaaccent Ndotaccent Ndotbelow Nhookleft Nmacronbelow Ntilde Eng O Oacute Obreve Ocircumflex Odieresis Odotbelow Ograve Ohungarumlaut Omacron Omacronacute Omacrongrave Oogonek Oslash Oslashacute Otilde Otildeacute Otildedieresis OE P Thorn Q R Racute Rcaron Rcommaaccent Rdotbelow Rmacronbelow S Sacute Sacutedotaccent Scaron Scarondotaccent Scedilla Scircumflex Scommaaccent Sdotaccent Sdotbelow Sdotbelowdotaccent Germandbls T Tbar Tcaron Tcedilla Tcommaaccent Tdotbelow Tmacronbelow U Uacute Ubreve Ucircumflex Udieresis Udotbelow Ugrave Uhungarumlaut Umacron Umacrondieresis Uogonek Uring Utilde Utildeacute V W Wacute Wcircumflex Wdieresis Wgrave X Y Yacute Ycircumflex Ydieresis Ydotaccent Ygrave Ymacron Ytilde Z Zacute Zcaron Zdotaccent Zdotbelow Delta Omega";
name = Uppercase;
}
);
customParameters = (
{
name = blueScale;
value = 0.037;
},
{
name = fsType;
value = (
);
},
{
name = "Use Typo Metrics";
value = 1;
},
{
name = "gasp Table";
value = {
9 = 10;
21 = 7;
65535 = 15;
};
},
{
name = panose;
value = (
2,
11,
3,
4,
4,
4,
2,
0,
2,
3
);
},
{
name = unicodeRanges;
value = (
0,
1
);
},
{
name = codePageRanges;
value = (
"1252"
);
},
{

glyphs = (
{
glyphname = A;
kernLeft = A;
kernRight = A;
lastChange = "2023-09-12 03:35:45 +0000";
layers = (
{
anchors = (
{
name = bottom;
pos = (352,0);
},
{
name = ogonek;
pos = (612,10);
},
{
name = top;
pos = (347,695);
}
);
layerId = "7C3BCDA4-8F92-4DF1-91BA-B714BE37B8B5";
shapes = (
{
closed = 1;
nodes = (
(463,473,o),
(456,475,o),
(454,482,cs),
(451,496,o),
(445,507,o),
(441,519,c),
(432,532,o),
(424,546,o),
(421,565,c),
(414,575,o),
(407,585,o),
(403,597,cs),
(398,608,o),
(392,618,o),
(386,630,cs),
(381,641,o),
(374,651,o),
(371,665,c),
(364,675,o),
(359,687,o),
(343,688,c),
(334,687,o),
(333,678,o),
(329,673,c),
(329,665,o),
(322,661,o),
(321,653,c),
(308,639,o),
(300,620,o),
(294,600,c),
(288,593,o),
(284,582,o),
(280,572,c),
(275,564,o),
(273,553,o),
(265,546,c),
(265,533,o),
(256,520,o),
(253,513,cs),
(251,505,ls),
(250,502,o),
(246,501,o),
(245,499,cs),
(244,497,o),
(245,493,o),
(244,491,cs),
(240,482,o),
(234,476,o),
(229,467,cs),
(224,459,o),
(222,449,o),
(216,442,c),
(216,435,o),
(210,430,o),
(210,423,c),
(201,410,o),
(197,393,o),
(187,381,c),
(184,366,o),
(177,354,o),
(170,342,c),
(171,332,o),
(163,328,o),
(160,322,cs),
(156,314,o),
(155,307,o),
(152,300,cs),
(150,296,o),
(146,292,o),
(144,287,c),
(142,285,o),
(144,281,o),
(142,279,c),
(141,277,o),
(138,276,o),
(137,273,cs),
(131,259,l),
(125,249,o),
(122,240,o),
(117,230,cs),
(114,225,o),
(111,218,o),
(109,212,cs),
(107,207,o),
(104,204,o),
(102,198,c),
(99,193,o),
(99,188,o),
(97,182,cs),
(93,173,o),
(84,165,o),
(83,154,c),
(65,117,ls),
(59,104,o),
(51,91,o),
(48,76,c),
(41,69,o),
(36,57,o),
(30,48,c),
(26,37,o),
(17,29,o),
(21,10,c),
(27,-2,o),
(42,-7,o),
(59,-7,cs),
(69,-6,o),
(81,-1,o),
(92,-2,c),
(100,6,o),
(110,13,o),
(115,23,cs),
(119,29,o),
(119,37,o),
(122,43,c),
(132,56,o),
(136,73,o),
(147,85,c),
(148,95,o),
(153,100,o),
(154,110,c),
(167,127,l),
(171,145,o),
(174,163,o),
(190,169,c),
(204,171,o),
(218,169,o),
(230,169,cs),
(271,169,o),
(314,172,o),
(361,171,cs),
(367,171,o),
(372,173,o),
(378,174,c),
(396,169,o),
(416,174,o),
(438,174,cs),
(459,174,o),
(481,171,o),
(503,172,c),
(513,166,o),
(517,153,o),
(521,143,c),
(526,139,l),
(529,135,o),
(531,130,o),
(535,127,c),
(535,119,o),
(538,116,o),
(538,108,c),
(543,103,o),
(547,98,o),
(552,90,cs),
(554,86,o),
(552,78,o),
(555,75,cs),
(563,64,o),
(569,50,o),
(575,36,c),
(584,27,o),
(588,11,o),
(598,1,c),
(623,-5,o),
(636,11,o),
(651,18,c),
(653,27,o),
(662,29,o),
(660,40,cs),
(659,49,o),
(655,57,o),
(655,67,c),
(650,73,o),
(645,81,o),
(642,88,c),
(637,106,o),
(627,118,o),
(622,135,c),
(611,147,o),
(606,165,o),
(598,180,c),
(595,184,o),
(597,193,o),
(595,197,cs),
(591,204,o),
(586,209,o),
(581,217,cs),
(572,235,o),
(566,259,o),
(553,276,cs),
(542,294,o),
(536,316,o),
(525,334,c),
(520,352,o),
(511,367,o),
(503,381,c),
(501,387,o),
(496,394,o),
(494,398,cs),
(493,401,o),
(494,403,o),
(493,406,cs),
(489,414,o),
(485,421,o),
(480,427,c),
(481,440,o),
(472,447,o),
(468,456,c),
(466,464,ls)
);
},
{
closed = 1;
nodes = (
(462,250,o),
(445,251,o),
(430,250,c),
(422,251,o),
(418,253,o),
(411,253,c),
(378,249,l),
(364,252,o),
(340,254,o),
(326,249,c),
(307,246,o),
(289,251,o),
(273,252,cs),
(256,252,o),
(240,247,o),
(224,253,c),
(226,267,o),
(228,280,o),
(237,287,c),
(253,319,ls),
(263,338,o),
(270,364,o),
(284,379,c),
(291,411,o),
(313,427,o),
(319,459,c),
(325,465,o),
(326,475,o),
(332,479,c),
(332,493,o),
(335,502,o),
(344,508,c),
(352,507,o),
(353,498,o),
(354,491,c),
(359,487,o),
(360,478,o),
(364,474,c),
(367,464,o),
(374,456,o),
(378,447,cs),
(389,421,ls),
(397,403,o),
(410,388,o),
(415,369,c),
(424,356,o),
(433,341,o),
(438,324,c),
(448,306,o),
(456,287,o),
(468,272,c),
(467,268,o),
(469,268,o),
(470,265,c),
(470,258,l)
);
}
);
width = 680;
}
);
unicode = 65;
},
{
glyphname = Adieresis;
kernLeft = A;
kernRight = A;
lastChange = "2023-09-12 03:35:45 +0000";
layers = (
{
anchors = (
{
name = top;
pos = (346.35,903.82);
}
);
layerId = "7C3BCDA4-8F92-4DF1-91BA-B714BE37B8B5";
shapes = (
{
closed = 1;
nodes = (
(477,576,o),
(483,573,cs),
(489,569,o),
(504,562,o),
(512,562,c),
(537,568,o),
(558,576,o),
(569,596,c),
(569,617,o),
(565,645,o),
(558,656,cs),
(553,664,o),
(548,669,o),
(540,675,cs),
(534,679,o),
(528,683,o),
(520,684,c),
(508,682,o),
(498,679,o),
(485,678,c),
(465,666,o),
(452,648,o),
(448,621,c),
(450,617,o),
(450,611,o),
(451,608,cs),
(459,591,o)
);
},
{
closed = 1;
nodes = (
(208,682,o),
(165,681,c),
(152,676,o),
(142,668,o),
(133,660,c),
(130,653,o),
(129,647,o),
(126,641,cs),
(121,627,o),
(117,616,o),
(121,597,c),
(129,590,o),
(133,580,o),
(139,573,c),
(152,571,o),
(158,564,o),
(170,562,c),
(178,563,o),
(188,565,o),
(196,562,c),
(203,569,o),
(212,572,o),
(220,576,c),
(223,583,o),
(230,587,o),
(233,596,cs),
(236,604,o),
(235,613,o),
(237,623,cs),
(237,624,o),
(236,625,o),
(235,624,c),
(232,664,o)
);
},
{
ref = A;
}
);
width = 680;
},
{
associatedMasterId = "7C3BCDA4-8F92-4DF1-91BA-B714BE37B8B5";
layerId = "4D44839A-3B6D-427B-ADB8-783DFAB2A6B4";
name = "5 sept. 23 à 05:37";
shapes = (
{
ref = A;
},
{
pos = (31,165);
ref = dieresiscomb;
}
);
width = 680;
}
);
unicode = 196;
},
{
glyphname = AE;
kernLeft = A;
kernRight = E;
lastChange = "2023-09-12 03:35:45 +0000";
layers = (
{
anchors = (
{
name = bottom;
pos = (502,0);
},
{
name = top;
pos = (506,719);
}
);
layerId = "7C3BCDA4-8F92-4DF1-91BA-B714BE37B8B5";
shapes = (
{
closed = 1;
nodes = (
(653,105,l),
(651,108,o),
(652,111,o),
(650,114,c),
(650,115,o),
(648,115,o),
(647,116,cs),
(642,122,o),
(640,132,o),
(637,139,cs),
(631,154,o),
(622,169,o),
(615,183,cs),
(607,205,o),
(598,225,o),
(587,243,cs),
(583,254,o),
(581,266,o),
(573,274,c),
(569,286,o),
(564,295,o),
(560,306,cs),
(555,314,o),
(546,326,o),
(551,338,c),
(563,339,o),
(569,335,o),
(580,335,c),
(591,337,o),
(599,337,o),
(613,336,cs),
(624,335,o),
(636,337,o),
(650,336,cs),
(659,336,o),
(669,333,o),
(679,333,cs),
(693,333,o),
(708,335,o),
(725,335,cs),
(742,335,o),
(763,333,o),
(779,332,cs),
(797,331,o),
(819,325,o),
(823,344,c),
(824,356,o),
(820,358,o),
(815,363,c),
(814,373,o),
(810,378,o),
(807,385,c),
(806,393,o),
(800,396,o),
(799,404,c),
(795,409,o),
(796,420,o),
(788,422,c),
(774,428,o),
(757,423,o),
(741,423,c),
(735,424,o),
(729,425,o),
(724,425,cs),
(704,425,o),
(687,421,o),
(671,425,c),
(655,420,o),
(637,423,o),
(621,423,c),
(615,424,o),
(610,422,o),
(605,422,cs),
(600,422,o),
(594,423,o),
(588,423,cs),
(560,424,o),
(535,420,o),
(513,425,cs),
(504,427,o),
(502,437,o),
(499,444,cs),
(496,451,o),
(491,459,o),
(490,469,c),
(483,473,o),
(483,484,o),
(476,489,c),
(474,497,o),
(469,504,o),
(468,513,c),
(462,524,o),
(456,535,o),
(451,546,cs),
(446,559,o),
(441,571,o),
(435,582,c),
(433,589,o),
(425,598,o),
(429,606,c),
(437,605,o),
(446,605,o),
(452,605,cs),
(462,604,o),
(469,600,o),
(476,600,c),
(483,602,o),
(489,605,o),
(494,605,cs),
(505,605,o),
(514,599,o),
(523,597,c),
(534,603,o),
(545,600,o),
(557,600,c),
(567,602,o),
(578,603,o),
(588,603,cs),
(596,603,o),
(602,600,o),
(608,600,c),
(627,605,l),
(645,605,o),
(664,600,o),
(682,600,c),
(688,607,o),
(703,605,o),
(703,616,c),
(705,628,o),
(698,629,o),
(694,636,c),
(692,641,o),
(686,644,o),
(683,650,c),
(679,665,o),
(672,678,o),
(666,691,c),
(619,693,o),
(566,690,o),
(516,689,cs),
(506,689,o),
(495,687,o),
(485,688,cs),
(479,688,o),
(471,690,o),
(466,691,cs),
(462,691,o),
(457,689,o),
(452,689,cs),
(439,689,o),
(429,691,o),
(419,692,c),
(400,687,o),
(377,695,o),
(360,691,c),
(349,682,o),
(346,664,o),
(337,653,c),
(329,621,o),
(310,598,o),
(301,566,cs),
(295,552,o),
(285,541,o),
(282,522,c),
(278,515,o),
(273,507,o),
(267,500,c),
(262,476,o),
(250,458,o),
(240,439,cs),
(226,410,ls),
(221,401,o),
(214,391,o),
(212,378,c),
(205,372,o),
(203,359,o),
(196,353,c),
(192,327,o),
(176,314,o),
(168,290,c),
(162,284,o),
(160,270,o),
(154,260,cs),
(148,251,o),
(144,239,o),
(141,227,c),
(136,221,o),
(132,215,o),
(127,208,c),
(118,181,o),
(106,156,o),
(94,132,cs),
(90,122,o),
(84,116,o),
(82,105,c),
(73,91,o),
(67,73,o),
(59,55,cs),
(52,38,o),
(37,24,o),
(41,2,c),
(49,-7,o),
(72,-1,o),
(85,-4,cs),
(93,-5,o),
(95,0,o),
(101,-1,cs),
(115,-3,o),
(126,-3,o),
(135,2,c),
(142,9,o),
(145,17,o),
(150,27,cs),
(153,35,o),
(158,46,o),
(163,52,c),
(162,61,o),
(165,66,o),
(165,72,c),
(179,97,l),
(181,106,o),
(189,113,o),
(193,122,cs),
(197,132,o),
(200,141,o),
(207,149,c),
(208,160,o),
(213,169,o),
(221,173,c),
(248,169,o),
(270,173,o),
(298,173,cs),
(304,173,o),
(309,170,o),
(315,169,cs),
(320,169,o),
(324,171,o),
(329,171,cs),
(335,171,o),
(340,169,o),
(347,169,cs),
(369,168,o),
(391,173,o),
(413,169,c),
(429,175,o),
(453,176,o),
(470,171,c),
(485,172,o),
(497,175,o),
(513,176,c),
(527,169,o),
(530,149,o),
(540,136,c),
(545,119,o),
(554,106,o),
(557,86,c),
(564,75,o),
(569,63,o),
(576,52,c),
(578,44,o),
(582,34,o),
(585,30,cs),
(588,24,o),
(591,16,o),
(596,11,c),
(600,5,o),
(603,3,o),
(608,0,c),
(633,3,o),
(664,4,o),
(691,5,cs),
(709,5,o),
(727,6,o),
(743,3,c),
(746,6,o),
(752,5,o),
(757,7,c),
(774,2,o),
(792,9,o),
(810,7,cs),
(818,7,o),
(824,5,o),
(830,5,cs),
(839,5,o),
(844,7,o),
(852,6,cs),
(860,6,o),
(862,2,o),
(869,2,c),
(894,10,o),
(933,5,o),
(963,10,c),
(966,14,o),
(972,17,o),
(972,24,cs),
(972,27,o),
(970,27,o),
(971,29,c),
(961,39,o),
(959,55,o),
(949,66,c),
(945,81,o),
(940,97,o),
(927,102,c),
(914,105,o),
(898,101,o),
(886,99,c),
(847,102,o),
(819,96,o),
(783,101,c),
(773,97,o),
(759,99,o),
(751,99,cs),
(746,99,o),
(744,98,o),
(740,98,c),
(660,98,l)
);
},
{
closed = 1;
nodes = (
(484,256,o),
(473,257,o),
(464,257,c),
(445,261,o),
(422,255,o),
(399,255,cs),
(394,255,o),
(386,257,o),
(379,257,cs),
(301,253,ls),
(296,253,o),
(292,255,o),
(287,255,cs),
(276,255,o),
(264,250,o),
(254,257,c),
(253,275,o),
(263,282,o),
(268,293,c),
(275,304,o),
(278,317,o),
(285,325,c),
(289,336,o),
(294,345,o),
(301,353,c),
(300,358,o),
(304,360,o),
(304,367,c),
(309,371,o),
(310,379,o),
(315,383,c),
(317,396,o),
(323,405,o),
(329,413,c),
(329,425,o),
(336,426,o),
(335,438,c),
(345,450,o),
(353,462,o),
(354,483,c),
(362,488,o),
(362,500,o),
(371,503,c),
(380,501,o),
(381,490,o),
(384,479,cs),
(387,473,o),
(393,467,o),
(397,460,c),
(397,446,l),
(403,435,o),
(407,421,o),
(416,411,c),
(417,397,o),
(423,390,o),
(427,378,c),
(437,361,o),
(445,342,o),
(454,325,cs),
(463,306,o),
(473,288,o),
(483,269,c),
(483,266,ls)
);
}
);
width = 1013;
}
);
unicode = 198;
},
{
glyphname = B;
kernLeft = H;
kernRight = B;
lastChange = "2023-09-12 03:35:45 +0000";
layers = (
{
layerId = "7C3BCDA4-8F92-4DF1-91BA-B714BE37B8B5";
shapes = (
{
closed = 1;
nodes = (
(396,435,o),
(403,439,o),
(405,447,cs),
(410,479,o),
(410,515,o),
(406,548,c),
(398,564,o),
(390,579,o),
(385,598,c),
(372,615,o),
(357,631,o),
(343,647,c),
(322,657,o),
(303,670,o),
(283,682,c),
(227,694,o),
(162,689,o),
(103,695,c),
(91,690,o),
(74,691,o),
(67,683,c),
(63,674,o),
(65,663,o),
(65,652,cs),
(67,620,o),
(65,588,o),
(69,561,c),
(63,544,o),
(69,525,o),
(69,506,cs),
(69,434,o),
(69,356,o),
(71,288,cs),
(71,263,o),
(74,233,o),
(69,210,c),
(72,138,o),
(74,77,o),
(69,8,cs),
(68,0,o),
(79,-5,o),
(87,-7,cs),
(97,-10,o),
(109,-5,o),
(118,-5,cs),
(130,-5,o),
(143,-8,o),
(156,-8,cs),
(168,-8,o),
(182,-5,o),
(194,-5,cs),
(202,-5,o),
(211,-6,o),
(219,-7,cs),
(223,-7,o),
(227,-5,o),
(231,-5,cs),
(235,-5,o),
(239,-7,o),
(245,-7,cs),
(270,-6,o),
(297,0,o),
(324,-2,c),
(334,2,o),
(341,6,o),
(353,8,c),
(361,13,o),
(371,17,o),
(381,20,c),
(397,35,o),
(415,48,o),
(433,61,c),
(436,70,o),
(443,78,o),
(448,88,cs),
(453,98,o),
(460,107,o),
(463,116,c),
(465,119,o),
(466,125,o),
(468,130,cs),
(472,145,o),
(480,165,o),
(480,182,cs),
(480,184,o),
(479,186,o),
(478,189,c),
(476,205,o),
(477,220,o),
(475,237,cs),
(474,249,o),
(471,264,o),
(466,273,cs),
(454,293,o),
(440,308,o),
(428,328,c),
(423,331,o),
(410,338,o),
(408,340,c),
(404,349,o),
(392,349,o),
(388,356,c),
(388,356,o),
(375,361,o),
(368,363,c),
(366,363,o),
(352,366,o),
(351,374,c),
(356,386,o),
(369,390,o),
(378,398,c),
(396,424,l)
);
},
{
closed = 1;
nodes = (
(323,510,o),
(321,499,o),
(324,494,c),
(323,490,o),
(323,477,o),
(321,471,cs),
(320,469,o),
(317,465,o),
(316,462,cs),
(309,444,ls),
(307,439,o),
(305,437,o),
(303,432,c),
(295,422,o),
(282,413,o),
(272,404,c),
(263,403,o),
(256,396,o),
(248,392,c),
(220,387,o),
(189,387,o),
(161,389,c),
(149,402,o),
(163,430,o),
(153,446,c),
(156,499,o),
(153,554,o),
(156,606,c),
(166,619,o),
(187,613,o),
(207,613,c),
(221,607,o),
(239,607,o),
(254,603,c),
(276,593,o),
(293,577,o),
(307,558,c),
(323,517,l)
);
},
{
closed = 1;
nodes = (
(157,252,o),
(153,282,o),
(156,311,c),
(167,318,o),
(182,314,o),
(197,314,cs),
(224,315,o),
(253,317,o),
(280,313,cs),
(303,308,o),
(322,299,o),
(338,290,c),
(345,288,o),
(348,282,o),
(353,277,cs),
(357,272,o),
(363,269,o),
(366,264,c),
(375,255,o),
(380,243,o),
(388,232,c),
(388,226,o),
(390,222,o),
(391,217,cs),
(392,200,o),
(389,189,o),
(390,174,c),
(387,164,o),
(381,156,o),
(379,145,c),
(346,105,l),
(328,98,o),
(315,85,o),
(295,78,cs),
(282,74,o),
(266,78,o),
(251,78,cs),
(240,78,o),
(231,74,o),
(220,73,cs),
(215,73,o),
(210,75,o),
(204,75,cs),
(191,75,o),
(171,71,o),
(158,77,c),
(153,88,o),
(157,103,o),
(156,117,cs),
(154,130,o),
(156,145,o),
(158,157,c),
(158,164,o),
(154,167,o),
(153,174,c),
(157,181,o),
(156,190,o),
(156,198,cs),
(156,224,ls)
);
}
);
width = 500;
}
);
unicode = 66;
},
{
glyphname = C;
kernLeft = O;
kernRight = C;
lastChange = "2023-09-12 03:35:45 +0000";
layers = (
{
anchors = (
{
name = bottom;
pos = (404,0);
},
{
name = top;
pos = (404,695);
}
);
layerId = "7C3BCDA4-8F92-4DF1-91BA-B714BE37B8B5";
shapes = (
{
closed = 1;
nodes = (
(543,686,o),
(530,692,o),
(516,699,c),
(498,696,o),
(481,706,o),
(462,708,cs),
(431,711,o),
(400,706,o),
(369,708,c),
(351,701,o),
(331,700,o),
(312,695,c),
(294,688,ls),
(290,687,o),
(287,688,o),
(284,687,cs),
(275,684,o),
(262,678,o),
(255,675,cs),
(225,661,l),
(214,652,o),
(201,649,o),
(194,636,c),
(177,626,l),
(172,619,o),
(165,613,o),
(158,608,c),
(153,601,o),
(145,595,o),
(140,588,c),
(126,577,o),
(117,561,o),
(105,548,c),
(101,534,o),
(94,522,o),
(85,513,c),
(83,508,o),
(76,498,o),
(76,488,c),
(71,482,o),
(71,472,o),
(65,466,c),
(63,447,o),
(57,430,o),
(53,412,c),
(53,400,o),
(52,387,o),
(52,374,cs),
(51,360,o),
(49,348,o),
(50,336,cs),
(50,330,o),
(52,323,o),
(53,317,cs),
(55,297,ls),
(57,278,o),
(60,257,o),
(65,244,c),
(66,243,o),
(66,240,o),
(67,237,cs),
(74,214,o),
(86,194,o),
(93,174,c),
(103,162,o),
(112,151,o),
(120,140,cs),
(123,136,o),
(128,133,o),
(128,127,c),
(140,111,o),
(156,100,o),
(166,84,c),
(176,78,o),
(186,73,o),
(192,65,c),
(204,61,o),
(208,51,o),
(218,47,cs),
(239,36,o),
(261,28,o),
(279,15,c),
(303,10,o),
(325,3,o),
(348,-3,c),
(377,-5,o),
(409,-8,o),
(441,-7,cs),
(460,-5,o),
(480,-1,o),
(497,3,cs),
(517,7,o),
(534,14,o),
(549,20,c),
(558,21,o),
(563,23,o),
(569,27,c),
(584,31,o),
(597,36,o),
(604,47,c),
(607,54,o),
(605,65,o),
(607,72,c),
(605,75,o),
(606,82,o),
(604,85,c),
(604,98,o),
(604,110,o),
(606,120,cs),
(607,127,o),
(604,130,o),
(604,137,c),
(601,140,o),
(603,148,o),
(596,148,cs),
(576,147,o),
(572,129,o),
(558,123,c),
(547,121,o),
(541,114,o),
(531,110,c),
(517,110,o),
(511,102,o),
(501,99,c),
(494,99,o),
(489,94,o),
(481,93,cs),
(472,91,o),
(460,93,o),
(451,91,cs),
(443,90,o),
(438,87,o),
(430,87,cs),
(423,86,o),
(414,86,o),
(406,87,cs),
(374,88,o),
(347,96,o),
(320,100,c),
(313,105,o),
(303,108,o),
(294,111,c),
(288,119,o),
(277,121,o),
(267,123,c),
(260,130,o),
(251,138,o),
(242,143,cs),
(232,148,o),
(227,158,o),
(217,163,c),
(212,173,o),
(205,178,o),
(200,187,c),
(187,197,o),
(177,211,o),
(170,229,c),
(166,235,o),
(161,242,o),
(160,250,c),
(151,262,o),
(146,279,o),
(140,294,c),
(139,317,o),
(138,340,o),
(138,366,c),
(141,378,o),
(142,393,o),
(143,407,c),
(147,419,o),
(152,429,o),
(154,442,c),
(159,449,o),
(163,459,o),
(169,464,cs),
(172,467,o),
(172,469,o),
(174,473,cs),
(175,477,o),
(175,482,o),
(178,485,c),
(184,494,o),
(192,500,o),
(195,511,c),
(214,526,o),
(228,546,o),
(249,560,c),
(267,576,o),
(287,589,o),
(312,598,c),
(353,601,o),
(382,617,o),
(426,618,c),
(447,614,o),
(469,612,o),
(488,608,cs),
(508,603,o),
(526,597,o),
(545,589,cs),
(563,581,o),
(572,557,o),
(598,561,c),
(611,568,o),
(605,588,o),
(604,604,cs),
(604,623,o),
(606,644,o),
(600,656,cs),
(595,665,o),
(586,666,o),
(580,670,cs),
(560,683,l)
);
}
);
width = 652;
}
);
unicode = 67;
},
{
glyphname = D;
kernLeft = H;
kernRight = O;
lastChange = "2023-09-12 03:35:45 +0000";
layers = (
{
anchors = (
{
name = bottom;
pos = (288,0);
},
{
name = center;
pos = (334,348);
},
{
name = top;
pos = (288,695);
}
);
layerId = "7C3BCDA4-8F92-4DF1-91BA-B714BE37B8B5";
shapes = (
{
closed = 1;
nodes = (
(358,682,o),
(340,688,o),
(313,687,c),
(292,692,o),
(267,696,o),
(240,693,c),
(234,694,o),
(228,696,o),
(222,696,cs),
(212,697,o),
(201,696,o),
(190,696,cs),
(178,696,o),
(165,694,o),
(156,695,cs),
(147,695,o),
(138,699,o),
(130,699,cs),
(113,699,o),
(95,694,o),
(78,693,c),
(72,688,o),
(72,677,o),
(66,671,c),
(66,615,o),
(63,562,o),
(68,511,c),
(66,507,o),
(65,500,o),
(65,494,c),
(68,471,o),
(69,440,o),
(65,416,c),
(68,401,o),
(65,378,o),
(66,360,cs),
(67,353,o),
(69,349,o),
(69,342,c),
(71,335,o),
(66,331,o),
(66,324,cs),
(69,283,o),
(66,237,o),
(66,198,c),
(74,169,o),
(68,138,o),
(68,105,cs),
(68,78,o),
(74,51,o),
(72,23,c),
(77,13,o),
(84,5,o),
(95,0,c),
(116,0,o),
(136,1,o),
(153,1,cs),
(182,2,o),
(207,5,o),
(237,1,c),
(244,1,o),
(248,4,o),
(255,4,cs),
(288,6,o),
(315,7,o),
(342,13,cs),
(368,18,o),
(390,33,o),
(416,36,c),
(425,43,o),
(433,51,o),
(446,53,c),
(455,60,o),
(464,67,o),
(475,72,c),
(486,82,o),
(497,91,o),
(509,100,c),
(513,107,o),
(519,110,o),
(522,117,c),
(527,123,o),
(536,124,o),
(539,131,c),
(545,139,o),
(550,147,o),
(553,157,c),
(567,172,o),
(578,190,o),
(585,212,c),
(590,218,o),
(583,226,o),
(583,232,c),
(590,233,o),
(597,234,o),
(597,242,c),
(604,260,o),
(607,279,o),
(613,296,c),
(611,310,o),
(614,328,o),
(613,339,cs),
(611,363,o),
(612,388,o),
(606,409,c),
(608,413,o),
(608,421,o),
(608,427,c),
(605,438,o),
(599,446,o),
(597,458,c),
(594,464,o),
(586,466,o),
(583,474,c),
(584,480,o),
(586,485,o),
(583,491,cs),
(572,514,o),
(558,533,o),
(548,557,c),
(539,565,o),
(528,572,o),
(519,581,c),
(518,588,o),
(512,591,o),
(506,595,c),
(502,600,o),
(498,604,o),
(495,610,c),
(477,617,o),
(466,631,o),
(452,641,c),
(432,647,o),
(419,659,o),
(399,664,c),
(377,676,l)
);
},
{
closed = 1;
nodes = (
(514,279,o),
(515,276,o),
(515,273,c),
(512,266,o),
(503,261,o),
(503,252,c),
(500,244,o),
(493,240,o),
(492,230,c),
(487,225,o),
(484,218,o),
(481,210,c),
(474,207,o),
(471,199,o),
(467,192,c),
(452,176,o),
(434,162,o),
(419,146,c),
(407,143,o),
(400,134,o),
(389,128,cs),
(359,111,l),
(338,106,o),
(316,101,o),
(298,93,c),
(287,94,o),
(279,91,o),
(272,88,c),
(252,92,o),
(228,93,o),
(206,90,cs),
(198,88,o),
(187,86,o),
(175,88,cs),
(170,89,o),
(167,92,o),
(164,95,c),
(157,109,o),
(160,140,o),
(162,157,c),
(161,163,o),
(161,171,o),
(159,177,c),
(160,240,o),
(160,305,o),
(159,368,c),
(157,381,o),
(159,393,o),
(159,406,cs),
(159,437,o),
(157,464,o),
(159,496,cs),
(159,499,o),
(156,501,o),
(156,505,cs),
(157,512,o),
(159,524,o),
(155,534,c),
(159,557,o),
(154,586,o),
(162,604,c),
(169,613,o),
(183,606,o),
(194,610,c),
(209,612,o),
(227,607,o),
(247,606,cs),
(266,605,o),
(285,605,o),
(302,603,c),
(312,599,o),
(321,594,o),
(336,595,c),
(344,589,o),
(354,585,o),
(365,583,c),
(378,572,o),
(397,567,o),
(409,557,c),
(412,551,o),
(417,552,o),
(420,549,c),
(430,544,o),
(439,533,o),
(451,528,c),
(457,520,o),
(461,511,o),
(467,505,cs),
(474,498,o),
(480,492,o),
(484,482,c),
(498,470,o),
(501,447,o),
(513,432,c),
(514,421,o),
(517,412,o),
(521,404,c),
(522,375,o),
(531,341,o),
(519,319,c),
(518,307,o),
(519,295,o),
(518,285,c),
(515,281,ls)
);
}
);
width = 658;
}
);
unicode = 68;
},
{
glyphname = Eth;
kernLeft = H;
kernRight = O;
lastChange = "2023-09-12 03:35:45 +0000";
layers = (
{
layerId = "7C3BCDA4-8F92-4DF1-91BA-B714BE37B8B5";
shapes = (
{
closed = 1;
nodes = (
(405,682,o),
(387,688,o),
(360,687,c),
(339,692,o),
(314,696,o),
(287,693,c),
(281,694,o),
(275,696,o),
(269,696,cs),
(259,697,o),
(248,696,o),
(237,696,cs),
(225,696,o),
(212,694,o),
(203,695,cs),
(194,695,o),
(185,699,o),
(177,699,cs),
(160,699,o),
(142,694,o),
(125,693,c),
(119,688,o),
(119,677,o),
(113,671,c),
(113,615,o),
(110,562,o),
(115,511,c),
(113,507,o),
(112,500,o),
(112,494,c),
(115,471,o),
(116,440,o),
(112,416,c),
(113,408,o),
(113,400,o),
(113,390,c),
(78,387,l),
(63,374,o),
(63,345,o),
(70,322,c),
(77,317,o),
(89,316,o),
(97,312,c),
(113,315,l),
(115,277,o),
(113,234,o),
(113,198,c),
(121,169,o),
(115,138,o),
(115,105,cs),
(115,78,o),
(121,51,o),
(119,23,c),
(124,13,o),
(131,5,o),
(142,0,c),
(163,0,o),
(183,1,o),
(200,1,cs),
(229,2,o),
(254,5,o),
(284,1,c),
(291,1,o),
(295,4,o),
(302,4,cs),
(335,6,o),
(362,7,o),
(389,13,cs),
(415,18,o),
(437,33,o),
(463,36,c),
(472,43,o),
(480,51,o),
(493,53,c),
(502,60,o),
(511,67,o),
(522,72,c),
(533,82,o),
(544,91,o),
(556,100,c),
(560,107,o),
(566,110,o),
(569,117,c),
(574,123,o),
(583,124,o),
(586,131,c),
(592,139,o),
(597,147,o),
(600,157,c),
(614,172,o),
(625,190,o),
(632,212,c),
(637,218,o),
(630,226,o),
(630,232,c),
(637,233,o),
(644,234,o),
(644,242,c),
(651,260,o),
(654,279,o),
(660,296,c),
(658,310,o),
(661,328,o),
(660,339,cs),
(658,363,o),
(659,388,o),
(653,409,c),
(655,413,o),
(655,421,o),
(655,427,c),
(652,438,o),
(646,446,o),
(644,458,c),
(641,464,o),
(633,466,o),
(630,474,c),
(631,480,o),
(633,485,o),
(630,491,cs),
(619,514,o),
(605,533,o),
(595,557,c),
(586,565,o),
(575,572,o),
(566,581,c),
(565,588,o),
(559,591,o),
(553,595,c),
(549,600,o),
(545,604,o),
(542,610,c),
(524,617,o),
(513,631,o),
(499,641,c),
(479,647,o),
(466,659,o),
(446,664,c),
(424,676,l)
);
},
{
closed = 1;
nodes = (
(204,394,o),
(206,400,o),
(206,406,cs),
(206,437,o),
(204,464,o),
(206,496,cs),
(206,499,o),
(203,501,o),
(203,505,cs),
(204,512,o),
(206,524,o),
(202,534,c),
(206,557,o),
(201,586,o),
(209,604,c),
(216,613,o),
(230,606,o),
(241,610,c),
(256,612,o),
(274,607,o),
(294,606,cs),
(313,605,o),
(332,605,o),
(349,603,c),
(359,599,o),
(368,594,o),
(383,595,c),
(391,589,o),
(401,585,o),
(412,583,c),
(425,572,o),
(444,567,o),
(456,557,c),
(459,551,o),
(464,552,o),
(467,549,c),
(477,544,o),
(486,533,o),
(498,528,c),
(504,520,o),
(508,511,o),
(514,505,cs),
(521,498,o),
(527,492,o),
(531,482,c),
(545,470,o),
(548,447,o),
(560,432,c),
(561,421,o),
(564,412,o),
(568,404,c),
(569,375,o),
(578,341,o),
(566,319,c),
(565,307,o),
(566,295,o),
(565,285,c),
(562,281,ls),
(561,279,o),
(562,276,o),
(562,273,c),
(559,266,o),
(550,261,o),
(550,252,c),
(547,244,o),
(540,240,o),
(539,230,c),
(534,225,o),
(531,218,o),
(528,210,c),
(521,207,o),
(518,199,o),
(514,192,c),
(499,176,o),
(481,162,o),
(466,146,c),
(454,143,o),
(446,135,o),
(436,128,cs),
(406,111,l),
(385,106,o),
(363,101,o),
(345,93,c),
(334,94,o),
(326,91,o),
(319,88,c),
(299,92,o),
(275,93,o),
(253,90,cs),
(245,88,o),
(234,86,o),
(222,88,cs),
(217,89,o),
(214,92,o),
(211,95,c),
(204,109,o),
(207,140,o),
(209,157,c),
(208,163,o),
(208,171,o),
(206,177,c),
(206,222,o),
(207,268,o),
(206,314,c),
(211,314,ls),
(230,314,o),
(247,320,o),
(264,323,c),
(265,328,o),
(268,330,o),
(269,332,cs),
(274,341,o),
(277,356,o),
(275,367,c),
(272,375,o),
(269,385,o),
(261,389,c),
(245,391,o),
(229,388,o),
(212,389,cs),
(204,389,l)
);
}
);
width = 706;
}
);
unicode = 208;
},
{
glyphname = E;
kernLeft = H;
kernRight = E;
lastChange = "2023-09-12 03:35:45 +0000";
layers = (
{
anchors = (
{
name = bottom;
pos = (273,0);
},
{
name = ogonek;
pos = (383,10);
},
{
name = top;
pos = (253,695);
},
{
name = topleft;
pos = (27,695);
}
);
layerId = "7C3BCDA4-8F92-4DF1-91BA-B714BE37B8B5";
shapes = (
{
closed = 1;
nodes = (
(153,241,o),
(153,265,o),
(154,282,c),
(159,289,o),
(153,305,o),
(160,311,c),
(156,321,o),
(161,328,o),
(166,334,c),
(183,341,o),
(211,339,o),
(227,339,cs),
(232,339,o),
(236,340,o),
(239,340,cs),
(269,341,o),
(295,342,o),
(322,342,cs),
(332,342,o),
(342,340,o),
(354,340,cs),
(363,340,o),
(374,342,o),
(383,340,c),
(401,346,o),
(426,343,o),
(438,354,c),
(448,373,o),
(435,394,o),
(438,418,c),
(423,429,o),
(394,427,o),
(366,427,c),
(338,437,o),
(303,427,o),
(276,435,c),
(269,429,o),
(260,434,o),
(248,432,cs),
(219,430,o),
(178,424,o),
(161,442,c),
(154,456,o),
(156,481,o),
(158,493,cs),
(159,506,o),
(155,515,o),
(154,526,c),
(161,544,o),
(158,563,o),
(158,584,c),
(163,589,o),
(161,601,o),
(168,603,c),
(174,610,o),
(188,608,o),
(200,606,c),
(239,613,o),
(280,610,o),
(322,610,cs),
(348,610,o),
(375,615,o),
(400,612,c),
(414,615,o),
(434,613,o),
(436,628,cs),
(438,647,o),
(438,677,o),
(427,688,c),
(400,694,o),
(371,693,o),
(340,693,cs),
(332,693,o),
(324,695,o),
(317,695,cs),
(309,694,o),
(302,691,o),
(294,691,cs),
(279,691,o),
(264,693,o),
(248,693,cs),
(196,693,o),
(148,691,o),
(97,693,c),
(88,689,o),
(75,688,o),
(70,679,c),
(64,659,o),
(68,637,o),
(70,615,cs),
(70,593,o),
(71,569,o),
(71,549,c),
(67,537,o),
(66,524,o),
(65,510,cs),
(65,489,o),
(66,466,o),
(71,451,c),
(71,445,o),
(66,443,o),
(67,436,c),
(71,429,o),
(72,421,o),
(71,411,c),
(68,400,o),
(75,396,o),
(74,386,c),
(67,365,o),
(73,340,o),
(73,316,cs),
(72,285,o),
(71,255,o),
(73,229,c),
(68,213,o),
(70,195,o),
(73,178,cs),
(74,171,o),
(68,171,o),
(70,163,c),
(73,158,o),
(75,152,o),
(71,145,c),
(73,139,o),
(72,128,o),
(74,122,c),
(74,119,o),
(73,116,o),
(73,111,c),
(71,100,o),
(72,77,o),
(73,65,cs),
(73,52,o),
(68,40,o),
(74,30,c),
(80,24,o),
(85,17,o),
(94,15,cs),
(119,8,o),
(151,12,o),
(176,12,cs),
(193,12,o),
(209,10,o),
(226,10,cs),
(242,10,o),
(259,10,o),
(273,13,c),
(307,8,o),
(345,16,o),
(377,10,c),
(383,10,o),
(388,14,o),
(395,13,c),
(405,14,o),
(418,11,o),
(424,17,c),
(431,19,o),
(439,21,o),
(442,30,c),
(445,52,o),
(448,81,o),
(435,93,c),
(410,100,o),
(382,96,o),
(357,96,cs),
(347,96,o),
(339,99,o),
(329,99,cs),
(323,99,o),
(317,95,o),
(310,95,cs),
(304,94,o),
(296,96,o),
(290,96,cs),
(283,96,o),
(275,94,o),
(268,95,cs),
(260,95,o),
(254,99,o),
(247,99,cs),
(240,99,o),
(234,96,o),
(227,96,cs),
(221,96,o),
(214,99,o),
(207,99,cs),
(198,99,o),
(188,93,o),
(178,96,c),
(166,102,o),
(159,111,o),
(154,123,c),
(152,133,o),
(155,146,o),
(154,160,c),
(160,164,o),
(155,172,o),
(156,175,c),
(156,181,o),
(159,187,o),
(160,194,c),
(154,226,l)
);
}
);
width = 495;
}
);
unicode = 69;
},
{
glyphname = Schwa;
kernLeft = O;
kernRight = O;
lastChange = "2023-09-12 03:35:45 +0000";
layers = (
{
layerId = "7C3BCDA4-8F92-4DF1-91BA-B714BE37B8B5";
shapes = (
{
closed = 1;
nodes = (
(552,23,l),
(558,29,o),
(564,32,o),
(573,34,c),
(577,40,o),
(584,42,o),
(591,46,c),
(595,50,o),
(600,55,o),
(607,57,c),
(610,62,o),
(613,67,o),
(619,69,c),
(627,79,o),
(635,86,o),
(648,90,c),
(653,103,o),
(663,109,o),
(669,119,cs),
(676,128,o),
(686,136,o),
(693,144,c),
(696,152,o),
(697,159,o),
(700,165,cs),
(705,177,o),
(713,185,o),
(718,197,cs),
(720,201,o),
(720,206,o),
(721,209,cs),
(724,216,o),
(728,223,o),
(732,231,c),
(734,239,o),
(734,247,o),
(740,254,c),
(741,269,o),
(742,284,o),
(749,295,c),
(743,311,o),
(745,329,o),
(744,347,cs),
(744,365,o),
(744,385,o),
(743,403,cs),
(741,435,o),
(726,460,o),
(723,487,c),
(718,494,o),
(714,503,o),
(709,512,c),
(704,518,o),
(700,527,o),
(697,536,c),
(683,548,o),
(676,565,o),
(663,576,c),
(654,590,o),
(638,598,o),
(630,614,c),
(620,617,o),
(617,625,o),
(610,631,c),
(600,632,o),
(595,639,o),
(590,646,c),
(576,655,o),
(559,663,o),
(546,672,c),
(526,676,o),
(509,684,o),
(492,692,c),
(475,690,o),
(468,699,o),
(453,699,c),
(449,703,o),
(440,703,o),
(434,704,c),
(424,702,o),
(422,707,o),
(416,707,cs),
(365,709,o),
(322,703,o),
(282,695,c),
(273,692,o),
(264,687,o),
(256,684,cs),
(246,681,o),
(236,680,o),
(228,674,c),
(209,669,o),
(195,658,o),
(176,652,c),
(162,638,o),
(146,625,o),
(128,615,c),
(116,599,o),
(98,589,o),
(91,567,c),
(96,551,o),
(109,543,o),
(120,533,cs),
(130,524,o),
(139,510,o),
(157,509,c),
(164,510,o),
(173,512,o),
(176,518,c),
(183,523,o),
(183,532,o),
(190,535,c),
(199,545,o),
(211,553,o),
(220,564,c),
(237,569,o),
(248,579,o),
(262,587,c),
(270,587,o),
(277,592,o),
(282,596,c),
(296,594,o),
(307,602,o),
(318,603,cs),
(334,606,o),
(349,602,o),
(366,609,c),
(385,607,o),
(401,610,o),
(417,607,cs),
(431,605,o),
(441,597,o),
(454,600,c),
(464,595,o),
(477,593,o),
(489,588,cs),
(504,582,o),
(514,572,o),
(529,567,c),
(533,561,o),
(541,558,o),
(547,553,c),
(554,550,o),
(557,542,o),
(564,540,c),
(574,529,o),
(583,518,o),
(595,509,c),
(597,500,o),
(603,497,o),
(607,490,c),
(613,487,o),
(613,477,o),
(619,473,c),
(630,452,o),
(638,427,o),
(650,406,c),
(650,393,o),
(652,383,o),
(654,371,c),
(657,319,o),
(648,280,o),
(634,244,cs),
(631,236,o),
(625,230,o),
(622,219,c),
(611,206,o),
(596,194,o),
(590,176,c),
(572,157,o),
(550,143,o),
(531,126,c),
(521,122,o),
(510,118,o),
(503,110,c),
(487,109,o),
(477,103,o),
(466,98,c),
(428,89,l),
(410,88,o),
(392,87,o),
(378,84,c),
(353,87,o),
(332,87,o),
(312,92,cs),
(293,98,o),
(276,106,o),
(257,110,c),
(244,119,o),
(230,125,o),
(219,134,cs),
(203,148,o),
(193,169,o),
(178,185,c),
(176,194,o),
(170,201,o),
(164,211,c),
(163,214,o),
(163,217,o),
(161,221,cs),
(159,227,o),
(157,231,o),
(155,241,cs),
(153,248,o),
(151,256,o),
(152,264,c),
(156,270,o),
(250,266,o),
(267,266,cs),
(290,266,o),
(316,265,o),
(338,264,c),
(392,266,ls),
(427,267,o),
(461,265,o),
(495,264,cs),
(559,264,ls),
(578,264,o),
(598,261,o),
(618,261,c),
(632,267,o),
(646,249,o),
(656,257,c),
(656,267,o),
(657,297,o),
(654,306,c),
(659,319,o),
(669,336,o),
(659,350,c),
(645,354,o),
(625,356,o),
(605,356,cs),
(598,356,o),
(586,359,o),
(578,359,cs),
(556,357,ls),
(544,357,o),
(532,357,o),
(520,356,cs),
(498,356,o),
(478,354,o),
(454,355,cs),
(409,355,o),
(365,358,o),
(326,353,c),
(307,355,o),
(282,358,o),
(255,356,cs),
(238,355,ls),
(219,354,o),
(162,356,o),
(143,356,cs),
(101,357,o),
(85,359,o),
(73,358,cs),
(66,357,o),
(56,357,o),
(53,351,c),
(51,350,o),
(50,349,o),
(50,347,cs),
(50,310,ls),
(49,291,o),
(53,269,o),
(56,251,cs),
(58,236,o),
(64,223,o),
(65,208,c),
(72,198,o),
(74,183,o),
(80,171,c),
(87,161,o),
(92,148,o),
(97,136,c),
(101,130,o),
(105,126,o),
(108,119,cs),
(111,112,o),
(119,110,o),
(121,104,c),
(130,93,o),
(139,84,o),
(146,72,c),
(164,59,o),
(178,42,o),
(198,32,c),
(206,24,o),
(221,24,o),
(227,16,c),
(238,12,o),
(247,6,o),
(257,0,c),
(274,2,o),
(283,-4,o),
(295,-8,c),
(336,-12,o),
(382,-12,o),
(422,-16,c),
(444,-9,l),
(452,-8,o),
(460,-9,o),
(466,-4,c),
(481,-2,o),
(495,2,o),
(511,5,c)
);
}
);
width = 799;
}
);
unicode = 399;
},
{
glyphname = F;
kernLeft = H;
kernRight = F;
lastChange = "2023-09-12 03:35:45 +0000";
layers = (
{
anchors = (
{
name = bottom;
pos = (231,0);
},
{
name = top;
pos = (231,695);
}
);
layerId = "7C3BCDA4-8F92-4DF1-91BA-B714BE37B8B5";
shapes = (
{
closed = 1;
nodes = (
(69,285,o),
(71,250,o),
(71,215,cs),
(71,175,o),
(70,134,o),
(72,93,cs),
(72,86,o),
(69,80,o),
(69,72,cs),
(69,64,o),
(71,55,o),
(71,47,cs),
(70,34,o),
(65,22,o),
(69,12,c),
(77,3,o),
(93,1,o),
(107,1,cs),
(117,1,o),
(127,2,o),
(136,3,cs),
(147,4,o),
(156,2,o),
(162,8,cs),
(172,20,o),
(166,34,o),
(165,48,cs),
(164,68,o),
(166,87,o),
(167,108,cs),
(167,129,o),
(168,152,o),
(167,174,c),
(162,201,l),
(162,214,o),
(164,226,o),
(165,237,cs),
(166,248,o),
(165,260,o),
(165,270,cs),
(165,282,o),
(162,295,o),
(162,305,cs),
(162,316,o),
(165,329,o),
(168,337,c),
(176,342,o),
(188,340,o),
(199,340,cs),
(219,341,o),
(253,342,o),
(272,340,cs),
(277,340,o),
(281,338,o),
(286,339,cs),
(305,342,o),
(330,342,o),
(353,342,cs),
(379,342,o),
(405,338,o),
(420,352,c),
(425,363,o),
(423,377,o),
(420,389,c),
(420,404,o),
(421,419,o),
(414,426,c),
(404,431,o),
(392,427,o),
(382,427,cs),
(347,428,o),
(307,430,o),
(272,426,c),
(263,426,o),
(258,430,o),
(248,429,cs),
(237,429,o),
(230,425,o),
(220,426,cs),
(212,427,o),
(206,430,o),
(199,430,c),
(186,432,o),
(174,428,o),
(165,435,c),
(161,448,o),
(167,463,o),
(167,479,cs),
(167,508,o),
(162,540,o),
(168,565,c),
(168,571,o),
(164,577,o),
(162,586,c),
(162,595,o),
(161,604,o),
(167,610,c),
(200,611,o),
(233,612,o),
(268,612,cs),
(292,612,o),
(318,610,o),
(338,610,cs),
(341,610,o),
(341,611,o),
(344,612,c),
(346,612,o),
(349,610,o),
(350,610,cs),
(360,610,o),
(369,612,o),
(379,612,cs),
(391,612,o),
(405,606,o),
(417,613,c),
(433,635,o),
(430,690,o),
(407,702,c),
(390,700,o),
(371,701,o),
(360,700,cs),
(346,699,o),
(335,700,o),
(321,700,cs),
(295,701,o),
(273,699,o),
(249,696,cs),
(244,696,o),
(238,697,o),
(235,695,c),
(231,697,o),
(225,700,o),
(222,696,c),
(208,697,o),
(201,694,o),
(188,695,c),
(178,693,o),
(177,700,o),
(168,699,c),
(158,700,o),
(148,696,o),
(136,696,cs),
(113,696,o),
(85,704,o),
(69,691,c),
(61,670,o),
(69,648,o),
(69,626,cs),
(69,619,o),
(68,613,o),
(68,604,cs),
(68,595,o),
(71,584,o),
(71,575,cs),
(70,567,o),
(68,560,o),
(68,551,cs),
(68,542,o),
(71,531,o),
(71,522,cs),
(71,512,o),
(69,504,o),
(69,494,cs),
(71,438,o),
(70,384,o),
(71,332,cs),
(71,317,ls)
);
}
);
width = 472;
}
);
unicode = 70;
},
{
glyphname = G;
kernLeft = O;
kernRight = G;
lastChange = "2023-09-12 03:35:45 +0000";
layers = (
{
anchors = (
{
name = bottom;
pos = (411,0);
},
{
name = top;
pos = (411,695);
}
);
layerId = "7C3BCDA4-8F92-4DF1-91BA-B714BE37B8B5";
shapes = (
{
closed = 1;
nodes = (
(304,3,o),
(318,-1,o),
(333,-3,c),
(339,-8,o),
(347,-7,o),
(355,-8,c),
(377,-15,l),
(417,-11,o),
(463,-11,o),
(504,-7,c),
(516,-3,o),
(525,3,o),
(542,1,c),
(552,7,o),
(561,13,o),
(572,17,c),
(578,25,o),
(593,25,o),
(601,33,c),
(621,43,o),
(635,60,o),
(653,73,c),
(660,85,o),
(669,94,o),
(678,105,c),
(680,111,o),
(688,113,o),
(691,120,cs),
(694,127,o),
(698,131,o),
(702,137,c),
(707,149,o),
(712,162,o),
(719,172,c),
(725,184,o),
(727,199,o),
(734,209,c),
(735,224,o),
(741,237,o),
(743,252,cs),
(746,270,o),
(750,292,o),
(749,311,cs),
(749,348,ls),
(749,350,o),
(748,351,o),
(746,352,c),
(743,358,o),
(733,358,o),
(726,359,cs),
(714,360,o),
(698,358,o),
(681,357,cs),
(654,356,o),
(625,359,o),
(606,354,c),
(590,359,o),
(572,356,o),
(554,356,cs),
(544,355,o),
(536,357,o),
(527,357,cs),
(507,358,o),
(485,360,o),
(470,351,c),
(466,337,o),
(470,320,o),
(472,307,c),
(471,298,o),
(469,289,o),
(469,279,c),
(473,271,o),
(481,268,o),
(487,262,c),
(532,264,o),
(588,269,o),
(630,267,cs),
(637,267,o),
(643,271,o),
(647,265,c),
(648,257,o),
(646,249,o),
(644,242,cs),
(642,232,o),
(640,228,o),
(638,222,cs),
(636,218,o),
(636,215,o),
(635,212,c),
(629,202,o),
(623,195,o),
(621,186,c),
(606,170,o),
(596,149,o),
(580,135,cs),
(569,126,o),
(555,120,o),
(542,111,c),
(523,107,o),
(506,99,o),
(487,93,cs),
(467,88,o),
(446,88,o),
(421,85,c),
(407,88,o),
(389,89,o),
(371,90,c),
(333,99,l),
(322,104,o),
(312,110,o),
(296,111,c),
(289,119,o),
(278,123,o),
(268,127,c),
(249,144,o),
(227,158,o),
(209,177,c),
(203,195,o),
(188,207,o),
(177,220,c),
(174,231,o),
(168,237,o),
(165,245,cs),
(151,281,o),
(142,320,o),
(145,372,c),
(147,384,o),
(149,394,o),
(149,407,c),
(161,428,o),
(169,453,o),
(180,474,c),
(186,478,o),
(186,488,o),
(192,491,c),
(196,498,o),
(202,501,o),
(204,510,c),
(216,519,o),
(225,530,o),
(235,541,c),
(242,543,o),
(245,551,o),
(252,554,c),
(258,559,o),
(266,562,o),
(270,568,c),
(285,573,o),
(295,583,o),
(310,589,cs),
(322,594,o),
(335,596,o),
(345,601,c),
(358,598,o),
(368,606,o),
(382,608,cs),
(398,611,o),
(414,608,o),
(433,610,c),
(450,603,o),
(465,607,o),
(481,604,cs),
(492,603,o),
(503,595,o),
(517,597,c),
(522,593,o),
(529,588,o),
(537,588,c),
(551,580,o),
(562,570,o),
(579,565,c),
(588,554,o),
(600,546,o),
(609,536,c),
(616,533,o),
(616,524,o),
(623,519,c),
(626,513,o),
(635,511,o),
(642,510,c),
(660,511,o),
(669,525,o),
(679,534,cs),
(690,544,o),
(703,552,o),
(708,568,c),
(701,590,o),
(683,600,o),
(671,616,c),
(653,626,o),
(637,639,o),
(623,653,c),
(604,659,o),
(590,670,o),
(571,675,c),
(563,681,o),
(553,682,o),
(543,685,cs),
(535,688,o),
(526,693,o),
(517,696,c),
(477,704,o),
(434,710,o),
(383,708,cs),
(377,708,o),
(375,703,o),
(365,705,c),
(359,704,o),
(350,704,o),
(346,700,c),
(331,700,o),
(324,691,o),
(307,693,c),
(290,685,o),
(273,677,o),
(253,673,c),
(240,664,o),
(223,656,o),
(209,647,c),
(204,640,o),
(199,633,o),
(189,632,c),
(182,626,o),
(179,618,o),
(169,615,c),
(161,599,o),
(145,591,o),
(136,577,c),
(123,566,o),
(116,549,o),
(102,537,c),
(99,528,o),
(95,519,o),
(90,513,c),
(85,504,o),
(81,495,o),
(76,488,c),
(73,461,o),
(58,436,o),
(56,404,cs),
(55,386,o),
(55,366,o),
(55,348,cs),
(54,330,o),
(56,312,o),
(50,296,c),
(57,285,o),
(58,270,o),
(59,255,c),
(65,248,o),
(65,240,o),
(67,232,c),
(71,224,o),
(75,217,o),
(78,210,cs),
(79,207,o),
(79,202,o),
(81,198,cs),
(86,186,o),
(94,178,o),
(99,166,cs),
(102,160,o),
(103,153,o),
(106,145,c),
(113,137,o),
(123,129,o),
(130,120,cs),
(136,110,o),
(146,104,o),
(151,91,c),
(164,87,o),
(172,80,o),
(180,70,c),
(186,68,o),
(189,63,o),
(192,58,c),
(199,56,o),
(204,51,o),
(208,47,c),
(215,43,o),
(222,41,o),
(226,35,c),
(235,33,o),
(241,30,o),
(247,24,c),
(288,6,l)
);
}
);
width = 799;
}
);
unicode = 71;
},
{
glyphname = H;
kernLeft = H;
kernRight = H;
lastChange = "2023-09-12 03:35:45 +0000";
layers = (
{
anchors = (
{
name = bottom;
pos = (329,0);
},
{
name = center;
pos = (329,348);
},
{
name = top;
pos = (329,695);
},
{
name = topleft;
pos = (33,695);
}
);
layerId = "7C3BCDA4-8F92-4DF1-91BA-B714BE37B8B5";
shapes = (
{
closed = 1;
nodes = (
(584,260,o),
(583,276,o),
(586,290,cs),
(590,318,o),
(586,349,o),
(586,371,cs),
(586,375,o),
(588,381,o),
(588,386,cs),
(588,396,o),
(584,406,o),
(584,416,cs),
(584,434,o),
(585,453,o),
(586,464,cs),
(586,470,o),
(588,474,o),
(586,479,c),
(582,500,o),
(588,523,o),
(588,545,cs),
(588,564,o),
(583,583,o),
(586,603,c),
(574,631,o),
(598,675,o),
(578,696,c),
(550,700,o),
(523,702,o),
(500,693,c),
(497,686,o),
(494,681,o),
(494,673,cs),
(494,666,o),
(497,657,o),
(497,650,cs),
(497,637,o),
(495,624,o),
(496,612,cs),
(496,604,o),
(498,593,o),
(500,589,c),
(500,588,o),
(497,587,o),
(497,586,cs),
(497,582,o),
(500,578,o),
(500,572,cs),
(500,567,o),
(497,563,o),
(497,558,cs),
(500,458,ls),
(501,449,o),
(497,444,o),
(497,438,c),
(494,434,o),
(496,424,o),
(491,423,cs),
(457,417,o),
(412,424,o),
(373,421,c),
(366,422,o),
(361,425,o),
(350,424,c),
(341,425,o),
(333,423,o),
(326,421,c),
(300,424,o),
(271,423,o),
(240,423,cs),
(211,423,o),
(179,416,o),
(158,427,c),
(154,447,o),
(158,467,o),
(153,484,c),
(156,498,o),
(158,514,o),
(158,529,cs),
(158,555,o),
(157,584,o),
(157,608,cs),
(156,638,o),
(164,668,o),
(157,695,c),
(135,702,o),
(93,707,o),
(71,695,c),
(63,687,o),
(65,676,o),
(65,667,cs),
(65,624,o),
(66,590,o),
(66,551,cs),
(67,526,o),
(67,499,o),
(66,474,cs),
(66,448,o),
(67,424,o),
(68,400,cs),
(69,372,o),
(65,347,o),
(71,322,c),
(67,287,o),
(73,240,o),
(66,207,c),
(71,143,o),
(67,83,o),
(68,21,c),
(73,17,o),
(72,7,o),
(82,6,c),
(91,0,o),
(109,4,o),
(121,6,c),
(135,3,o),
(154,3,o),
(160,13,c),
(165,30,o),
(157,47,o),
(157,64,cs),
(154,116,o),
(158,155,o),
(155,204,c),
(156,210,o),
(158,215,o),
(158,224,cs),
(159,233,o),
(154,235,o),
(155,244,cs),
(157,290,ls),
(157,308,o),
(154,326,o),
(161,339,c),
(179,345,o),
(208,340,o),
(227,339,cs),
(230,339,o),
(233,340,o),
(237,340,cs),
(264,339,o),
(295,336,o),
(320,339,cs),
(330,340,o),
(339,346,o),
(349,346,cs),
(360,346,o),
(369,337,o),
(379,337,cs),
(387,337,o),
(394,340,o),
(401,340,c),
(422,335,o),
(443,340,o),
(465,340,c),
(469,341,o),
(476,339,o),
(476,339,c),
(482,338,o),
(491,343,o),
(496,337,c),
(502,323,o),
(497,308,o),
(497,294,cs),
(497,175,ls),
(497,164,o),
(500,154,o),
(500,143,cs),
(500,124,o),
(498,104,o),
(497,85,cs),
(497,66,o),
(498,48,o),
(496,30,cs),
(494,20,o),
(502,18,o),
(503,12,c),
(514,4,o),
(529,7,o),
(544,8,cs),
(559,8,o),
(575,4,o),
(586,12,c),
(590,17,o),
(590,24,o),
(590,33,cs),
(589,43,o),
(585,55,o),
(584,67,cs),
(582,101,o),
(588,135,o),
(588,169,cs),
(588,189,o),
(584,209,o),
(584,229,cs),
(584,242,ls)
);
}
);
width = 655;
}
);
unicode = 72;
},
{
glyphname = I;
kernLeft = H;
kernRight = H;
lastChange = "2023-09-12 03:35:45 +0000";
layers = (
{
anchors = (
{
name = bottom;
pos = (108,0);
},
{
name = ogonek;
pos = (87,10);
},
{
name = top;
pos = (108,695);
},
{
name = topleft;
pos = (21,695);
}
);
layerId = "7C3BCDA4-8F92-4DF1-91BA-B714BE37B8B5";
shapes = (
{
closed = 1;
nodes = (
(154,137,o),
(152,189,c),
(155,210,o),
(156,231,o),
(152,250,c),
(157,299,o),
(148,345,o),
(155,398,c),
(148,417,o),
(154,440,o),
(153,462,cs),
(153,482,o),
(150,500,o),
(155,517,c),
(153,524,o),
(152,532,o),
(149,540,c),
(157,577,o),
(152,624,o),
(155,659,cs),
(155,661,o),
(154,663,o),
(153,665,c),
(152,674,o),
(149,682,o),
(143,688,c),
(124,696,o),
(83,697,o),
(69,682,c),
(64,670,o),
(68,655,o),
(68,647,cs),
(67,637,o),
(68,623,o),
(66,616,cs),
(62,598,o),
(70,580,o),
(71,561,cs),
(71,558,o),
(69,552,o),
(69,548,cs),
(70,534,o),
(71,527,o),
(66,516,c),
(73,480,o),
(64,437,o),
(74,406,c),
(68,388,o),
(71,364,o),
(71,348,cs),
(71,331,o),
(69,316,o),
(73,301,c),
(73,293,o),
(67,292,o),
(68,284,c),
(73,270,o),
(69,254,o),
(69,239,c),
(70,232,o),
(74,229,o),
(74,222,c),
(59,192,o),
(81,151,o),
(66,122,c),
(71,112,o),
(72,99,o),
(74,87,c),
(73,63,o),
(64,34,o),
(79,18,c),
(90,16,o),
(108,15,o),
(117,20,c),
(129,20,o),
(142,21,o),
(149,29,c),
(154,81,o)
);
}
);
width = 220;
}
);
unicode = 73;
},
{
glyphname = J;
kernLeft = J;
kernRight = J;
lastChange = "2023-09-12 03:35:45 +0000";
layers = (
{
anchors = (
{
name = bottom;
pos = (157,0);
},
{
name = top;
pos = (188,695);
}
);
layerId = "7C3BCDA4-8F92-4DF1-91BA-B714BE37B8B5";
shapes = (
{
closed = 1;
nodes = (
(-21,-222,o),
(4,-232,c),
(18,-232,o),
(29,-234,o),
(40,-236,c),
(66,-229,o),
(91,-223,o),
(120,-217,c),
(128,-210,o),
(140,-207,o),
(149,-200,c),
(159,-195,o),
(166,-184,o),
(178,-180,c),
(183,-172,o),
(191,-164,o),
(199,-157,c),
(204,-148,o),
(209,-141,o),
(214,-134,c),
(216,-125,o),
(219,-118,o),
(225,-112,c),
(224,-102,o),
(228,-98,o),
(230,-90,c),
(230,-66,o),
(234,-40,o),
(234,-15,cs),
(234,10,o),
(231,34,o),
(236,56,c),
(231,85,o),
(232,127,o),
(236,155,c),
(232,187,o),
(233,220,o),
(233,250,cs),
(233,261,o),
(235,272,o),
(234,279,cs),
(232,317,o),
(234,360,o),
(234,401,cs),
(234,432,o),
(229,476,o),
(234,506,c),
(231,535,o),
(234,567,o),
(233,600,cs),
(232,616,o),
(232,634,o),
(233,650,cs),
(233,665,o),
(237,681,o),
(228,693,c),
(217,696,o),
(196,700,o),
(188,695,c),
(172,694,o),
(153,696,o),
(144,688,cs),
(139,683,o),
(137,666,o),
(141,656,c),
(144,591,o),
(141,518,o),
(144,451,c),
(140,442,o),
(142,428,o),
(139,418,c),
(141,404,o),
(144,392,o),
(144,377,cs),
(145,365,o),
(142,358,o),
(141,348,c),
(144,322,o),
(142,296,o),
(143,273,cs),
(144,252,ls),
(144,247,o),
(141,242,o),
(141,237,cs),
(141,234,o),
(143,233,o),
(143,230,cs),
(143,228,o),
(141,224,o),
(141,222,cs),
(141,208,o),
(144,194,o),
(144,180,cs),
(144,165,o),
(143,151,o),
(143,135,cs),
(143,119,o),
(144,102,o),
(144,85,cs),
(145,52,o),
(140,19,o),
(146,-11,c),
(143,-25,o),
(141,-43,o),
(139,-60,c),
(134,-73,o),
(128,-86,o),
(124,-101,c),
(108,-116,o),
(95,-132,o),
(72,-141,c),
(53,-144,o),
(33,-140,o),
(14,-142,c),
(8,-138,o),
(-2,-139,o),
(-7,-134,c),
(-15,-132,o),
(-25,-128,o),
(-33,-132,cs),
(-46,-137,o),
(-43,-155,o),
(-53,-162,cs),
(-58,-165,o),
(-60,-172,o),
(-61,-179,c),
(-67,-182,o),
(-69,-190,o),
(-70,-197,c),
(-57,-220,o)
);
}
);
width = 301;
}
);
unicode = 74;
},
{
glyphname = K;
kernLeft = H;
kernRight = K;
lastChange = "2023-09-12 03:35:45 +0000";
layers = (
{
anchors = (
{
name = bottom;
pos = (304,0);
},
{
name = top;
pos = (304,695);
}
);
layerId = "7C3BCDA4-8F92-4DF1-91BA-B714BE37B8B5";
shapes = (
{
closed = 1;
nodes = (
(565,34,o),
(563,35,c),
(554,45,o),
(546,52,o),
(541,65,c),
(527,74,o),
(518,90,o),
(505,100,c),
(500,111,o),
(493,118,o),
(485,125,c),
(479,134,o),
(474,143,o),
(465,151,c),
(462,161,o),
(453,167,o),
(445,175,cs),
(442,179,o),
(439,183,o),
(438,189,c),
(435,194,o),
(428,195,o),
(427,201,c),
(418,207,o),
(411,215,o),
(406,224,c),
(398,230,o),
(391,239,o),
(386,247,c),
(371,262,o),
(360,280,o),
(346,294,c),
(340,303,o),
(332,310,o),
(326,319,c),
(318,324,o),
(312,333,o),
(307,342,c),
(298,348,o),
(295,358,o),
(285,364,c),
(280,376,o),
(268,377,o),
(268,391,cs),
(268,401,o),
(279,409,o),
(287,418,cs),
(295,426,o),
(305,434,o),
(308,441,c),
(320,444,o),
(324,455,o),
(334,461,c),
(339,471,o),
(351,475,o),
(357,484,c),
(370,490,o),
(377,505,o),
(386,513,cs),
(388,515,o),
(390,516,o),
(392,517,c),
(396,522,o),
(400,526,o),
(404,529,cs),
(420,544,o),
(432,562,o),
(453,572,c),
(467,595,o),
(490,611,o),
(508,630,c),
(518,638,o),
(526,649,o),
(537,656,c),
(545,668,o),
(560,672,o),
(558,693,c),
(549,703,o),
(535,697,o),
(520,696,cs),
(501,695,o),
(480,697,o),
(461,696,c),
(440,686,o),
(426,667,o),
(409,652,c),
(407,646,o),
(401,643,o),
(398,639,c),
(393,636,o),
(389,631,o),
(386,626,c),
(377,619,o),
(366,614,o),
(363,601,c),
(356,599,o),
(351,595,o),
(346,591,c),
(340,579,o),
(328,575,o),
(322,563,c),
(315,563,o),
(313,558,o),
(307,557,c),
(302,550,o),
(299,542,o),
(292,537,cs),
(286,532,o),
(281,526,o),
(277,517,c),
(269,514,o),
(264,509,o),
(257,505,c),
(254,499,o),
(250,496,o),
(247,493,cs),
(244,489,o),
(242,482,o),
(236,481,c),
(230,473,o),
(220,467,o),
(215,458,cs),
(209,449,o),
(197,445,o),
(192,436,c),
(181,431,o),
(178,420,o),
(163,419,c),
(158,423,o),
(162,428,o),
(161,435,cs),
(160,454,o),
(159,477,o),
(160,498,cs),
(160,506,o),
(164,508,o),
(165,514,c),
(157,531,o),
(160,559,o),
(158,581,c),
(161,593,o),
(162,604,o),
(161,616,cs),
(161,626,o),
(160,641,o),
(160,653,cs),
(160,668,o),
(164,683,o),
(157,693,c),
(147,702,o),
(133,696,o),
(118,696,cs),
(103,696,o),
(86,700,o),
(73,696,c),
(64,687,o),
(63,660,o),
(67,643,c),
(72,568,o),
(64,477,o),
(70,395,cs),
(71,388,o),
(66,386,o),
(67,377,cs),
(71,358,o),
(69,339,o),
(68,320,cs),
(68,300,o),
(70,279,o),
(70,258,cs),
(70,233,o),
(68,209,o),
(68,186,cs),
(68,157,o),
(66,117,o),
(71,91,c),
(69,68,o),
(67,37,o),
(68,17,c),
(75,5,o),
(94,5,o),
(113,6,c),
(126,3,o),
(153,2,o),
(161,10,cs),
(170,19,o),
(167,41,o),
(163,53,c),
(162,80,o),
(161,105,o),
(158,130,c),
(161,141,o),
(160,155,o),
(163,165,c),
(157,187,o),
(161,214,o),
(160,241,cs),
(159,260,o),
(157,277,o),
(158,293,c),
(160,302,o),
(170,303,o),
(172,313,c),
(179,316,o),
(181,325,o),
(192,328,c),
(204,321,o),
(209,307,o),
(218,299,cs),
(228,289,o),
(236,279,o),
(245,269,c),
(249,266,o),
(252,263,o),
(255,259,cs),
(259,254,o),
(260,249,o),
(264,245,cs),
(269,239,o),
(280,232,o),
(282,222,c),
(288,218,o),
(290,212,o),
(294,206,c),
(311,194,o),
(322,177,o),
(334,160,cs),
(347,144,o),
(360,128,o),
(375,116,c),
(379,110,o),
(382,105,o),
(386,100,c),
(388,94,o),
(395,93,o),
(398,87,cs),
(405,77,o),
(412,69,o),
(419,58,c),
(427,50,o),
(435,40,o),
(444,33,c),
(452,23,o),
(458,13,o),
(471,8,c),
(484,5,o),
(501,7,o),
(517,8,cs),
(534,8,o),
(552,8,o),
(566,15,c),
(567,19,o),
(568,23,o),
(567,30,cs),
(567,32,o)
);
}
);
width = 597;
}
);
unicode = 75;
},
{
glyphname = L;
kernLeft = H;
kernRight = L;
lastChange = "2023-09-12 03:35:45 +0000";
layers = (
{
anchors = (
{
name = bottom;
pos = (211,0);
},
{
name = middle;
pos = (250,329);
},
{
name = top;
pos = (211,695);
},
{
name = topright;
pos = (400,695);
}
);
layerId = "7C3BCDA4-8F92-4DF1-91BA-B714BE37B8B5";
shapes = (
{
closed = 1;
nodes = (
(68,130,ls),
(68,128,o),
(69,127,o),
(70,125,c),
(70,90,ls),
(70,78,o),
(68,65,o),
(68,56,cs),
(68,52,o),
(70,49,o),
(70,45,cs),
(69,35,o),
(62,27,o),
(66,17,cs),
(77,-10,o),
(111,-3,o),
(144,-3,cs),
(178,-3,o),
(214,1,o),
(238,-5,c),
(265,1,o),
(302,-5,o),
(328,-5,cs),
(332,-5,o),
(335,-3,o),
(338,-3,cs),
(343,-4,o),
(344,-5,o),
(349,-5,cs),
(355,-4,o),
(362,-2,o),
(369,0,cs),
(375,1,o),
(381,3,o),
(387,6,c),
(390,15,o),
(398,19,o),
(396,33,c),
(396,70,ls),
(396,72,o),
(395,74,o),
(393,75,c),
(392,92,o),
(339,91,o),
(339,91,c),
(277,99,l),
(261,93,o),
(237,96,o),
(221,91,c),
(204,95,o),
(180,86,o),
(172,100,c),
(169,141,o),
(173,186,o),
(172,224,cs),
(171,250,o),
(171,280,o),
(173,308,c),
(169,338,o),
(167,375,o),
(173,404,c),
(168,411,o),
(172,420,o),
(172,429,cs),
(171,438,o),
(168,448,o),
(168,458,cs),
(168,477,o),
(169,496,o),
(169,516,cs),
(169,526,o),
(172,535,o),
(172,545,cs),
(172,554,o),
(169,563,o),
(169,572,cs),
(172,628,ls),
(173,647,o),
(174,666,o),
(168,683,c),
(164,685,o),
(164,689,o),
(161,691,c),
(155,697,o),
(145,697,o),
(137,702,c),
(114,701,o),
(89,702,o),
(73,695,c),
(65,679,o),
(66,658,o),
(66,636,cs),
(66,604,o),
(69,569,o),
(66,541,c),
(68,534,o),
(70,528,o),
(70,517,cs),
(68,427,o),
(69,331,o),
(68,245,c),
(66,245,o),
(69,237,o),
(70,235,c),
(70,218,l)
);
}
);
width = 426;
}
);
unicode = 76;
},
{
glyphname = Lslash;
kernLeft = H;
kernRight = L;
lastChange = "2023-09-12 03:35:45 +0000";
layers = (
{
layerId = "7C3BCDA4-8F92-4DF1-91BA-B714BE37B8B5";
shapes = (
{
closed = 1;
nodes = (
(108,332,o),
(89,330,o),
(72,318,c),
(59,299,o),
(67,275,o),
(82,257,c),
(93,254,o),
(108,261,o),
(120,259,c),
(126,263,o),
(132,267,o),
(139,271,c),
(139,245,l),
(137,245,o),
(140,237,o),
(142,235,c),
(142,218,l),
(139,130,ls),
(139,128,o),
(140,127,o),
(142,125,c),
(142,90,l),
(140,78,o),
(139,65,o),
(139,56,cs),
(139,52,o),
(142,49,o),
(142,45,c),
(140,35,o),
(134,27,o),
(137,17,c),
(149,-10,o),
(183,-3,o),
(216,-3,cs),
(250,-3,o),
(286,1,o),
(310,-5,c),
(337,1,o),
(374,-5,o),
(400,-5,cs),
(403,-5,o),
(407,-3,o),
(410,-3,cs),
(415,-4,o),
(416,-5,o),
(420,-5,cs),
(427,-4,o),
(434,-2,o),
(440,0,cs),
(447,1,o),
(453,3,o),
(458,6,c),
(462,15,o),
(470,19,o),
(468,33,c),
(468,70,ls),
(468,72,o),
(467,74,o),
(465,75,c),
(464,92,o),
(411,91,o),
(411,91,c),
(348,99,l),
(332,93,o),
(309,96,o),
(293,91,c),
(276,95,o),
(252,86,o),
(243,100,c),
(241,141,o),
(244,186,o),
(243,224,cs),
(242,249,o),
(242,279,o),
(244,307,c),
(258,312,ls),
(279,322,o),
(299,334,o),
(320,342,c),
(319,346,o),
(322,348,o),
(322,350,c),
(326,364,o),
(323,378,o),
(319,384,cs),
(312,392,o),
(305,401,o),
(293,402,c),
(274,396,o),
(260,386,o),
(241,383,c),
(244,404,l),
(240,411,o),
(243,420,o),
(243,429,cs),
(242,438,o),
(240,448,o),
(240,458,cs),
(240,477,o),
(241,496,o),
(241,516,cs),
(241,526,o),
(243,535,o),
(243,545,cs),
(243,554,o),
(241,563,o),
(241,572,cs),
(243,628,ls),
(243,647,o),
(245,666,o),
(240,683,c),
(236,685,o),
(236,689,o),
(233,691,cs),
(226,697,o),
(217,697,o),
(208,702,c),
(186,701,o),
(161,702,o),
(145,695,c),
(136,679,o),
(137,658,o),
(137,636,cs),
(137,604,o),
(140,569,o),
(137,541,c),
(139,534,o),
(142,528,o),
(142,517,cs),
(140,461,o),
(139,403,o),
(139,346,c),
(125,342,l)
);
}
);
width = 518;
}
);
unicode = 321;
},
{
glyphname = M;
kernLeft = M;
kernRight = M;
lastChange = "2023-09-12 03:35:45 +0000";
layers = (
{
anchors = (
{
name = bottom;
pos = (412,0);
},
{
name = top;
pos = (412,695);
}
);
layerId = "7C3BCDA4-8F92-4DF1-91BA-B714BE37B8B5";
shapes = (
{
closed = 1;
nodes = (
(674,615,o),
(670,635,o),
(665,653,c),
(666,673,o),
(661,694,o),
(646,693,cs),
(635,692,o),
(634,682,o),
(630,670,c),
(616,641,o),
(603,613,o),
(587,586,c),
(585,575,o),
(581,565,o),
(574,558,c),
(575,549,o),
(569,544,o),
(566,536,cs),
(557,513,ls),
(551,498,o),
(543,485,o),
(534,473,c),
(532,459,o),
(525,451,o),
(522,438,c),
(518,430,o),
(514,425,o),
(509,419,c),
(509,413,o),
(507,408,o),
(506,403,c),
(497,392,o),
(493,378,o),
(485,368,c),
(485,359,o),
(478,357,o),
(477,349,cs),
(477,340,o),
(471,337,o),
(467,331,c),
(466,321,o),
(461,317,o),
(461,307,c),
(448,294,o),
(443,271,o),
(436,255,c),
(434,253,o),
(432,252,o),
(432,250,c),
(426,236,o),
(425,224,o),
(418,212,c),
(414,199,o),
(412,187,o),
(401,182,c),
(390,191,o),
(390,212,o),
(383,224,c),
(377,239,o),
(372,253,o),
(366,267,c),
(365,277,o),
(357,279,o),
(357,288,c),
(354,296,o),
(351,303,o),
(347,308,c),
(341,323,o),
(335,337,o),
(327,349,c),
(328,356,o),
(325,358,o),
(325,364,c),
(320,370,o),
(318,378,o),
(314,386,c),
(309,404,o),
(301,417,o),
(294,429,cs),
(281,453,o),
(272,477,o),
(264,505,c),
(259,511,o),
(253,516,o),
(250,525,cs),
(245,536,o),
(242,549,o),
(236,560,cs),
(233,567,o),
(229,573,o),
(229,581,c),
(217,595,o),
(212,612,o),
(204,628,cs),
(198,644,o),
(188,660,o),
(185,679,c),
(178,688,o),
(174,705,o),
(160,700,cs),
(150,696,o),
(151,684,o),
(148,675,cs),
(145,665,o),
(144,654,o),
(140,647,c),
(140,607,o),
(126,583,o),
(122,548,c),
(115,515,o),
(108,483,o),
(98,455,c),
(98,435,l),
(92,423,o),
(92,408,o),
(90,395,c),
(79,357,l),
(78,331,o),
(72,310,o),
(67,287,c),
(67,272,l),
(52,233,o),
(48,183,o),
(36,140,c),
(41,120,o),
(30,100,o),
(36,78,c),
(36,69,o),
(25,70,o),
(26,60,c),
(31,45,o),
(20,32,o),
(27,18,c),
(43,10,o),
(75,4,o),
(96,12,c),
(103,19,o),
(104,32,o),
(110,40,c),
(110,46,o),
(107,48,o),
(108,55,c),
(123,109,o),
(129,173,o),
(145,227,c),
(144,250,o),
(149,268,o),
(157,284,c),
(157,302,l),
(171,328,o),
(165,372,o),
(180,398,c),
(179,408,o),
(181,419,o),
(183,429,cs),
(185,439,o),
(184,453,o),
(193,456,c),
(204,436,o),
(212,411,o),
(221,389,c),
(228,379,o),
(230,366,o),
(236,356,cs),
(243,345,o),
(246,333,o),
(252,322,c),
(260,297,o),
(273,279,o),
(282,255,c),
(294,234,o),
(303,212,o),
(310,187,c),
(315,181,o),
(319,175,o),
(322,169,cs),
(325,161,o),
(327,152,o),
(331,146,cs),
(334,141,o),
(335,138,o),
(337,131,cs),
(340,123,o),
(345,117,o),
(347,108,cs),
(354,87,o),
(366,70,o),
(371,45,c),
(374,38,o),
(379,32,o),
(383,23,cs),
(386,16,o),
(388,6,o),
(398,6,c),
(412,8,o),
(418,18,o),
(421,32,c),
(426,41,o),
(431,52,o),
(436,64,c),
(442,72,o),
(443,87,o),
(450,95,c),
(456,106,o),
(459,118,o),
(467,125,c),
(467,133,o),
(471,138,o),
(473,145,c),
(490,174,o),
(501,210,o),
(519,239,cs),
(535,270,o),
(547,305,o),
(564,334,c),
(565,343,o),
(569,349,o),
(571,357,c),
(579,367,o),
(584,377,o),
(587,391,c),
(593,393,o),
(593,402,o),
(595,409,c),
(598,413,o),
(602,418,o),
(604,424,cs),
(608,434,o),
(607,448,o),
(618,451,c),
(624,428,o),
(625,401,o),
(633,379,c),
(633,374,o),
(630,372,o),
(631,366,c),
(641,343,o),
(641,311,o),
(650,287,c),
(651,280,o),
(646,279,o),
(648,272,c),
(652,266,o),
(653,259,o),
(656,252,c),
(655,239,o),
(658,230,o),
(661,220,c),
(661,195,o),
(669,178,o),
(673,157,cs),
(676,136,o),
(687,120,o),
(685,93,c),
(690,81,o),
(687,59,o),
(693,48,c),
(692,29,o),
(698,17,o),
(708,8,c),
(729,3,o),
(764,4,o),
(783,12,c),
(793,25,o),
(784,37,o),
(781,52,cs),
(779,60,o),
(779,70,o),
(778,78,cs),
(777,87,o),
(775,95,o),
(773,103,cs),
(772,112,o),
(772,121,o),
(768,128,c),
(762,162,o),
(750,190,o),
(751,230,c),
(743,250,o),
(744,279,o),
(734,297,c),
(736,312,o),
(730,318,o),
(731,332,c),
(725,340,o),
(728,356,o),
(722,364,c),
(721,377,o),
(716,389,o),
(713,399,c),
(712,430,o),
(702,451,o),
(696,478,cs),
(695,484,o),
(698,487,o),
(697,493,c),
(692,506,o),
(692,519,o),
(690,533,cs),
(687,546,o),
(683,561,o),
(683,577,c),
(676,593,l)
);
}
);
width = 813;
}
);
unicode = 77;
},
{
glyphname = N;
kernLeft = H;
kernRight = H;
lastChange = "2023-09-12 03:35:45 +0000";
layers = (
{
anchors = (
{
name = bottom;
pos = (379,0);
},
{
name = top;
pos = (399,695);
}
);
layerId = "7C3BCDA4-8F92-4DF1-91BA-B714BE37B8B5";
shapes = (
{
closed = 1;
nodes = (
(151,637,o),
(137,652,o),
(122,667,c),
(105,678,o),
(98,700,o),
(70,702,c),
(62,692,o),
(66,666,o),
(69,653,c),
(69,634,o),
(70,623,o),
(65,610,c),
(72,598,o),
(67,585,o),
(67,572,cs),
(67,567,o),
(68,561,o),
(69,554,c),
(69,494,ls),
(68,474,o),
(74,454,o),
(70,435,c),
(73,419,o),
(77,404,o),
(75,387,cs),
(74,376,o),
(70,366,o),
(70,354,cs),
(70,343,o),
(72,333,o),
(72,322,cs),
(71,310,o),
(68,297,o),
(72,284,c),
(67,265,o),
(71,248,o),
(69,226,c),
(78,204,o),
(65,167,o),
(75,151,c),
(69,133,o),
(68,107,o),
(72,88,c),
(69,66,o),
(70,36,o),
(75,17,c),
(90,4,o),
(139,4,o),
(154,17,c),
(157,25,o),
(158,38,o),
(159,50,cs),
(159,58,o),
(154,61,o),
(154,70,c),
(150,96,o),
(154,129,o),
(154,152,cs),
(154,156,o),
(152,159,o),
(152,163,c),
(156,189,l),
(156,200,o),
(154,213,o),
(154,226,cs),
(154,233,o),
(157,242,o),
(157,250,cs),
(159,279,o),
(152,307,o),
(157,337,c),
(152,355,o),
(154,386,o),
(157,404,c),
(154,419,o),
(157,440,o),
(154,455,c),
(157,459,o),
(159,465,o),
(160,471,cs),
(161,475,o),
(166,474,o),
(166,478,c),
(170,478,o),
(167,485,o),
(172,484,cs),
(185,481,o),
(189,469,o),
(201,464,c),
(207,454,o),
(219,448,o),
(227,441,c),
(230,434,o),
(237,430,o),
(241,424,c),
(243,417,o),
(249,413,o),
(256,409,c),
(264,398,o),
(277,390,o),
(284,377,c),
(306,358,o),
(328,340,o),
(346,317,c),
(356,313,o),
(362,303,o),
(369,296,cs),
(377,288,o),
(386,282,o),
(392,273,c),
(398,268,o),
(400,261,o),
(408,259,c),
(416,247,o),
(427,239,o),
(438,229,cs),
(449,218,o),
(459,209,o),
(471,200,c),
(475,191,o),
(484,187,o),
(490,178,cs),
(496,170,o),
(506,163,o),
(513,157,cs),
(522,149,o),
(527,141,o),
(534,134,cs),
(541,128,o),
(547,125,o),
(554,120,c),
(560,107,o),
(572,98,o),
(582,88,cs),
(591,77,o),
(601,68,o),
(610,56,c),
(633,40,o),
(644,10,o),
(675,1,c),
(688,8,o),
(691,27,o),
(690,48,c),
(681,76,o),
(688,122,o),
(684,155,cs),
(684,161,o),
(685,165,o),
(687,171,c),
(682,192,o),
(685,215,o),
(685,239,cs),
(685,249,o),
(682,259,o),
(685,269,c),
(683,277,o),
(682,284,o),
(682,293,cs),
(682,299,o),
(685,305,o),
(685,313,c),
(686,318,o),
(684,323,o),
(684,329,cs),
(684,335,o),
(685,341,o),
(685,348,cs),
(685,372,o),
(682,395,o),
(684,421,cs),
(684,428,o),
(687,437,o),
(687,444,cs),
(687,459,o),
(683,475,o),
(684,491,cs),
(684,496,o),
(685,502,o),
(685,508,cs),
(685,516,o),
(682,526,o),
(682,534,cs),
(682,542,o),
(684,548,o),
(684,554,cs),
(684,575,o),
(681,596,o),
(687,615,c),
(679,632,o),
(688,667,o),
(681,683,c),
(675,689,o),
(666,689,o),
(656,690,c),
(645,689,o),
(638,692,o),
(627,691,c),
(620,688,o),
(609,689,o),
(603,685,c),
(597,673,o),
(596,654,o),
(598,643,c),
(599,641,o),
(597,641,o),
(597,641,c),
(596,632,o),
(599,629,o),
(600,621,cs),
(602,606,o),
(599,594,o),
(598,580,cs),
(597,571,o),
(602,569,o),
(601,561,c),
(602,540,o),
(598,517,o),
(601,494,cs),
(602,488,o),
(598,485,o),
(598,479,c),
(601,472,o),
(600,461,o),
(601,453,c),
(594,429,o),
(604,399,o),
(598,372,c),
(598,365,o),
(602,361,o),
(601,354,cs),
(601,345,o),
(602,334,o),
(601,324,cs),
(601,314,o),
(599,302,o),
(601,293,c),
(596,279,o),
(601,254,o),
(595,242,c),
(601,233,o),
(579,223,o),
(572,229,c),
(561,233,o),
(557,244,o),
(546,249,c),
(539,257,o),
(529,262,o),
(522,269,c),
(516,273,o),
(513,280,o),
(508,285,cs),
(493,302,o),
(476,314,o),
(461,329,c),
(454,341,o),
(440,348,o),
(432,359,cs),
(422,370,o),
(410,379,o),
(398,387,c),
(384,413,o),
(359,428,o),
(342,451,c),
(336,455,o),
(329,458,o),
(322,461,c),
(319,475,o),
(307,480,o),
(299,491,c),
(291,499,o),
(280,508,o),
(271,516,cs),
(254,534,o),
(237,554,o),
(215,569,c),
(209,587,o),
(193,596,o),
(183,610,c),
(163,621,l)
);
}
);
width = 755;
}
);
unicode = 78;
},
{
glyphname = Nhookleft;
kernLeft = Nhookleft;
kernRight = Nhookleft;
lastChange = "2023-09-12 03:35:45 +0000";
layers = (
{
layerId = "7C3BCDA4-8F92-4DF1-91BA-B714BE37B8B5";
shapes = (
{
ref = N;
},
{
closed = 1;
nodes = (
(72,195,o),
(71,189,o),
(72,185,c),
(73,157,l),
(72,150,ls),
(71,145,o),
(72,139,o),
(73,128,cs),
(74,121,l),
(74,73,l),
(73,61,ls),
(71,50,o),
(71,44,o),
(72,40,c),
(73,12,l),
(72,5,ls),
(71,0,o),
(71,-4,o),
(72,-8,c),
(73,-36,l),
(72,-43,ls),
(71,-48,o),
(71,-52,o),
(72,-57,c),
(73,-84,l),
(72,-90,ls),
(71,-94,o),
(71,-98,o),
(72,-105,cs),
(73,-132,l),
(71,-144,l),
(70,-155,l),
(52,-168,l),
(23,-160,l),
(4,-148,l),
(-7,-138,l),
(-9,-136,ls),
(-19,-127,o),
(-28,-127,o),
(-37,-136,cs),
(-50,-151,l),
(-55,-155,ls),
(-63,-162,o),
(-67,-167,o),
(-71,-172,cs),
(-74,-177,o),
(-74,-181,o),
(-70,-185,cs),
(-66,-190,o),
(-62,-194,o),
(-53,-201,cs),
(-48,-205,l),
(-39,-213,ls),
(-30,-220,o),
(-23,-225,o),
(-13,-229,cs),
(2,-235,l),
(10,-238,ls),
(21,-242,o),
(29,-244,o),
(41,-243,cs),
(60,-241,ls),
(72,-239,o),
(79,-237,o),
(89,-233,cs),
(98,-229,o),
(104,-225,o),
(111,-219,cs),
(118,-214,o),
(123,-209,o),
(129,-202,cs),
(134,-195,o),
(137,-190,o),
(141,-183,cs),
(145,-176,o),
(147,-169,o),
(148,-157,cs),
(150,-144,l),
(150,-123,l),
(151,-109,l),
(152,-97,l),
(152,-60,l),
(153,-49,l),
(153,-36,l),
(154,-11,l),
(155,1,l),
(155,14,l),
(156,26,l),
(156,193,ls),
(156,209,o),
(147,218,o),
(131,218,cs),
(115,218,l),
(107,217,l),
(77,218,l),
(76,218,ls),
(75,218,o),
(73,213,o),
(73,205,cs)
);
}
);
width = 755;
}
);
unicode = 413;
},
{
glyphname = Eng;
kernLeft = H;
kernRight = J;
lastChange = "2023-09-12 03:35:45 +0000";
layers = (
{
layerId = "7C3BCDA4-8F92-4DF1-91BA-B714BE37B8B5";
shapes = (
{
ref = N;
},
{
closed = 1;
nodes = (
(607,189,l),
(607,176,l),
(604,162,l),
(605,163,l),
(605,156,l),
(606,157,l),
(606,126,l),
(605,122,ls),
(604,118,o),
(604,116,o),
(604,114,cs),
(607,94,l),
(608,71,l),
(607,46,l),
(606,34,l),
(604,19,l),
(602,19,o),
(603,11,o),
(607,-1,c),
(606,-13,ls),
(605,-22,o),
(605,-29,o),
(606,-40,cs),
(607,-48,l),
(606,-61,ls),
(605,-71,o),
(604,-79,o),
(606,-90,cs),
(607,-96,l),
(604,-123,l),
(601,-126,l),
(605,-128,l),
(604,-128,ls),
(603,-128,o),
(603,-137,o),
(603,-153,cs),
(603,-155,l),
(585,-168,ls),
(584,-169,o),
(581,-166,o),
(568,-163,cs),
(556,-160,l),
(556,-159,l),
(556,-159,o),
(553,-156,o),
(543,-151,cs),
(537,-148,l),
(526,-139,l),
(526,-138,o),
(524,-136,o),
(518,-130,c),
(512,-126,o),
(503,-129,o),
(493,-140,cs),
(483,-151,l),
(467,-168,l),
(465,-168,o),
(463,-170,o),
(461,-173,cs),
(458,-177,o),
(469,-193,o),
(471,-195,c),
(470,-195,o),
(478,-201,o),
(485,-205,c),
(490,-211,ls),
(493,-215,o),
(498,-219,o),
(509,-223,c),
(516,-227,l),
(520,-231,o),
(525,-233,o),
(535,-235,c),
(535,-236,ls),
(535,-238,o),
(539,-239,o),
(547,-241,cs),
(555,-243,o),
(562,-243,o),
(574,-242,cs),
(594,-240,ls),
(606,-239,o),
(615,-238,o),
(624,-233,cs),
(635,-227,l),
(643,-222,l),
(656,-212,l),
(657,-212,o),
(659,-209,o),
(666,-199,cs),
(670,-193,l),
(677,-180,l),
(680,-172,o),
(683,-165,o),
(683,-155,cs),
(683,-144,l),
(684,-120,l),
(683,-96,l),
(683,-49,l),
(684,-25,l),
(689,-1,l),
(690,0,o),
(689,1,o),
(688,4,c),
(688,34,l),
(683,46,l),
(684,71,l),
(683,94,l),
(684,119,l),
(683,141,l),
(683,189,l),
(684,189,l),
(684,203,l),
(684,212,l),
(685,213,l),
(684,225,ls),
(683,232,o),
(675,236,o),
(659,236,cs),
(645,236,l),
(645,233,l),
(642,234,ls),
(640,235,o),
(638,234,o),
(636,232,c),
(608,236,l),
(607,235,o),
(607,227,o),
(607,212,cs)
);
}
);
width = 755;
}
);
unicode = 330;
},
{
glyphname = O;
kernLeft = O;
kernRight = O;
lastChange = "2023-09-12 03:35:45 +0000";
layers = (
{
anchors = (
{
name = bottom;
pos = (414,0);
},
{
name = center;
pos = (414,348);
},
{
name = ogonek;
pos = (453,10);
},
{
name = top;
pos = (414,695);
},
{
name = topleft;
pos = (17,695);
},
{
name = topright;
pos = (811,695);
}
);
layerId = "7C3BCDA4-8F92-4DF1-91BA-B714BE37B8B5";
shapes = (
{
closed = 1;
nodes = (
(102,534,o),
(103,531,o),
(102,529,cs),
(101,528,o),
(98,527,o),
(97,525,cs),
(93,519,ls),
(81,504,o),
(74,483,o),
(67,462,c),
(64,448,o),
(62,435,o),
(56,423,c),
(53,396,o),
(52,369,o),
(52,340,c),
(51,331,o),
(50,321,o),
(50,313,cs),
(51,296,o),
(62,282,o),
(58,265,c),
(65,251,o),
(70,236,o),
(73,218,c),
(96,178,o),
(120,139,o),
(152,108,c),
(161,96,o),
(176,90,o),
(184,76,c),
(197,70,o),
(209,60,o),
(222,53,cs),
(237,45,o),
(252,34,o),
(269,29,cs),
(272,28,o),
(274,25,o),
(277,24,cs),
(283,23,o),
(290,22,o),
(296,20,c),
(297,17,l),
(299,16,o),
(301,17,o),
(302,17,c),
(311,13,o),
(319,11,o),
(328,6,c),
(343,8,o),
(353,4,o),
(364,1,c),
(381,2,o),
(395,1,o),
(407,-2,c),
(440,1,o),
(477,-1,o),
(505,8,cs),
(520,13,o),
(537,16,o),
(549,23,c),
(564,28,o),
(579,33,o),
(590,41,c),
(605,46,o),
(614,57,o),
(630,61,c),
(664,87,l),
(671,99,o),
(687,104,o),
(693,117,c),
(714,136,o),
(728,161,o),
(745,183,c),
(750,202,o),
(764,217,o),
(770,237,cs),
(773,245,o),
(772,253,o),
(774,262,c),
(774,264,o),
(776,266,o),
(777,269,cs),
(779,280,o),
(780,290,o),
(784,302,c),
(782,330,o),
(785,355,o),
(786,384,cs),
(786,385,o),
(785,386,o),
(784,386,c),
(782,407,o),
(774,423,o),
(775,447,c),
(769,458,o),
(767,472,o),
(760,481,c),
(758,495,o),
(747,501,o),
(746,516,c),
(735,530,o),
(726,548,o),
(714,561,c),
(703,577,o),
(689,590,o),
(679,606,c),
(667,612,o),
(656,618,o),
(648,626,c),
(637,632,o),
(628,639,o),
(620,648,c),
(592,655,o),
(579,678,o),
(543,678,c),
(535,684,o),
(528,688,o),
(517,691,cs),
(511,693,o),
(502,695,o),
(493,696,c),
(485,699,o),
(476,701,o),
(468,702,cs),
(463,702,o),
(458,701,o),
(453,702,cs),
(449,702,o),
(445,705,o),
(441,705,cs),
(418,707,o),
(401,705,o),
(381,703,cs),
(369,703,o),
(357,702,o),
(348,700,cs),
(344,699,o),
(339,695,o),
(336,695,c),
(330,693,o),
(325,694,o),
(319,693,cs),
(314,692,o),
(311,689,o),
(305,688,cs),
(300,687,o),
(296,687,o),
(291,685,c),
(277,676,o),
(259,673,o),
(247,664,c),
(231,657,o),
(223,644,o),
(204,641,c),
(188,628,o),
(173,614,o),
(154,603,c),
(148,596,o),
(143,587,o),
(137,580,cs),
(131,572,o),
(122,567,o),
(117,560,cs),
(114,554,o),
(111,546,o),
(108,541,c),
(103,536,l)
);
},
{
closed = 1;
nodes = (
(702,381,o),
(702,381,o),
(702,379,c),
(700,372,o),
(702,365,o),
(702,357,cs),
(701,346,o),
(698,333,o),
(699,319,c),
(693,303,o),
(690,287,o),
(690,267,c),
(684,261,o),
(682,249,o),
(675,244,c),
(670,236,o),
(667,227,o),
(664,218,c),
(653,209,o),
(644,198,o),
(638,183,c),
(630,178,o),
(623,171,o),
(618,163,c),
(609,157,o),
(598,152,o),
(592,142,c),
(580,137,o),
(570,130,o),
(561,123,c),
(544,121,o),
(531,113,o),
(522,103,c),
(505,105,o),
(494,101,o),
(485,95,c),
(462,95,o),
(440,86,o),
(418,91,c),
(399,85,o),
(372,90,o),
(356,96,c),
(337,96,l),
(315,105,o),
(298,117,o),
(274,123,c),
(265,129,o),
(258,137,o),
(247,140,c),
(242,149,o),
(233,155,o),
(226,162,cs),
(214,172,o),
(201,184,o),
(189,195,c),
(187,204,o),
(181,207,o),
(177,212,c),
(174,228,o),
(164,239,o),
(160,253,cs),
(155,267,o),
(150,282,o),
(143,296,c),
(140,331,ls),
(140,340,o),
(138,352,o),
(139,360,cs),
(139,370,o),
(142,379,o),
(143,389,cs),
(145,399,o),
(148,408,o),
(149,418,c),
(155,425,o),
(156,438,o),
(160,447,c),
(168,457,o),
(167,467,o),
(172,478,cs),
(178,490,o),
(191,497,o),
(194,511,c),
(207,522,o),
(217,534,o),
(227,548,c),
(232,548,o),
(236,553,o),
(239,557,c),
(243,560,o),
(254,563,o),
(259,568,c),
(270,572,o),
(280,584,o),
(293,589,c),
(303,595,o),
(319,597,o),
(334,601,cs),
(354,608,ls),
(361,610,o),
(368,613,o),
(374,613,c),
(385,615,o),
(398,614,o),
(409,615,cs),
(422,616,o),
(434,617,o),
(446,616,cs),
(457,616,o),
(468,612,o),
(479,612,c),
(489,608,o),
(498,605,o),
(510,603,c),
(528,597,o),
(542,586,o),
(561,581,c),
(567,573,o),
(578,570,o),
(584,563,c),
(612,548,o),
(628,524,o),
(650,505,c),
(655,493,o),
(662,482,o),
(670,474,c),
(673,462,o),
(681,453,o),
(687,442,c),
(686,441,o),
(687,440,o),
(688,439,c),
(689,418,o),
(698,404,o),
(700,384,cs),
(700,381,l)
);
}
);
width = 836;
}
);
unicode = 79;
},
{
glyphname = Odieresis;
kernLeft = O;
kernRight = O;
lastChange = "2023-09-12 03:35:45 +0000";
layers = (
{
layerId = "7C3BCDA4-8F92-4DF1-91BA-B714BE37B8B5";
shapes = (
{
closed = 1;
nodes = (
(719,616,o),
(737,601,o),
(743,598,cs),
(749,594,o),
(764,587,o),
(772,587,c),
(797,593,o),
(818,601,o),
(829,621,c),
(829,642,o),
(825,670,o),
(818,681,cs),
(813,689,o),
(808,694,o),
(800,700,cs),
(794,704,o),
(788,708,o),
(780,709,c),
(768,707,o),
(758,704,o),
(745,703,c),
(725,691,o),
(712,673,o),
(708,646,c),
(710,642,o),
(710,636,o),
(711,633,cs)
);
},
{
closed = 1;
nodes = (
(163,689,o),
(139,707,o),
(96,706,c),
(83,701,o),
(73,693,o),
(64,685,c),
(61,678,o),
(60,672,o),
(57,666,cs),
(52,652,o),
(48,641,o),
(52,622,c),
(60,615,o),
(64,605,o),
(70,598,c),
(83,596,o),
(89,589,o),
(101,587,c),
(109,588,o),
(119,590,o),
(127,587,c),
(134,594,o),
(143,597,o),
(151,601,c),
(154,608,o),
(161,612,o),
(164,621,cs),
(167,629,o),
(166,638,o),
(168,648,cs),
(168,649,o),
(167,650,o),
(166,649,c)
);
},
{
pos = (21,0);
ref = O;
}
);
width = 879;
},
{
associatedMasterId = "7C3BCDA4-8F92-4DF1-91BA-B714BE37B8B5";
layerId = "5E310621-67A7-48B8-A502-303E2CFDA3F9";
name = "5 sept. 23 à 09:45";
shapes = (
{
ref = O;
},
{
pos = (101,165);
ref = dieresiscomb;
}
);
width = 834;
}
);
unicode = 214;
},
{
glyphname = Oslash;
kernLeft = O;
kernRight = O;
lastChange = "2023-09-12 03:35:45 +0000";
layers = (
{
anchors = (
{
name = bottom;
pos = (414,0);
},
{
name = top;
pos = (414,695);
}
);
layerId = "7C3BCDA4-8F92-4DF1-91BA-B714BE37B8B5";
shapes = (
{
closed = 1;
nodes = (
(543,678,l),
(535,684,o),
(528,688,o),
(517,691,cs),
(511,693,o),
(502,695,o),
(493,696,c),
(485,699,o),
(476,701,o),
(468,702,cs),
(463,702,o),
(458,701,o),
(453,702,cs),
(449,702,o),
(445,705,o),
(441,705,cs),
(418,707,o),
(401,705,o),
(381,703,cs),
(369,703,o),
(357,702,o),
(348,700,cs),
(344,699,o),
(339,695,o),
(336,695,c),
(330,693,o),
(325,694,o),
(319,693,cs),
(314,692,o),
(311,689,o),
(305,688,cs),
(300,687,o),
(296,687,o),
(291,685,c),
(277,676,o),
(259,673,o),
(247,664,c),
(231,657,o),
(223,644,o),
(204,641,c),
(188,628,o),
(173,614,o),
(154,603,c),
(148,596,o),
(143,587,o),
(137,580,cs),
(131,572,o),
(122,567,o),
(117,560,cs),
(114,554,o),
(111,546,o),
(108,541,c),
(103,536,l),
(102,534,o),
(103,531,o),
(102,529,cs),
(101,528,o),
(98,527,o),
(97,525,cs),
(93,519,ls),
(81,504,o),
(74,483,o),
(67,462,c),
(64,448,o),
(62,435,o),
(56,423,c),
(53,396,o),
(52,369,o),
(52,340,c),
(51,331,o),
(50,321,o),
(50,313,cs),
(51,296,o),
(62,282,o),
(58,265,c),
(65,251,o),
(70,236,o),
(73,218,c),
(96,178,o),
(120,139,o),
(152,108,c),
(161,96,o),
(176,90,o),
(184,76,c),
(197,70,o),
(209,60,o),
(222,53,cs),
(236,45,o),
(249,35,o),
(265,30,c),
(262,23,o),
(260,18,o),
(259,14,c),
(251,2,o),
(245,-11,o),
(242,-22,c),
(237,-31,o),
(230,-38,o),
(226,-48,c),
(227,-64,o),
(247,-67,o),
(268,-66,cs),
(291,-65,o),
(292,-66,o),
(304,-49,c),
(313,-42,o),
(310,-34,o),
(313,-28,c),
(318,-22,o),
(316,-13,o),
(319,-5,cs),
(325,7,l),
(326,7,o),
(327,6,o),
(328,6,cs),
(343,8,o),
(353,4,o),
(364,1,c),
(381,2,o),
(395,1,o),
(407,-2,c),
(440,1,o),
(477,-1,o),
(505,8,cs),
(520,13,o),
(537,16,o),
(549,23,c),
(564,28,o),
(579,33,o),
(590,41,c),
(605,46,o),
(614,57,o),
(630,61,c),
(664,87,l),
(671,99,o),
(687,104,o),
(693,117,c),
(714,136,o),
(728,161,o),
(745,183,c),
(750,202,o),
(764,217,o),
(770,237,cs),
(773,245,o),
(772,253,o),
(774,262,c),
(774,264,o),
(776,266,o),
(777,269,cs),
(779,280,o),
(780,290,o),
(784,302,c),
(782,330,o),
(785,355,o),
(786,384,cs),
(786,385,o),
(785,386,o),
(784,386,c),
(782,407,o),
(774,423,o),
(775,447,c),
(769,458,o),
(767,472,o),
(760,481,c),
(758,495,o),
(747,501,o),
(746,516,c),
(735,530,o),
(726,548,o),
(714,561,c),
(703,577,o),
(689,590,o),
(679,606,c),
(667,612,o),
(656,618,o),
(648,626,c),
(637,632,o),
(628,639,o),
(620,648,c),
(615,649,o),
(610,651,o),
(605,653,c),
(611,668,o),
(618,682,o),
(626,701,c),
(636,714,o),
(647,737,o),
(640,745,c),
(631,750,o),
(615,747,o),
(601,747,cs),
(584,747,o),
(594,750,o),
(575,744,c),
(561,729,o),
(560,712,o),
(554,696,cs),
(547,678,l)
);
},
{
closed = 1;
nodes = (
(140,340,o),
(138,352,o),
(139,360,cs),
(139,370,o),
(142,379,o),
(143,389,cs),
(145,399,o),
(148,408,o),
(149,418,c),
(155,425,o),
(156,438,o),
(160,447,c),
(168,457,o),
(167,467,o),
(172,478,cs),
(178,490,o),
(191,497,o),
(194,511,c),
(207,522,o),
(217,534,o),
(227,548,c),
(232,548,o),
(236,553,o),
(239,557,c),
(243,560,o),
(254,563,o),
(259,568,c),
(270,572,o),
(280,584,o),
(293,589,c),
(303,595,o),
(319,597,o),
(334,601,cs),
(354,608,ls),
(361,610,o),
(368,613,o),
(374,613,c),
(385,615,o),
(398,614,o),
(409,615,cs),
(422,616,o),
(434,617,o),
(446,616,cs),
(457,616,o),
(468,612,o),
(479,612,c),
(489,608,o),
(498,605,o),
(510,603,c),
(512,602,o),
(514,601,o),
(515,601,c),
(508,582,o),
(499,564,o),
(493,550,cs),
(487,534,ls),
(480,520,o),
(476,509,o),
(470,496,cs),
(463,482,o),
(432,401,o),
(420,390,c),
(417,374,ls),
(413,356,o),
(399,339,o),
(397,322,c),
(384,305,o),
(382,287,o),
(371,270,c),
(361,231,o),
(333,180,o),
(316,142,cs),
(304,111,l),
(295,116,o),
(284,120,o),
(274,123,c),
(265,129,o),
(258,137,o),
(247,140,c),
(242,149,o),
(233,155,o),
(226,162,cs),
(214,172,o),
(201,184,o),
(189,195,c),
(187,204,o),
(181,207,o),
(177,212,c),
(174,228,o),
(164,239,o),
(160,253,cs),
(155,267,o),
(150,282,o),
(143,296,c),
(140,331,ls)
);
},
{
closed = 1;
nodes = (
(702,381,o),
(702,381,o),
(702,379,c),
(700,372,o),
(702,365,o),
(702,357,cs),
(701,346,o),
(698,333,o),
(699,319,c),
(693,303,o),
(690,287,o),
(690,267,c),
(684,261,o),
(682,249,o),
(675,244,c),
(670,236,o),
(667,227,o),
(664,218,c),
(653,209,o),
(644,198,o),
(638,183,c),
(630,178,o),
(623,171,o),
(618,163,c),
(609,157,o),
(598,152,o),
(592,142,c),
(580,137,o),
(570,130,o),
(561,123,c),
(544,121,o),
(531,113,o),
(522,103,c),
(505,105,o),
(494,101,o),
(485,95,c),
(462,95,o),
(440,86,o),
(418,91,c),
(401,86,o),
(379,88,o),
(363,93,c),
(366,101,o),
(369,108,o),
(373,116,cs),
(374,118,o),
(372,118,o),
(373,120,cs),
(380,131,o),
(389,145,o),
(390,157,c),
(401,178,o),
(409,201,o),
(420,226,cs),
(428,249,l),
(432,255,o),
(438,264,o),
(441,270,cs),
(451,288,o),
(455,305,o),
(461,320,cs),
(469,339,o),
(474,356,o),
(486,373,c),
(486,373,o),
(517,441,o),
(515,444,c),
(512,446,o),
(521,455,o),
(521,457,c),
(533,496,o),
(551,533,o),
(569,573,c),
(575,570,o),
(580,567,o),
(584,563,c),
(612,548,o),
(628,524,o),
(650,505,c),
(655,493,o),
(662,482,o),
(670,474,c),
(673,462,o),
(681,453,o),
(687,442,c),
(686,441,o),
(687,440,o),
(688,439,c),
(689,418,o),
(698,404,o),
(700,384,cs),
(700,381,l)
);
}
);
width = 836;
}
);
unicode = 216;
},
{
glyphname = OE;
kernLeft = O;
kernRight = E;
lastChange = "2023-09-12 03:35:45 +0000";
layers = (
{
layerId = "7C3BCDA4-8F92-4DF1-91BA-B714BE37B8B5";
shapes = (
{
closed = 1;
nodes = (
(787,214,o),
(790,251,o),
(789,281,c),
(784,304,l),
(784,311,o),
(787,318,o),
(787,324,cs),
(787,326,o),
(785,329,o),
(787,333,cs),
(788,335,o),
(787,339,o),
(790,341,c),
(832,348,o),
(884,335,o),
(923,345,c),
(941,336,o),
(960,341,o),
(978,342,cs),
(1002,345,o),
(1027,340,o),
(1047,341,cs),
(1061,341,o),
(1071,339,o),
(1080,348,c),
(1085,359,o),
(1079,373,o),
(1079,386,cs),
(1078,403,o),
(1085,419,o),
(1077,429,c),
(1052,435,o),
(1024,430,o),
(997,429,cs),
(990,429,o),
(982,431,o),
(974,431,cs),
(966,431,o),
(958,429,o),
(950,429,cs),
(933,429,o),
(915,430,o),
(897,429,cs),
(844,429,ls),
(824,430,o),
(805,427,o),
(790,432,c),
(784,441,o),
(788,453,o),
(787,463,cs),
(784,502,o),
(784,549,o),
(784,585,cs),
(785,599,o),
(780,615,o),
(790,623,c),
(801,625,o),
(813,624,o),
(824,623,cs),
(856,623,ls),
(878,623,o),
(899,620,o),
(920,621,cs),
(926,622,o),
(934,623,o),
(940,623,cs),
(948,623,o),
(955,620,o),
(961,620,cs),
(966,620,o),
(971,621,o),
(975,621,cs),
(993,622,o),
(1007,620,o),
(1022,623,c),
(1028,620,o),
(1039,620,o),
(1048,620,cs),
(1060,620,o),
(1072,618,o),
(1079,625,c),
(1088,637,o),
(1076,651,o),
(1080,665,c),
(1076,676,o),
(1083,701,o),
(1074,707,cs),
(1064,713,o),
(1053,709,o),
(1042,708,c),
(1042,708,o),
(1038,710,o),
(1036,710,cs),
(1026,709,o),
(1019,708,o),
(1010,710,c),
(1003,710,o),
(1002,705,o),
(993,707,c),
(913,709,o),
(823,709,o),
(735,707,c),
(723,711,o),
(704,712,o),
(694,705,c),
(688,693,o),
(695,677,o),
(696,661,cs),
(696,655,o),
(694,648,o),
(694,640,cs),
(694,621,o),
(701,601,o),
(691,586,c),
(684,585,o),
(685,593,o),
(682,595,c),
(674,595,o),
(674,602,o),
(671,605,cs),
(658,618,o),
(646,630,o),
(631,641,c),
(625,650,o),
(613,651,o),
(607,658,c),
(599,661,o),
(591,669,o),
(584,673,cs),
(569,684,o),
(550,694,o),
(532,701,cs),
(523,704,o),
(511,703,o),
(502,710,c),
(448,719,o),
(376,720,o),
(326,707,cs),
(312,703,o),
(298,699,o),
(283,693,cs),
(269,688,o),
(258,681,o),
(244,675,c),
(236,669,o),
(228,665,o),
(216,661,c),
(207,650,o),
(191,643,o),
(180,632,c),
(172,629,o),
(169,621,o),
(163,615,c),
(155,612,o),
(152,604,o),
(146,598,cs),
(135,587,o),
(126,575,o),
(117,562,cs),
(111,555,o),
(106,550,o),
(105,540,c),
(100,533,o),
(92,530,o),
(90,522,c),
(75,490,o),
(60,457,o),
(55,417,c),
(55,393,l),
(45,358,o),
(51,311,o),
(55,275,c),
(60,266,o),
(59,252,o),
(65,244,c),
(68,235,o),
(71,224,o),
(74,217,cs),
(78,209,o),
(83,200,o),
(86,191,cs),
(89,183,o),
(92,176,o),
(94,169,c),
(98,161,o),
(102,157,o),
(105,153,cs),
(106,151,o),
(106,146,o),
(110,147,c),
(118,136,ls),
(123,130,o),
(125,123,o),
(128,116,c),
(139,110,o),
(143,100,o),
(152,92,cs),
(160,84,o),
(169,77,o),
(178,70,cs),
(189,60,o),
(200,52,o),
(210,43,cs),
(212,41,o),
(215,40,o),
(216,38,c),
(222,34,o),
(226,32,o),
(232,29,cs),
(247,20,o),
(265,16,o),
(280,5,c),
(305,4,o),
(320,-6,o),
(338,-14,c),
(347,-14,o),
(351,-13,o),
(357,-12,c),
(363,-14,o),
(368,-16,o),
(374,-17,cs),
(407,-20,o),
(442,-14,o),
(473,-18,c),
(488,-14,o),
(501,-6,o),
(520,-6,c),
(524,-3,o),
(529,-2,o),
(534,-1,c),
(547,6,o),
(560,14,o),
(576,17,c),
(583,23,o),
(590,29,o),
(601,32,c),
(608,42,o),
(619,50,o),
(631,55,c),
(636,61,o),
(640,68,o),
(647,72,c),
(651,78,o),
(656,84,o),
(661,89,c),
(666,90,o),
(665,95,o),
(666,99,c),
(669,102,o),
(674,103,o),
(674,107,c),
(682,111,o),
(683,121,o),
(694,121,c),
(695,113,o),
(701,110,o),
(700,102,cs),
(697,84,o),
(701,57,o),
(700,34,cs),
(699,24,o),
(694,18,o),
(694,6,c),
(701,-3,o),
(712,-7,o),
(725,-8,cs),
(732,-8,o),
(740,-5,o),
(748,-5,c),
(750,-4,o),
(754,-6,o),
(757,-6,cs),
(766,-7,o),
(779,-3,o),
(789,-3,c),
(794,-4,o),
(799,-6,o),
(805,-6,c),
(835,-2,o),
(864,0,o),
(894,-1,cs),
(908,-2,o),
(922,-3,o),
(937,-3,cs),
(948,-3,o),
(959,-1,o),
(969,-1,cs),
(1004,-4,o),
(1042,-1,o),
(1080,0,c),
(1083,6,o),
(1087,13,o),
(1085,22,c),
(1085,24,o),
(1083,24,o),
(1084,27,c),
(1085,38,o),
(1082,46,o),
(1080,55,c),
(1083,67,o),
(1083,85,o),
(1077,92,c),
(1063,100,o),
(1047,92,o),
(1032,92,cs),
(1025,92,o),
(1018,93,o),
(1010,93,cs),
(992,93,o),
(974,90,o),
(955,90,cs),
(908,91,o),
(855,90,o),
(805,90,cs),
(800,90,o),
(794,88,o),
(790,92,cs),
(783,98,o),
(788,106,o),
(789,112,cs),
(789,116,o),
(787,118,o),
(787,121,cs),
(787,188,ls)
);
},
{
closed = 1;
nodes = (
(696,301,o),
(693,287,o),
(688,275,cs),
(684,262,o),
(677,250,o),
(674,235,c),
(664,222,o),
(655,206,o),
(647,189,c),
(636,181,o),
(630,171,o),
(621,162,cs),
(620,161,o),
(617,161,o),
(616,160,cs),
(614,159,o),
(614,155,o),
(611,153,c),
(611,152,o),
(608,152,o),
(607,151,cs),
(606,149,o),
(607,146,o),
(606,145,cs),
(605,144,o),
(602,145,o),
(601,144,cs),
(596,137,ls),
(595,136,o),
(593,137,o),
(591,136,cs),
(590,135,o),
(590,133,o),
(589,133,c),
(588,131,o),
(586,131,o),
(584,130,cs),
(583,129,o),
(583,127,o),
(583,127,c),
(575,124,ls),
(564,118,o),
(552,108,o),
(540,102,c),
(523,96,o),
(506,92,o),
(493,84,c),
(478,83,o),
(465,80,o),
(453,77,c),
(430,76,o),
(412,75,o),
(390,77,cs),
(384,77,o),
(376,76,o),
(370,77,cs),
(366,77,o),
(363,81,o),
(358,82,c),
(348,87,o),
(333,89,o),
(320,92,c),
(317,96,o),
(312,96,o),
(307,99,c),
(299,102,o),
(289,107,o),
(280,112,cs),
(277,114,o),
(273,118,o),
(268,119,c),
(251,127,o),
(240,141,o),
(224,151,c),
(216,164,o),
(204,171,o),
(197,183,c),
(165,211,o),
(155,259,o),
(141,304,c),
(143,316,o),
(139,328,o),
(138,339,cs),
(137,361,o),
(143,384,o),
(145,405,c),
(151,420,o),
(159,431,o),
(160,452,c),
(164,459,o),
(172,464,o),
(173,475,c),
(177,482,o),
(184,487,o),
(184,498,c),
(191,500,o),
(191,508,o),
(197,510,c),
(200,514,o),
(204,518,o),
(209,522,c),
(213,532,o),
(220,540,o),
(227,548,cs),
(236,558,o),
(251,562,o),
(259,573,c),
(264,578,o),
(271,580,o),
(277,583,cs),
(283,587,o),
(286,593,o),
(292,597,c),
(308,598,o),
(317,607,o),
(332,610,c),
(345,615,o),
(359,618,o),
(372,623,c),
(391,622,o),
(412,628,o),
(438,625,cs),
(453,622,o),
(470,621,o),
(488,620,c),
(492,618,o),
(496,615,o),
(500,614,cs),
(510,610,o),
(519,605,o),
(529,602,cs),
(534,600,o),
(540,599,o),
(544,597,cs),
(548,595,o),
(550,590,o),
(554,588,cs),
(558,586,o),
(562,585,o),
(566,583,cs),
(587,570,ls),
(601,560,o),
(612,547,o),
(626,538,c),
(634,523,o),
(649,514,o),
(654,496,c),
(667,484,o),
(669,464,o),
(682,453,c),
(682,436,o),
(691,428,o),
(691,411,c),
(696,399,o),
(697,382,o),
(697,365,c),
(700,365,o),
(700,364,o),
(700,363,cs),
(700,316,l)
);
}
);
width = 1136;
}
);
metricLeft = O;
metricRight = E;
unicode = 338;
},
{
glyphname = P;
kernLeft = H;
kernRight = P;
lastChange = "2023-09-12 03:35:45 +0000";
layers = (
{
anchors = (
{
name = bottom;
pos = (242,0);
},
{
name = top;
pos = (242,695);
}
);
layerId = "7C3BCDA4-8F92-4DF1-91BA-B714BE37B8B5";
shapes = (
{
closed = 1;
nodes = (
(247,297,o),
(251,299,o),
(255,299,cs),
(270,299,l),
(282,303,o),
(296,303,o),
(306,305,cs),
(320,308,o),
(336,314,o),
(345,319,cs),
(350,322,o),
(356,324,o),
(361,325,c),
(371,334,o),
(378,343,o),
(390,349,c),
(400,357,o),
(406,368,o),
(416,374,c),
(420,385,o),
(428,389,o),
(432,398,cs),
(437,406,o),
(442,414,o),
(447,423,c),
(451,453,o),
(460,478,o),
(457,516,c),
(454,527,o),
(454,538,o),
(453,549,c),
(450,561,o),
(445,571,o),
(444,581,c),
(429,602,o),
(415,623,o),
(398,641,c),
(392,646,o),
(386,650,o),
(377,652,c),
(372,660,o),
(363,666,o),
(355,671,c),
(343,675,o),
(333,681,o),
(320,683,c),
(314,685,o),
(307,685,o),
(300,687,cs),
(294,688,o),
(286,691,o),
(280,691,cs),
(274,692,o),
(269,691,o),
(263,691,cs),
(255,690,ls),
(251,690,o),
(249,691,o),
(247,691,cs),
(234,691,o),
(221,692,o),
(210,690,c),
(182,702,o),
(137,691,o),
(97,695,c),
(86,694,o),
(82,697,o),
(73,693,c),
(56,669,o),
(72,622,o),
(65,588,cs),
(63,579,o),
(69,577,o),
(68,568,c),
(63,551,o),
(69,531,o),
(70,517,cs),
(70,514,o),
(68,511,o),
(68,508,cs),
(68,493,o),
(70,479,o),
(70,464,cs),
(69,437,o),
(71,410,o),
(71,383,cs),
(71,376,o),
(70,370,o),
(70,364,cs),
(69,349,o),
(71,334,o),
(71,319,cs),
(71,299,o),
(68,273,o),
(68,258,cs),
(68,253,o),
(70,249,o),
(70,245,cs),
(69,237,o),
(66,230,o),
(66,222,cs),
(66,194,o),
(70,166,o),
(70,139,cs),
(69,126,o),
(69,114,o),
(70,102,cs),
(70,88,o),
(69,74,o),
(71,61,c),
(67,50,o),
(66,28,o),
(68,15,c),
(72,11,o),
(76,8,o),
(79,3,c),
(104,7,o),
(133,6,o),
(158,10,c),
(164,32,o),
(161,56,o),
(160,78,cs),
(159,93,o),
(159,110,o),
(160,120,cs),
(160,124,o),
(158,125,o),
(158,128,cs),
(158,135,o),
(160,140,o),
(160,145,cs),
(159,164,o),
(157,183,o),
(157,201,cs),
(156,232,o),
(159,264,o),
(157,290,c),
(162,297,o),
(173,300,o),
(186,299,cs),
(200,299,o),
(212,301,o),
(224,301,c),
(243,297,l)
);
},
{
closed = 1;
nodes = (
(376,505,o),
(373,497,o),
(377,488,c),
(372,483,o),
(373,474,o),
(370,467,cs),
(367,462,o),
(366,455,o),
(366,446,c),
(362,441,o),
(356,439,o),
(357,430,c),
(343,419,o),
(332,406,o),
(315,398,c),
(260,379,l),
(238,376,o),
(218,379,o),
(198,379,cs),
(185,379,o),
(173,374,o),
(161,381,c),
(160,400,o),
(156,421,o),
(157,441,cs),
(157,443,o),
(156,446,o),
(157,449,c),
(157,449,o),
(160,454,o),
(160,455,cs),
(160,457,o),
(158,461,o),
(158,466,cs),
(157,481,o),
(158,489,o),
(148,496,c),
(150,504,o),
(158,507,o),
(160,516,c),
(158,531,o),
(154,551,o),
(160,565,c),
(155,578,o),
(156,603,o),
(164,613,c),
(167,613,o),
(171,614,o),
(172,616,c),
(199,611,o),
(238,615,o),
(268,612,c),
(297,604,o),
(320,590,o),
(341,577,c),
(352,565,o),
(358,549,o),
(369,537,c),
(369,529,o),
(373,525,o),
(375,517,c),
(378,513,l)
);
}
);
width = 488;
}
);
unicode = 80;
},
{
glyphname = Thorn;
kernLeft = H;
kernRight = Thorn;
lastChange = "2023-09-12 03:35:45 +0000";
layers = (
{
layerId = "7C3BCDA4-8F92-4DF1-91BA-B714BE37B8B5";
shapes = (
{
closed = 1;
nodes = (
(159,689,o),
(160,695,o),
(160,695,c),
(149,696,l),
(132,695,o),
(114,693,o),
(97,695,c),
(86,694,o),
(82,697,o),
(73,693,c),
(56,669,o),
(72,622,o),
(65,588,cs),
(63,579,o),
(69,577,o),
(68,568,c),
(63,551,o),
(69,531,o),
(70,517,cs),
(70,514,o),
(68,511,o),
(68,508,cs),
(68,493,o),
(70,479,o),
(70,464,cs),
(69,437,o),
(71,410,o),
(71,383,cs),
(71,376,o),
(70,370,o),
(70,364,cs),
(69,349,o),
(71,334,o),
(71,319,cs),
(71,299,o),
(68,273,o),
(68,258,cs),
(68,253,o),
(70,249,o),
(70,245,cs),
(69,237,o),
(66,230,o),
(66,222,cs),
(66,194,o),
(70,166,o),
(70,139,cs),
(69,126,o),
(69,114,o),
(70,102,cs),
(70,88,o),
(69,74,o),
(71,61,c),
(67,50,o),
(66,28,o),
(68,15,c),
(72,11,o),
(76,8,o),
(79,3,c),
(104,7,o),
(133,6,o),
(158,10,c),
(164,32,o),
(161,56,o),
(160,78,cs),
(159,93,o),
(159,110,o),
(160,120,cs),
(160,124,o),
(158,125,o),
(158,128,cs),
(158,135,o),
(160,140,o),
(160,145,cs),
(159,164,o),
(162,189,o),
(162,207,cs),
(161,238,o),
(159,264,o),
(157,290,c),
(159,293,o),
(154,351,o),
(159,352,c),
(158,371,o),
(156,421,o),
(157,441,cs),
(157,443,o),
(156,446,o),
(157,449,c),
(157,449,o),
(160,454,o),
(160,455,cs),
(160,457,o),
(158,461,o),
(158,466,cs),
(157,481,o),
(158,489,o),
(148,496,c),
(150,504,o),
(158,507,o),
(160,516,c),
(158,531,o),
(154,551,o),
(160,565,c),
(155,578,o),
(157,584,o),
(158,593,cs),
(158,602,o),
(163,635,o),
(163,648,cs),
(163,655,o),
(160,653,o),
(160,658,cs),
(160,664,o),
(161,678,o),
(162,679,c)
);
},
{
closed = 1;
nodes = (
(147,179,o),
(179,180,o),
(186,179,c),
(200,179,o),
(212,181,o),
(224,181,c),
(243,177,l),
(247,177,o),
(251,179,o),
(255,179,cs),
(270,179,l),
(282,183,o),
(296,183,o),
(306,185,cs),
(320,188,o),
(336,194,o),
(345,199,cs),
(350,202,o),
(356,204,o),
(361,205,c),
(371,214,o),
(378,223,o),
(390,229,c),
(400,237,o),
(406,248,o),
(416,254,c),
(420,265,o),
(428,269,o),
(432,278,cs),
(437,286,o),
(442,294,o),
(447,303,c),
(451,333,o),
(460,358,o),
(457,396,c),
(454,407,o),
(454,418,o),
(453,429,c),
(450,441,o),
(445,451,o),
(444,461,c),
(429,482,o),
(415,503,o),
(398,521,c),
(392,526,o),
(386,530,o),
(377,532,c),
(372,540,o),
(363,546,o),
(355,551,c),
(343,555,o),
(333,561,o),
(320,563,c),
(314,565,o),
(307,565,o),
(300,567,cs),
(294,568,o),
(286,571,o),
(280,571,cs),
(274,572,o),
(269,571,o),
(263,571,cs),
(255,570,ls),
(251,570,o),
(249,571,o),
(247,571,cs),
(234,571,o),
(221,572,o),
(210,570,c),
(197,576,o),
(179,576,o),
(161,576,cs),
(160,576,o),
(119,576,o),
(117,576,c),
(132,496,l),
(144,494,o),
(176,492,o),
(190,493,cs),
(220,495,o),
(251,494,o),
(268,492,c),
(297,484,o),
(320,470,o),
(341,457,c),
(352,445,o),
(358,429,o),
(369,417,c),
(369,409,o),
(373,405,o),
(375,397,c),
(378,393,l),
(376,385,o),
(373,377,o),
(377,368,c),
(372,363,o),
(373,354,o),
(370,347,cs),
(367,342,o),
(366,335,o),
(366,326,c),
(362,321,o),
(356,319,o),
(357,310,c),
(343,299,o),
(332,286,o),
(315,278,c),
(260,259,l),
(238,256,o),
(178,259,o),
(158,259,cs),
(145,259,o),
(154,170,o),
(142,177,c)
);
}
);
width = 488;
}
);
metricRight = P;
unicode = 222;
},
{
glyphname = Q;
kernLeft = O;
kernRight = O;
lastChange = "2023-09-12 03:35:45 +0000";
layers = (
{
anchors = (
{
name = bottom;
pos = (430,0);
},
{
name = top;
pos = (430,695);
}
);
layerId = "7C3BCDA4-8F92-4DF1-91BA-B714BE37B8B5";
shapes = (
{
closed = 1;
nodes = (
(481,705,o),
(474,707,o),
(466,710,c),
(450,706,o),
(438,712,o),
(423,713,c),
(414,712,o),
(405,709,o),
(394,708,cs),
(381,707,o),
(366,709,o),
(353,707,c),
(346,700,o),
(332,700,o),
(321,696,c),
(303,693,o),
(284,688,o),
(273,682,c),
(267,677,o),
(259,675,o),
(250,673,c),
(234,663,o),
(219,650,o),
(199,643,c),
(194,635,o),
(187,631,o),
(179,624,cs),
(172,619,o),
(164,612,o),
(156,608,c),
(149,596,o),
(140,585,o),
(128,578,c),
(125,562,o),
(111,558,o),
(105,545,c),
(90,520,o),
(81,491,o),
(67,466,c),
(65,446,o),
(60,429,o),
(55,412,c),
(57,401,o),
(52,389,o),
(52,377,cs),
(51,369,o),
(54,360,o),
(53,352,cs),
(53,342,o),
(50,334,o),
(50,325,cs),
(51,307,o),
(55,290,o),
(58,273,cs),
(64,249,ls),
(66,242,o),
(72,234,o),
(69,226,c),
(79,210,o),
(87,189,o),
(96,172,c),
(108,155,o),
(121,140,o),
(132,123,c),
(145,114,o),
(154,101,o),
(167,91,c),
(174,87,o),
(178,81,o),
(188,78,c),
(192,71,o),
(199,67,o),
(204,60,c),
(215,57,o),
(222,50,o),
(231,45,cs),
(240,39,o),
(250,37,o),
(258,30,c),
(265,31,o),
(268,27,o),
(276,27,c),
(280,22,o),
(287,21,o),
(290,17,c),
(319,8,o),
(347,-1,o),
(379,-5,c),
(410,-3,o),
(449,-8,o),
(479,1,cs),
(488,3,o),
(491,-1,o),
(498,0,c),
(522,10,o),
(547,17,o),
(573,24,c),
(588,34,o),
(600,46,o),
(621,48,c),
(633,43,o),
(642,35,o),
(647,23,c),
(666,17,o),
(671,-3,o),
(690,-11,c),
(705,-11,o),
(720,-10,o),
(731,-11,cs),
(743,-11,ls),
(762,-11,o),
(780,-16,o),
(791,-2,c),
(791,4,o),
(791,10,o),
(787,12,c),
(778,21,o),
(768,31,o),
(755,36,c),
(749,42,o),
(746,51,o),
(739,55,c),
(735,63,o),
(722,63,o),
(720,72,c),
(713,76,o),
(708,84,o),
(702,88,c),
(700,92,o),
(696,95,o),
(693,99,cs),
(691,101,o),
(686,104,o),
(687,110,c),
(691,121,o),
(703,125,o),
(711,131,c),
(719,142,o),
(726,153,o),
(737,160,c),
(740,172,o),
(747,179,o),
(754,187,c),
(755,202,o),
(763,211,o),
(768,222,c),
(772,239,o),
(777,253,o),
(783,267,c),
(787,312,o),
(790,355,o),
(789,404,c),
(783,422,o),
(782,440,o),
(777,456,cs),
(772,472,o),
(762,487,o),
(759,502,c),
(748,517,o),
(737,531,o),
(730,549,c),
(719,562,o),
(710,577,o),
(700,589,c),
(687,599,o),
(676,616,o),
(664,621,c),
(662,621,o),
(662,624,o),
(661,624,c),
(660,625,o),
(659,624,o),
(658,624,c),
(658,625,o),
(657,628,o),
(656,628,c),
(656,629,o),
(654,628,o),
(653,628,c),
(652,632,l),
(647,636,o),
(641,638,o),
(637,641,cs),
(633,643,o),
(629,644,o),
(626,648,c),
(619,650,o),
(617,657,o),
(609,658,c),
(600,666,o),
(587,671,o),
(577,678,c),
(550,685,o),
(528,694,o),
(502,702,c),
(488,702,l)
);
},
{
closed = 1;
nodes = (
(559,230,o),
(551,237,o),
(546,244,cs),
(544,246,o),
(543,250,o),
(542,252,c),
(534,258,ls),
(526,265,o),
(518,273,o),
(507,279,c),
(487,279,o),
(464,273,o),
(447,281,c),
(440,282,o),
(437,278,o),
(431,277,c),
(417,280,o),
(400,280,o),
(396,267,c),
(396,253,o),
(407,250,o),
(414,244,cs),
(422,237,o),
(429,231,o),
(435,222,c),
(446,216,o),
(457,209,o),
(464,198,c),
(476,192,o),
(484,182,o),
(493,174,c),
(501,164,o),
(513,158,o),
(522,148,c),
(528,146,o),
(531,140,o),
(536,137,c),
(540,133,o),
(549,133,o),
(548,123,c),
(549,116,o),
(543,117,o),
(540,113,c),
(534,113,o),
(533,107,o),
(527,108,c),
(517,106,o),
(509,102,o),
(501,99,cs),
(487,94,o),
(465,96,o),
(452,91,c),
(439,90,o),
(429,93,o),
(420,93,cs),
(412,93,o),
(408,91,o),
(401,91,cs),
(385,92,o),
(370,101,o),
(351,99,c),
(332,104,o),
(315,110,o),
(298,119,c),
(289,122,o),
(281,125,o),
(272,130,c),
(267,135,l),
(262,138,o),
(254,140,o),
(249,143,cs),
(236,152,o),
(227,165,o),
(215,175,c),
(213,178,o),
(208,179,o),
(206,182,cs),
(202,187,ls),
(197,193,o),
(192,202,o),
(185,209,c),
(183,220,o),
(176,227,o),
(171,235,c),
(170,247,o),
(162,251,o),
(160,262,c),
(160,271,o),
(153,279,o),
(151,288,cs),
(147,301,o),
(149,315,o),
(144,325,c),
(143,343,o),
(143,353,o),
(144,371,c),
(147,388,o),
(149,407,o),
(154,424,cs),
(159,439,o),
(166,453,o),
(172,467,c),
(192,494,l),
(192,502,o),
(199,502,o),
(200,510,c),
(206,512,o),
(206,518,o),
(209,523,c),
(226,532,o),
(237,549,o),
(254,560,cs),
(268,571,o),
(287,580,o),
(302,591,c),
(316,593,o),
(326,601,o),
(341,604,cs),
(350,607,o),
(358,606,o),
(368,608,cs),
(379,610,o),
(391,615,o),
(403,616,c),
(431,614,o),
(461,613,o),
(488,608,cs),
(510,602,o),
(528,594,o),
(550,588,c),
(562,579,o),
(578,572,o),
(588,561,c),
(603,554,o),
(611,541,o),
(625,534,c),
(634,519,o),
(644,507,o),
(656,494,c),
(665,477,o),
(676,462,o),
(684,442,cs),
(685,440,o),
(684,437,o),
(685,435,cs),
(691,420,o),
(695,394,o),
(699,374,c),
(700,357,o),
(695,343,o),
(699,331,c),
(693,316,o),
(691,299,o),
(687,284,c),
(681,271,o),
(676,257,o),
(670,244,cs),
(659,215,o),
(648,190,o),
(625,174,c),
(616,175,o),
(614,183,o),
(606,187,c),
(603,194,o),
(595,195,o),
(594,204,c),
(585,206,o),
(582,214,o),
(577,218,cs),
(573,222,o),
(569,222,o),
(566,224,c),
(565,227,l)
);
}
);
width = 841;
}
);
unicode = 81;
},
{
glyphname = R;
kernLeft = H;
kernRight = R;
lastChange = "2023-09-12 03:35:45 +0000";
layers = (
{
anchors = (
{
name = bottom;
pos = (270,0);
},
{
name = top;
pos = (270,695);
}
);
layerId = "7C3BCDA4-8F92-4DF1-91BA-B714BE37B8B5";
shapes = (
{
closed = 1;
nodes = (
(280,181,o),
(294,160,o),
(311,143,c),
(317,135,o),
(323,124,o),
(326,117,c),
(330,116,l),
(331,111,o),
(332,106,o),
(335,103,cs),
(340,96,o),
(349,92,o),
(352,84,cs),
(357,75,o),
(364,70,o),
(368,61,cs),
(373,53,o),
(379,47,o),
(385,40,c),
(386,35,o),
(392,34,o),
(393,30,c),
(399,29,o),
(396,19,o),
(403,20,c),
(409,16,o),
(417,15,o),
(424,12,c),
(447,15,o),
(476,14,o),
(488,29,c),
(488,34,o),
(491,35,o),
(490,41,c),
(489,43,o),
(488,45,o),
(488,48,c),
(460,70,o),
(443,104,o),
(420,131,cs),
(416,135,o),
(415,140,o),
(413,143,c),
(407,157,o),
(396,165,o),
(389,177,c),
(382,184,o),
(379,194,o),
(372,198,c),
(371,210,o),
(360,212,o),
(355,220,c),
(353,227,o),
(348,231,o),
(346,237,c),
(335,245,o),
(328,258,o),
(320,269,c),
(313,272,o),
(312,282,o),
(306,285,c),
(302,292,o),
(296,296,o),
(296,305,c),
(303,311,o),
(311,312,o),
(322,313,c),
(337,321,o),
(356,326,o),
(372,336,c),
(372,337,o),
(373,337,o),
(375,337,c),
(384,353,o),
(397,364,o),
(412,374,c),
(426,400,o),
(437,428,o),
(447,459,c),
(445,472,o),
(449,479,o),
(450,490,c),
(448,501,o),
(447,519,o),
(452,529,c),
(447,534,o),
(448,546,o),
(444,553,c),
(443,563,o),
(435,567,o),
(436,580,c),
(418,606,l),
(415,608,l),
(413,613,l),
(413,614,o),
(411,614,o),
(410,615,cs),
(409,616,o),
(410,618,o),
(409,620,c),
(402,628,o),
(394,633,o),
(386,638,c),
(368,653,l),
(358,661,l),
(342,668,o),
(332,675,o),
(317,679,cs),
(306,683,o),
(299,685,o),
(288,687,cs),
(283,688,o),
(277,690,o),
(273,690,cs),
(258,690,o),
(241,684,o),
(227,693,c),
(222,692,o),
(219,689,o),
(213,688,c),
(198,693,o),
(183,689,o),
(168,690,cs),
(161,690,o),
(152,693,o),
(145,693,cs),
(133,693,o),
(123,690,o),
(111,691,c),
(96,686,o),
(74,688,o),
(67,673,c),
(66,661,o),
(71,655,o),
(71,644,c),
(67,631,o),
(68,616,o),
(70,603,cs),
(70,600,o),
(67,599,o),
(67,597,cs),
(67,594,o),
(70,590,o),
(70,588,cs),
(67,552,o),
(66,517,o),
(71,482,cs),
(72,476,o),
(68,472,o),
(67,466,c),
(68,460,o),
(73,457,o),
(73,449,c),
(70,436,o),
(66,421,o),
(67,406,cs),
(67,398,o),
(71,390,o),
(71,383,cs),
(72,372,o),
(70,364,o),
(67,354,c),
(71,346,o),
(70,331,o),
(67,322,c),
(70,317,o),
(72,311,o),
(73,304,c),
(73,283,o),
(68,258,o),
(73,235,c),
(66,212,o),
(72,176,o),
(65,152,c),
(65,144,o),
(70,141,o),
(70,134,cs),
(71,105,o),
(66,82,o),
(67,53,c),
(65,41,o),
(63,35,o),
(67,24,c),
(77,5,o),
(115,6,o),
(143,10,c),
(150,15,o),
(154,22,o),
(160,30,c),
(156,56,o),
(160,86,o),
(158,116,cs),
(158,126,o),
(154,137,o),
(154,146,cs),
(154,162,o),
(159,176,o),
(152,189,c),
(153,196,o),
(160,198,o),
(160,207,c),
(156,216,o),
(154,224,o),
(156,232,cs),
(158,245,o),
(161,253,o),
(162,264,cs),
(162,275,o),
(162,280,o),
(168,290,c),
(182,292,o),
(194,289,o),
(198,281,cs),
(203,271,o),
(212,266,o),
(219,261,c),
(223,252,o),
(230,247,o),
(235,241,cs),
(240,233,o),
(246,227,o),
(250,218,c),
(268,201,l)
);
},
{
closed = 1;
nodes = (
(275,614,o),
(282,604,o),
(300,606,c),
(306,599,o),
(314,595,o),
(326,593,c),
(338,577,o),
(354,564,o),
(363,546,c),
(366,534,o),
(371,524,o),
(375,513,c),
(375,474,o),
(357,453,o),
(345,426,c),
(339,422,o),
(333,419,o),
(330,412,c),
(314,406,l),
(308,405,o),
(308,399,o),
(302,398,c),
(290,394,o),
(285,386,o),
(275,381,c),
(235,383,o),
(206,375,o),
(171,381,c),
(160,394,l),
(159,408,o),
(160,430,o),
(156,446,c),
(158,457,o),
(159,469,o),
(161,479,c),
(158,491,o),
(156,506,o),
(152,517,c),
(154,542,o),
(152,561,o),
(158,581,c),
(156,593,o),
(154,598,o),
(156,610,c),
(168,619,o),
(186,616,o),
(206,616,cs),
(261,616,l)
);
}
);
width = 530;
}
);
unicode = 82;
},
{
glyphname = S;
kernLeft = S;
kernRight = S;
lastChange = "2023-09-12 03:35:45 +0000";
layers = (
{
anchors = (
{
name = bottom;
pos = (240,0);
},
{
name = top;
pos = (240,695);
}
);
layerId = "7C3BCDA4-8F92-4DF1-91BA-B714BE37B8B5";
shapes = (
{
closed = 1;
nodes = (
(111,176,o),
(109,183,o),
(108,190,c),
(103,194,o),
(106,206,o),
(98,206,c),
(88,211,o),
(75,198,o),
(66,204,c),
(55,201,o),
(43,199,o),
(33,195,c),
(27,182,o),
(31,166,o),
(33,152,c),
(36,145,o),
(42,140,o),
(43,130,c),
(46,122,o),
(51,117,o),
(52,107,c),
(60,102,o),
(64,94,o),
(69,88,cs),
(75,82,o),
(82,77,o),
(84,68,c),
(105,61,o),
(115,43,o),
(133,35,c),
(150,24,o),
(172,19,o),
(190,10,c),
(201,11,o),
(208,8,o),
(217,6,c),
(253,5,o),
(270,7,o),
(304,8,c),
(317,12,o),
(328,18,o),
(345,18,c),
(353,25,o),
(366,28,o),
(374,35,c),
(384,40,o),
(393,48,o),
(402,53,c),
(406,58,o),
(410,65,o),
(416,68,c),
(415,73,o),
(420,74,o),
(422,76,cs),
(427,81,o),
(430,84,o),
(432,88,cs),
(435,93,o),
(436,99,o),
(439,103,c),
(446,107,o),
(448,116,o),
(452,122,cs),
(455,128,o),
(455,136,o),
(457,142,cs),
(459,148,o),
(464,153,o),
(466,160,cs),
(467,165,o),
(468,176,o),
(467,180,cs),
(463,201,o),
(480,227,o),
(469,251,c),
(472,270,o),
(452,288,o),
(449,308,c),
(434,325,o),
(420,343,o),
(403,359,c),
(391,367,o),
(379,377,o),
(365,384,c),
(360,389,o),
(353,393,o),
(345,395,c),
(338,400,o),
(331,404,o),
(324,407,c),
(300,413,o),
(281,423,o),
(260,430,cs),
(239,438,o),
(222,451,o),
(199,456,c),
(185,467,o),
(167,475,o),
(155,488,c),
(151,498,o),
(147,509,o),
(145,522,c),
(149,548,o),
(159,567,o),
(170,588,c),
(188,606,o),
(210,619,o),
(240,626,c),
(253,625,o),
(264,626,o),
(275,628,c),
(297,623,o),
(315,616,o),
(333,608,c),
(335,605,o),
(336,603,o),
(341,603,c),
(346,596,o),
(352,590,o),
(357,583,c),
(364,578,o),
(365,565,o),
(377,565,cs),
(394,564,o),
(400,572,o),
(409,580,c),
(419,585,o),
(433,587,o),
(435,600,c),
(435,624,o),
(418,634,o),
(409,650,c),
(402,650,o),
(400,657,o),
(396,659,c),
(391,663,o),
(384,664,o),
(379,667,c),
(378,667,o),
(378,669,o),
(377,670,cs),
(376,671,o),
(374,671,o),
(373,671,c),
(364,677,o),
(358,684,o),
(350,688,c),
(335,685,o),
(329,693,o),
(322,695,cs),
(315,696,o),
(310,693,o),
(305,699,c),
(291,696,o),
(282,701,o),
(272,702,c),
(248,700,o),
(237,703,o),
(215,702,c),
(207,700,o),
(203,692,o),
(194,690,cs),
(183,689,o),
(176,683,o),
(165,682,c),
(157,673,o),
(147,667,o),
(135,664,c),
(132,658,o),
(129,654,o),
(121,653,c),
(115,641,o),
(104,632,o),
(95,623,c),
(93,611,o),
(81,604,o),
(77,593,c),
(75,590,o),
(76,586,o),
(75,583,cs),
(75,582,o),
(71,581,o),
(71,580,cs),
(68,569,o),
(69,562,o),
(66,553,c),
(67,535,o),
(64,523,o),
(65,506,cs),
(67,485,o),
(73,469,o),
(78,451,c),
(89,435,o),
(103,421,o),
(116,407,c),
(131,403,o),
(142,394,o),
(153,386,c),
(165,383,o),
(174,377,o),
(183,371,c),
(202,368,o),
(212,358,o),
(232,357,c),
(248,347,o),
(272,341,o),
(289,331,cs),
(306,320,o),
(322,308,o),
(341,299,c),
(348,288,o),
(360,281,o),
(367,269,c),
(368,263,o),
(371,260,o),
(374,255,c),
(375,239,o),
(384,230,o),
(385,214,cs),
(385,195,o),
(375,188,o),
(376,169,c),
(369,158,o),
(365,144,o),
(359,134,c),
(349,125,o),
(339,120,o),
(330,110,c),
(310,104,o),
(292,92,o),
(267,90,cs),
(253,89,o),
(238,91,o),
(220,90,c),
(199,95,o),
(182,105,o),
(158,108,c),
(155,114,o),
(147,116,o),
(145,123,c),
(141,126,o),
(141,130,o),
(139,135,c),
(131,142,o),
(123,149,o),
(118,160,cs),
(113,171,ls)
);
}
);
width = 503;
}
);
unicode = 83;
},
{
glyphname = Germandbls;
kernLeft = Germandbls;
kernRight = Germandbls;
lastChange = "2023-09-12 03:35:45 +0000";
layers = (
{
layerId = "7C3BCDA4-8F92-4DF1-91BA-B714BE37B8B5";
shapes = (
{
closed = 1;
nodes = (
(116,31,l),
(117,51,l),
(116,69,l),
(117,84,l),
(117,104,l),
(116,138,l),
(116,141,ls),
(116,152,o),
(117,160,o),
(117,171,cs),
(117,173,l),
(118,173,l),
(117,188,l),
(116,206,l),
(116,238,l),
(117,258,l),
(116,275,l),
(118,293,l),
(118,312,l),
(117,344,l),
(118,345,l),
(118,345,o),
(119,349,o),
(118,359,cs),
(117,375,l),
(118,394,l),
(117,413,l),
(118,414,l),
(118,414,o),
(119,418,o),
(118,428,cs),
(117,444,l),
(118,463,l),
(117,481,l),
(118,496,l),
(118,516,l),
(117,550,l),
(118,573,l),
(117,594,l),
(118,594,l),
(118,594,o),
(112,614,o),
(126,616,cs),
(134,617,l),
(142,618,ls),
(143,618,o),
(151,616,o),
(168,618,cs),
(177,619,l),
(246,619,l),
(265,617,ls),
(276,616,o),
(284,616,o),
(295,617,cs),
(315,619,l),
(334,617,ls),
(345,616,o),
(353,616,o),
(364,617,cs),
(384,619,l),
(407,618,ls),
(410,618,o),
(416,623,o),
(409,609,cs),
(399,588,l),
(398,588,ls),
(396,588,o),
(393,583,o),
(385,572,cs),
(383,569,l),
(380,566,l),
(363,545,l),
(363,546,o),
(361,543,o),
(354,534,cs),
(343,519,l),
(324,495,l),
(323,495,ls),
(321,495,o),
(317,491,o),
(310,479,cs),
(304,469,l),
(301,466,l),
(281,444,l),
(281,445,o),
(280,442,o),
(273,432,cs),
(264,419,l),
(247,398,ls),
(234,382,o),
(231,369,o),
(239,368,cs),
(250,366,o),
(254,366,o),
(255,366,cs),
(275,368,l),
(305,368,l),
(320,366,l),
(320,364,o),
(328,365,o),
(341,368,c),
(371,367,l),
(371,366,ls),
(371,365,o),
(379,362,o),
(395,362,cs),
(399,362,l),
(420,358,l),
(449,346,l),
(449,345,ls),
(449,343,o),
(455,340,o),
(467,335,c),
(478,326,l),
(499,302,l),
(497,302,o),
(500,296,o),
(506,288,c),
(506,287,ls),
(506,285,o),
(508,281,o),
(513,270,c),
(519,239,l),
(520,218,l),
(518,191,l),
(516,191,o),
(515,188,o),
(516,182,c),
(512,163,l),
(500,135,l),
(498,135,o),
(498,134,o),
(499,133,c),
(480,109,l),
(478,109,o),
(477,108,o),
(478,107,c),
(454,90,ls),
(455,91,o),
(453,90,o),
(449,87,c),
(421,76,l),
(421,77,o),
(419,76,o),
(414,74,c),
(384,69,l),
(384,70,l),
(384,70,o),
(380,69,o),
(370,68,cs),
(356,67,l),
(341,68,l),
(325,70,l),
(296,78,l),
(297,79,o),
(295,79,o),
(289,80,c),
(263,97,l),
(264,97,o),
(263,97,o),
(262,98,cs),
(244,123,l),
(245,124,o),
(244,125,o),
(243,126,c),
(233,155,l),
(234,155,o),
(233,156,o),
(232,159,cs),
(228,170,o),
(228,175,o),
(213,173,cs),
(203,172,l),
(203,172,o),
(199,170,o),
(189,167,cs),
(177,163,l),
(176,163,ls),
(174,163,o),
(170,165,o),
(160,160,cs),
(156,158,l),
(153,157,l),
(153,154,l),
(155,149,ls),
(158,142,o),
(155,134,o),
(160,124,cs),
(162,120,l),
(161,119,ls),
(159,117,o),
(162,112,o),
(167,98,cs),
(170,89,l),
(170,87,o),
(174,83,o),
(182,73,cs),
(191,62,l),
(190,61,ls),
(189,60,o),
(192,55,o),
(200,46,cs),
(208,38,o),
(215,33,o),
(225,28,cs),
(243,18,l),
(247,16,ls),
(257,11,o),
(264,7,o),
(275,4,cs),
(299,-3,ls),
(310,-6,o),
(318,-8,o),
(329,-8,cs),
(333,-8,l),
(357,-10,l),
(363,-10,ls),
(374,-10,o),
(382,-10,o),
(393,-8,cs),
(422,-2,ls),
(433,0,o),
(441,2,o),
(451,6,cs),
(456,8,l),
(472,15,l),
(473,16,ls),
(481,24,o),
(491,23,o),
(500,30,cs),
(504,33,l),
(505,33,l),
(505,33,o),
(508,36,o),
(517,42,cs),
(520,44,ls),
(529,50,o),
(535,56,o),
(542,65,cs),
(555,82,l),
(575,113,l),
(575,112,ls),
(575,111,o),
(584,135,o),
(588,145,c),
(593,164,l),
(596,181,l),
(598,197,l),
(599,218,l),
(599,238,l),
(597,255,l),
(593,274,l),
(588,291,l),
(582,308,l),
(574,324,l),
(575,324,o),
(572,326,o),
(566,336,cs),
(555,353,l),
(553,356,ls),
(547,365,o),
(541,371,o),
(533,379,cs),
(532,380,l),
(519,391,l),
(504,402,l),
(489,412,l),
(472,421,l),
(469,423,ls),
(460,429,o),
(451,430,o),
(441,433,cs),
(437,434,l),
(398,443,l),
(378,445,l),
(374,445,l),
(375,446,l),
(395,471,l),
(396,471,o),
(398,474,o),
(405,483,cs),
(414,495,l),
(415,495,o),
(417,498,o),
(424,506,cs),
(435,520,l),
(436,521,l),
(454,545,l),
(475,570,l),
(493,595,l),
(494,595,l),
(494,595,o),
(497,597,o),
(504,606,cs),
(513,617,l),
(522,630,l),
(533,645,l),
(533,644,o),
(544,657,o),
(554,670,c),
(555,670,o),
(555,674,o),
(563,682,cs),
(564,683,ls),
(570,689,o),
(556,695,o),
(557,695,cs),
(541,696,l),
(507,695,l),
(440,695,l),
(441,696,o),
(437,696,o),
(427,696,cs),
(408,696,l),
(408,697,l),
(393,696,l),
(374,695,l),
(341,696,l),
(341,697,l),
(326,696,l),
(307,695,l),
(308,696,o),
(304,696,o),
(294,696,cs),
(275,696,l),
(276,697,o),
(272,697,o),
(261,696,cs),
(241,695,l),
(209,696,l),
(174,695,l),
(108,695,l),
(75,696,l),
(66,696,ls),
(50,696,o),
(41,686,o),
(41,670,cs),
(41,626,l),
(40,626,ls),
(39,626,o),
(38,617,o),
(40,600,cs),
(41,592,l),
(41,556,l),
(40,538,l),
(38,518,l),
(36,516,o),
(36,509,o),
(39,496,cs),
(41,487,l),
(39,464,ls),
(38,453,o),
(38,445,o),
(39,434,cs),
(41,417,l),
(39,409,ls),
(37,402,o),
(38,396,o),
(38,385,cs),
(38,382,l),
(37,381,ls),
(35,379,o),
(37,374,o),
(40,363,c),
(39,333,l),
(37,310,l),
(35,310,o),
(36,300,o),
(39,283,cs),
(40,278,l),
(40,244,l),
(39,243,ls),
(37,241,o),
(38,236,o),
(39,222,cs),
(40,209,l),
(38,201,ls),
(36,194,o),
(37,188,o),
(37,177,cs),
(37,174,l),
(39,154,l),
(39,124,l),
(38,124,ls),
(37,124,o),
(36,117,o),
(37,104,c),
(35,104,o),
(36,97,o),
(39,85,c),
(39,55,l),
(37,35,l),
(37,33,ls),
(37,22,o),
(37,16,o),
(38,9,cs),
(39,3,o),
(47,0,o),
(63,0,cs),
(91,0,ls),
(107,0,o),
(116,5,o),
(116,16,cs)
);
}
);
width = 639;
},
{
associatedMasterId = "7C3BCDA4-8F92-4DF1-91BA-B714BE37B8B5";
layerId = "9575849E-F26E-4A87-AD4C-45DA84A2E006";
name = "5 sept. 23 à 09:20";
shapes = (
{
closed = 1;
nodes = (
(117,695,l),
(41,695,l),
(40,0,l),
(116,0,l)
);
},
{
closed = 1;
nodes = (
(423,619,l),
(224,369,l),
(356,369,ls),
(463,369,o),
(523,309,o),
(523,218,cs),
(523,127,o),
(463,66,o),
(356,66,cs),
(285,66,o),
(249,94,o),
(236,140,cs),
(226,176,l),
(153,157,l),
(162,120,ls),
(180,46,o),
(255,-10,o),
(356,-10,cs),
(500,-10,o),
(599,90,o),
(599,218,cs),
(599,346,o),
(500,445,o),
(356,445,c),
(374,445,l),
(573,695,l),
(41,695,l),
(41,619,l)
);
}
);
width = 639;
}
);
unicode = 7838;
},
{
glyphname = T;
kernLeft = T;
kernRight = T;
lastChange = "2023-09-12 03:35:45 +0000";
layers = (
{
anchors = (
{
name = bottom;
pos = (249,0);
},
{
name = center;
pos = (249,348);
},
{
name = top;
pos = (249,695);
}
);
layerId = "7C3BCDA4-8F92-4DF1-91BA-B714BE37B8B5";
shapes = (
{
closed = 1;
nodes = (
(451,682,o),
(441,684,o),
(434,688,c),
(421,688,o),
(409,690,o),
(395,690,cs),
(382,690,o),
(369,688,o),
(355,688,cs),
(340,689,o),
(327,690,o),
(312,690,cs),
(297,690,o),
(283,688,o),
(268,688,cs),
(260,689,o),
(250,692,o),
(242,691,cs),
(231,691,o),
(224,689,o),
(215,688,c),
(198,691,o),
(180,689,o),
(161,688,cs),
(159,688,o),
(159,690,o),
(157,690,cs),
(154,690,o),
(154,688,o),
(150,688,cs),
(136,688,o),
(121,691,o),
(106,691,cs),
(86,691,o),
(69,687,o),
(54,683,cs),
(46,681,o),
(37,679,o),
(31,673,c),
(29,652,o),
(32,624,o),
(42,612,c),
(49,607,o),
(55,610,o),
(63,610,cs),
(70,610,o),
(79,608,o),
(86,608,cs),
(100,608,o),
(116,612,o),
(126,612,cs),
(132,612,o),
(136,610,o),
(140,610,cs),
(159,611,o),
(176,612,o),
(193,610,c),
(200,603,o),
(200,594,o),
(201,583,cs),
(205,551,o),
(201,511,o),
(204,482,c),
(201,471,o),
(199,458,o),
(200,444,cs),
(200,436,o),
(204,427,o),
(205,418,cs),
(206,409,o),
(205,399,o),
(205,389,cs),
(205,381,o),
(207,370,o),
(207,363,cs),
(206,356,o),
(201,351,o),
(204,346,c),
(206,333,o),
(207,312,o),
(204,299,c),
(208,280,o),
(207,262,o),
(208,244,c),
(198,207,o),
(213,165,o),
(205,130,c),
(207,124,o),
(209,119,o),
(210,111,c),
(207,92,o),
(208,66,o),
(208,50,c),
(209,45,o),
(206,40,o),
(207,36,cs),
(208,29,o),
(212,22,o),
(215,17,c),
(232,10,o),
(261,15,o),
(280,17,c),
(294,32,o),
(294,58,o),
(294,84,cs),
(294,121,o),
(288,160,o),
(292,194,c),
(288,205,o),
(283,214,o),
(282,227,cs),
(281,235,o),
(288,234,o),
(286,244,c),
(286,257,o),
(286,269,o),
(291,277,c),
(288,296,o),
(285,316,o),
(285,336,cs),
(285,348,o),
(287,359,o),
(283,371,c),
(285,402,o),
(288,436,o),
(285,462,c),
(288,473,o),
(291,484,o),
(291,496,c),
(289,511,o),
(283,526,o),
(282,540,c),
(287,549,o),
(283,568,o),
(288,578,c),
(288,594,o),
(291,606,o),
(300,612,c),
(324,614,o),
(364,608,o),
(389,615,c),
(410,613,o),
(442,606,o),
(456,620,c),
(462,631,o),
(458,652,o),
(459,668,c),
(456,675,l)
);
}
);
width = 489;
}
);
unicode = 84;
},
{
glyphname = U;
kernLeft = U;
kernRight = U;
lastChange = "2023-09-12 03:35:45 +0000";
layers = (
{
anchors = (
{
name = bottom;
pos = (336,0);
},
{
name = ogonek;
pos = (357,10);
},
{
name = top;
pos = (331,695);
},
{
name = topright;
pos = (628,695);
}
);
layerId = "7C3BCDA4-8F92-4DF1-91BA-B714BE37B8B5";
shapes = (
{
closed = 1;
nodes = (
(376,3,o),
(399,5,o),
(418,12,cs),
(436,19,o),
(450,30,o),
(470,35,c),
(490,51,o),
(511,68,o),
(532,84,c),
(534,91,o),
(540,95,o),
(542,103,c),
(547,109,o),
(552,113,o),
(554,122,c),
(563,134,o),
(563,153,o),
(572,163,c),
(584,194,o),
(584,230,o),
(587,265,c),
(584,272,o),
(587,287,o),
(584,294,c),
(590,306,o),
(584,324,o),
(587,337,c),
(587,339,o),
(585,339,o),
(586,342,c),
(583,356,o),
(584,378,o),
(586,392,c),
(581,407,o),
(584,429,o),
(581,446,c),
(582,457,o),
(582,462,o),
(584,474,c),
(584,505,o),
(580,545,o),
(586,577,c),
(584,587,o),
(578,596,o),
(577,608,c),
(584,629,o),
(587,660,o),
(577,682,c),
(560,694,o),
(519,693,o),
(500,682,c),
(492,665,o),
(497,642,o),
(496,621,cs),
(492,560,l),
(494,553,o),
(494,545,o),
(496,540,c),
(493,516,o),
(495,490,o),
(496,471,cs),
(497,429,o),
(495,385,o),
(496,342,cs),
(496,331,o),
(497,319,o),
(497,307,cs),
(497,297,o),
(494,287,o),
(494,277,cs),
(494,269,o),
(496,261,o),
(496,253,cs),
(495,236,o),
(489,222,o),
(490,206,c),
(486,201,o),
(484,194,o),
(483,187,c),
(479,177,o),
(469,173,o),
(465,162,c),
(464,148,o),
(452,146,o),
(448,135,c),
(441,130,o),
(432,126,o),
(427,119,c),
(415,114,o),
(408,107,o),
(396,103,cs),
(383,98,o),
(368,95,o),
(354,90,c),
(326,87,o),
(307,91,o),
(282,93,c),
(268,99,o),
(255,105,o),
(239,108,c),
(223,120,o),
(207,130,o),
(195,145,cs),
(180,164,o),
(171,190,o),
(161,214,c),
(161,229,o),
(161,243,o),
(160,258,cs),
(159,270,o),
(154,283,o),
(152,296,c),
(163,326,o),
(154,371,o),
(151,404,c),
(158,416,o),
(157,428,o),
(157,441,c),
(156,446,o),
(158,451,o),
(158,456,cs),
(158,466,o),
(156,477,o),
(157,488,cs),
(157,502,o),
(159,518,o),
(158,533,cs),
(157,548,o),
(154,563,o),
(154,578,cs),
(154,598,o),
(156,621,o),
(157,639,cs),
(157,650,o),
(158,661,o),
(157,670,c),
(154,678,o),
(149,684,o),
(143,690,c),
(123,690,o),
(89,693,o),
(76,683,c),
(73,682,o),
(73,677,o),
(71,675,c),
(69,671,o),
(64,670,o),
(65,665,c),
(63,656,o),
(69,648,o),
(70,638,cs),
(70,633,o),
(68,629,o),
(68,623,cs),
(68,618,o),
(69,612,o),
(70,606,c),
(70,606,o),
(68,602,o),
(68,600,cs),
(69,571,o),
(66,542,o),
(68,514,cs),
(69,494,o),
(66,474,o),
(71,456,c),
(63,421,o),
(75,381,o),
(65,346,c),
(71,315,o),
(72,284,o),
(68,253,c),
(69,247,o),
(74,244,o),
(74,235,cs),
(71,205,o),
(81,175,o),
(86,146,c),
(96,134,o),
(105,118,o),
(114,103,cs),
(124,88,o),
(136,78,o),
(148,65,c),
(160,59,o),
(168,51,o),
(178,43,c),
(190,38,o),
(201,31,o),
(212,23,c),
(228,20,o),
(238,12,o),
(256,10,c),
(271,5,o),
(288,3,o),
(303,-2,c),
(357,-2,l)
);
}
);
width = 652;
}
);
unicode = 85;
},
{
glyphname = V;
kernLeft = V;
kernRight = V;
lastChange = "2023-09-12 03:35:45 +0000";
layers = (
{
anchors = (
{
name = bottom;
pos = (321,0);
},
{
name = top;
pos = (321,695);
}
);
layerId = "7C3BCDA4-8F92-4DF1-91BA-B714BE37B8B5";
shapes = (
{
closed = 1;
nodes = (
(627,695,o),
(618,693,o),
(609,693,cs),
(589,693,o),
(568,696,o),
(546,693,c),
(534,687,o),
(533,672,o),
(528,659,cs),
(523,647,o),
(516,634,o),
(513,621,c),
(506,611,o),
(502,596,o),
(496,584,c),
(496,576,o),
(493,570,o),
(487,566,c),
(487,558,o),
(483,552,o),
(483,545,c),
(469,519,l),
(468,507,o),
(461,501,o),
(458,491,c),
(456,487,o),
(456,479,o),
(455,474,c),
(448,469,o),
(446,460,o),
(441,455,c),
(441,446,o),
(435,439,o),
(434,435,cs),
(431,425,o),
(429,421,o),
(426,414,cs),
(424,409,o),
(423,404,o),
(421,400,cs),
(417,390,o),
(411,383,o),
(408,374,cs),
(407,372,o),
(407,369,o),
(406,368,c),
(404,359,o),
(400,354,o),
(396,348,c),
(395,328,o),
(385,318,o),
(379,304,c),
(376,287,o),
(364,278,o),
(361,262,c),
(358,254,o),
(356,246,o),
(356,235,c),
(351,231,o),
(350,223,o),
(347,215,c),
(342,211,o),
(344,200,o),
(336,198,c),
(327,200,o),
(326,210,o),
(324,217,cs),
(321,225,o),
(318,232,o),
(318,241,c),
(303,266,o),
(298,300,o),
(281,322,c),
(279,338,o),
(271,350,o),
(266,363,c),
(247,401,l),
(240,412,o),
(238,429,o),
(231,439,c),
(227,454,o),
(216,462,o),
(215,481,c),
(209,487,o),
(203,495,o),
(202,506,c),
(196,513,o),
(194,524,o),
(188,531,c),
(182,550,o),
(173,567,o),
(165,586,c),
(159,594,o),
(157,603,o),
(154,613,c),
(148,620,o),
(143,628,o),
(142,640,c),
(133,651,o),
(132,669,o),
(122,678,c),
(120,683,o),
(120,689,o),
(113,690,cs),
(106,692,o),
(94,692,o),
(87,695,c),
(69,689,o),
(37,699,o),
(26,682,c),
(21,660,o),
(39,650,o),
(41,632,c),
(49,616,o),
(57,601,o),
(64,586,c),
(66,579,o),
(70,573,o),
(70,566,c),
(79,550,o),
(88,534,o),
(93,514,c),
(96,510,o),
(98,504,o),
(101,499,c),
(101,499,o),
(103,498,o),
(104,498,c),
(105,495,o),
(104,492,o),
(105,490,cs),
(109,481,o),
(115,473,o),
(115,461,c),
(126,446,o),
(132,425,o),
(140,407,c),
(150,392,o),
(155,370,o),
(165,354,c),
(167,343,o),
(174,337,o),
(177,328,cs),
(191,297,l),
(191,295,o),
(192,294,o),
(192,293,c),
(199,277,o),
(210,263,o),
(212,244,c),
(218,236,o),
(223,227,o),
(229,218,c),
(230,205,o),
(235,194,o),
(243,186,c),
(244,172,o),
(251,163,o),
(254,151,c),
(268,130,o),
(274,102,o),
(286,78,c),
(292,73,o),
(292,61,o),
(298,55,c),
(299,45,o),
(303,37,o),
(304,27,c),
(315,14,o),
(316,-7,o),
(341,-5,c),
(353,0,o),
(354,15,o),
(359,27,c),
(367,36,o),
(368,51,o),
(377,58,c),
(376,69,o),
(380,73,o),
(380,82,c),
(389,95,o),
(395,111,o),
(403,127,c),
(408,149,o),
(421,163,o),
(424,187,c),
(428,193,o),
(433,198,o),
(435,206,c),
(439,212,o),
(442,218,o),
(443,227,c),
(457,245,o),
(460,272,o),
(475,290,c),
(480,320,o),
(496,339,o),
(501,369,c),
(509,379,o),
(514,392,o),
(519,406,cs),
(522,412,o),
(523,420,o),
(527,426,c),
(529,432,o),
(534,438,o),
(536,444,cs),
(541,457,o),
(545,472,o),
(553,482,c),
(557,496,o),
(562,510,o),
(568,523,cs),
(573,535,o),
(578,550,o),
(583,563,cs),
(589,576,o),
(596,587,o),
(600,601,c),
(607,613,o),
(612,625,o),
(617,639,cs),
(623,652,o),
(633,663,o),
(632,683,c),
(628,688,l)
);
}
);
width = 657;
}
);
unicode = 86;
},
{
glyphname = W;
kernLeft = W;
kernRight = W;
lastChange = "2023-09-12 03:35:45 +0000";
layers = (
{
anchors = (
{
name = bottom;
pos = (512,0);
},
{
name = top;
pos = (512,695);
}
);
layerId = "7C3BCDA4-8F92-4DF1-91BA-B714BE37B8B5";
shapes = (
{
closed = 1;
nodes = (
(583,314,o),
(589,290,o),
(598,272,cs),
(602,262,o),
(604,249,o),
(612,242,c),
(613,229,o),
(618,220,o),
(619,207,c),
(628,196,o),
(632,181,o),
(638,169,cs),
(644,154,o),
(651,143,o),
(651,123,c),
(657,117,o),
(671,82,o),
(673,72,cs),
(675,61,o),
(683,57,o),
(682,43,c),
(686,38,o),
(690,33,o),
(693,27,cs),
(699,15,o),
(698,-2,o),
(714,-3,cs),
(724,-4,o),
(729,1,o),
(732,10,cs),
(734,18,o),
(739,24,o),
(740,33,c),
(745,45,o),
(750,56,o),
(755,65,cs),
(757,68,o),
(761,70,o),
(761,75,cs),
(762,85,o),
(766,94,o),
(767,103,c),
(773,114,o),
(778,126,o),
(785,137,c),
(786,145,o),
(790,148,o),
(790,157,c),
(801,172,o),
(807,190,o),
(812,210,c),
(816,214,o),
(817,223,o),
(822,227,c),
(827,258,o),
(845,276,o),
(850,307,c),
(860,320,o),
(867,333,o),
(870,352,c),
(874,358,o),
(878,363,o),
(880,369,cs),
(884,383,o),
(888,395,o),
(896,406,c),
(900,418,o),
(904,430,o),
(912,441,c),
(916,465,o),
(931,480,o),
(934,506,c),
(941,519,o),
(951,529,o),
(952,548,c),
(956,553,o),
(960,559,o),
(964,563,c),
(963,571,o),
(965,575,o),
(967,578,cs),
(970,581,ls),
(972,584,o),
(971,588,o),
(972,591,cs),
(973,595,o),
(978,596,o),
(978,600,c),
(983,611,o),
(986,625,o),
(994,635,c),
(994,650,o),
(1003,656,o),
(1006,670,c),
(1006,687,l),
(1003,691,o),
(1000,694,o),
(998,699,c),
(983,702,o),
(967,700,o),
(954,696,c),
(941,700,o),
(922,699,o),
(912,695,c),
(902,687,o),
(901,669,o),
(896,656,c),
(888,644,o),
(886,630,o),
(879,618,c),
(875,603,o),
(868,591,o),
(864,578,cs),
(859,564,o),
(856,548,o),
(847,537,c),
(846,531,o),
(844,526,o),
(844,519,c),
(838,511,o),
(834,499,o),
(827,493,c),
(827,477,o),
(817,471,o),
(813,459,cs),
(810,446,o),
(804,438,o),
(801,426,c),
(790,401,ls),
(787,392,o),
(785,384,o),
(778,377,c),
(775,363,o),
(768,348,o),
(761,334,c),
(756,319,o),
(752,305,o),
(743,293,c),
(734,255,l),
(726,246,o),
(733,225,o),
(717,224,c),
(703,228,o),
(707,251,o),
(697,259,c),
(695,276,o),
(685,285,o),
(683,302,c),
(680,308,o),
(674,312,o),
(673,319,cs),
(671,328,o),
(667,335,o),
(667,346,c),
(658,356,o),
(656,371,o),
(648,381,c),
(640,405,o),
(629,427,o),
(619,451,cs),
(615,463,o),
(612,476,o),
(607,488,cs),
(601,499,o),
(595,510,o),
(592,523,c),
(574,571,o),
(554,618,o),
(534,665,c),
(531,681,o),
(531,701,o),
(513,702,c),
(502,699,o),
(503,684,o),
(499,673,c),
(493,666,o),
(492,651,o),
(486,643,c),
(485,632,o),
(479,621,o),
(476,612,cs),
(472,601,o),
(470,589,o),
(464,580,c),
(456,560,o),
(451,536,o),
(441,517,cs),
(432,497,o),
(428,473,o),
(416,456,c),
(415,441,o),
(408,432,o),
(406,419,c),
(399,409,o),
(395,396,o),
(387,386,c),
(388,373,o),
(381,368,o),
(381,356,c),
(372,346,o),
(369,329,o),
(363,316,c),
(362,297,o),
(350,287,o),
(346,272,cs),
(337,241,ls),
(333,231,o),
(335,215,o),
(322,215,cs),
(314,215,o),
(313,222,o),
(311,227,c),
(307,231,o),
(307,240,o),
(304,245,c),
(301,259,o),
(295,269,o),
(292,282,c),
(283,305,o),
(274,329,o),
(262,349,c),
(256,374,o),
(244,394,o),
(233,416,c),
(234,424,o),
(230,427,o),
(230,435,c),
(224,444,o),
(218,455,o),
(215,470,c),
(207,478,o),
(205,493,o),
(197,502,c),
(189,529,o),
(177,552,o),
(166,575,c),
(158,599,o),
(148,618,o),
(137,638,c),
(136,649,o),
(130,657,o),
(125,667,cs),
(121,676,o),
(120,686,o),
(112,693,c),
(110,693,o),
(108,693,o),
(108,695,c),
(92,697,o),
(77,699,o),
(62,695,c),
(49,697,o),
(38,699,o),
(28,693,c),
(22,686,o),
(26,670,o),
(25,658,c),
(34,643,o),
(40,625,o),
(48,610,cs),
(56,593,o),
(64,576,o),
(68,557,c),
(74,545,o),
(82,535,o),
(85,522,c),
(91,510,o),
(98,498,o),
(100,482,c),
(117,460,o),
(125,429,o),
(140,404,c),
(146,381,o),
(158,361,o),
(169,340,cs),
(171,337,o),
(169,329,o),
(172,325,c),
(174,318,o),
(179,315,o),
(181,307,cs),
(191,280,o),
(203,255,o),
(215,232,c),
(216,225,o),
(220,222,o),
(221,214,c),
(234,194,o),
(244,170,o),
(250,142,c),
(257,136,o),
(260,126,o),
(265,119,c),
(274,95,o),
(284,74,o),
(292,52,c),
(298,42,o),
(300,29,o),
(308,20,c),
(311,7,o),
(315,-3,o),
(331,-3,c),
(344,0,o),
(345,17,o),
(349,30,c),
(357,41,o),
(358,60,o),
(366,73,c),
(367,82,o),
(370,88,o),
(374,95,c),
(374,105,o),
(379,111,o),
(383,117,c),
(387,133,o),
(391,148,o),
(399,160,c),
(401,179,o),
(409,192,o),
(416,206,c),
(421,237,o),
(437,259,o),
(444,288,c),
(454,298,o),
(456,316,o),
(462,328,cs),
(467,342,o),
(472,356,o),
(479,368,c),
(481,387,o),
(489,403,o),
(496,418,c),
(496,430,o),
(501,440,o),
(503,451,c),
(509,459,o),
(507,475,o),
(514,481,c),
(527,478,o),
(529,464,o),
(529,449,c),
(538,438,o),
(541,422,o),
(543,404,c),
(554,387,o),
(557,364,o),
(568,348,c),
(572,331,l)
);
}
);
width = 1031;
}
);
unicode = 87;
},
{
glyphname = Wdieresis;
kernLeft = W;
kernRight = W;
lastChange = "2023-09-12 03:35:45 +0000";
layers = (
{
layerId = "7C3BCDA4-8F92-4DF1-91BA-B714BE37B8B5";
shapes = (
{
ref = W;
},
{
closed = 1;
nodes = (
(609,616,o),
(627,601,o),
(633,598,cs),
(639,594,o),
(654,587,o),
(662,587,c),
(687,593,o),
(708,601,o),
(719,621,c),
(719,642,o),
(715,670,o),
(708,681,cs),
(703,689,o),
(698,694,o),
(690,700,cs),
(684,704,o),
(678,708,o),
(670,709,c),
(658,707,o),
(648,704,o),
(635,703,c),
(615,691,o),
(602,673,o),
(598,646,c),
(600,642,o),
(600,636,o),
(601,633,cs)
);
},
{
closed = 1;
nodes = (
(417,689,o),
(393,707,o),
(350,706,c),
(337,701,o),
(327,693,o),
(318,685,c),
(315,678,o),
(314,672,o),
(311,666,cs),
(306,652,o),
(302,641,o),
(306,622,c),
(314,615,o),
(318,605,o),
(324,598,c),
(337,596,o),
(343,589,o),
(355,587,c),
(363,588,o),
(373,590,o),
(381,587,c),
(388,594,o),
(397,597,o),
(405,601,c),
(408,608,o),
(415,612,o),
(418,621,cs),
(421,629,o),
(420,638,o),
(422,648,cs),
(422,649,o),
(421,650,o),
(420,649,c)
);
}
);
width = 1031;
}
);
unicode = 7812;
},
{
glyphname = X;
kernLeft = X;
kernRight = X;
lastChange = "2023-09-12 03:35:45 +0000";
layers = (
{
anchors = (
{
name = bottom;
pos = (296,0);
},
{
name = top;
pos = (296,695);
}
);
layerId = "7C3BCDA4-8F92-4DF1-91BA-B714BE37B8B5";
shapes = (
{
closed = 1;
nodes = (
(438,504,o),
(448,523,o),
(462,540,c),
(469,564,o),
(486,580,o),
(498,600,c),
(509,614,o),
(515,631,o),
(527,643,c),
(530,649,o),
(532,654,o),
(537,658,c),
(538,672,o),
(549,682,o),
(541,695,c),
(532,706,o),
(512,697,o),
(495,699,c),
(475,699,o),
(453,706,o),
(439,696,c),
(423,665,o),
(407,632,o),
(383,608,c),
(381,598,o),
(374,594,o),
(373,583,c),
(365,575,o),
(358,564,o),
(353,553,cs),
(347,542,o),
(340,532,o),
(335,522,c),
(326,513,o),
(320,502,o),
(315,491,c),
(311,485,o),
(307,482,o),
(305,476,c),
(301,471,o),
(300,463,o),
(291,462,c),
(279,465,o),
(275,478,o),
(271,490,c),
(257,504,o),
(248,522,o),
(237,540,c),
(224,555,o),
(218,577,o),
(204,591,c),
(197,612,o),
(181,625,o),
(173,644,c),
(160,660,o),
(153,683,o),
(139,696,c),
(117,701,o),
(94,694,o),
(69,696,cs),
(58,696,o),
(44,699,o),
(42,690,c),
(35,674,o),
(51,666,o),
(56,656,cs),
(61,644,o),
(68,632,o),
(76,621,c),
(81,608,o),
(91,600,o),
(99,589,cs),
(110,573,o),
(118,557,o),
(129,541,c),
(130,537,o),
(131,535,o),
(131,529,c),
(140,524,o),
(143,513,o),
(150,506,c),
(156,484,o),
(174,477,o),
(179,456,c),
(195,443,o),
(202,423,o),
(214,406,cs),
(218,401,o),
(220,394,o),
(224,389,c),
(230,386,o),
(234,381,o),
(234,372,cs),
(235,359,o),
(226,356,o),
(226,343,c),
(209,326,o),
(201,299,o),
(182,282,c),
(181,273,o),
(177,267,o),
(175,259,c),
(167,252,o),
(162,244,o),
(154,237,c),
(152,227,o),
(145,224,o),
(144,212,c),
(125,192,o),
(114,162,o),
(95,142,c),
(96,135,o),
(92,134,o),
(92,127,c),
(77,107,o),
(64,87,o),
(52,65,c),
(42,54,o),
(28,49,o),
(25,32,c),
(29,11,o),
(50,5,o),
(69,0,c),
(87,5,o),
(105,1,o),
(124,3,c),
(138,14,o),
(148,28,o),
(154,47,c),
(165,56,o),
(170,69,o),
(178,82,cs),
(187,99,l),
(194,111,ls),
(198,119,o),
(203,126,o),
(204,135,c),
(217,152,o),
(228,171,o),
(241,187,c),
(244,198,o),
(253,204,o),
(257,214,c),
(265,222,o),
(268,234,o),
(274,242,c),
(276,249,o),
(277,257,o),
(281,262,c),
(286,266,o),
(286,277,o),
(294,277,c),
(309,258,o),
(325,235,o),
(333,210,c),
(352,187,o),
(364,158,o),
(383,135,c),
(385,129,o),
(388,124,o),
(390,119,c),
(401,105,o),
(410,89,o),
(418,72,c),
(423,66,o),
(430,60,o),
(433,53,cs),
(438,41,o),
(443,32,o),
(448,21,c),
(456,16,o),
(461,8,o),
(470,4,c),
(509,4,l),
(513,5,o),
(517,0,o),
(520,4,c),
(539,5,o),
(562,2,o),
(564,20,cs),
(564,23,o),
(562,23,o),
(562,27,c),
(556,46,o),
(540,56,o),
(535,76,c),
(528,81,o),
(527,89,o),
(521,95,c),
(519,103,o),
(512,106,o),
(509,113,cs),
(505,122,o),
(497,130,o),
(494,137,c),
(482,156,o),
(468,171,o),
(462,194,c),
(443,211,o),
(431,236,o),
(415,258,cs),
(408,268,o),
(401,281,o),
(395,293,c),
(394,294,o),
(392,294,o),
(391,296,cs),
(388,302,o),
(385,310,o),
(381,314,cs),
(378,318,o),
(372,319,o),
(372,325,c),
(364,340,o),
(356,353,o),
(350,368,c),
(355,383,o),
(366,393,o),
(373,404,cs),
(376,408,o),
(377,413,o),
(381,418,c),
(391,436,o),
(405,448,o),
(411,470,c),
(427,484,l)
);
}
);
width = 589;
}
);
unicode = 88;
},
{
glyphname = Y;
kernLeft = Y;
kernRight = Y;
lastChange = "2023-09-12 03:35:45 +0000";
layers = (
{
anchors = (
{
name = bottom;
pos = (302,0);
},
{
name = top;
pos = (302,695);
},
{
name = topleft;
pos = (15,695);
}
);
layerId = "7C3BCDA4-8F92-4DF1-91BA-B714BE37B8B5";
shapes = (
{
closed = 1;
nodes = (
(440,452,o),
(455,474,o),
(464,498,c),
(474,506,o),
(479,519,o),
(487,531,c),
(496,541,o),
(503,553,o),
(508,566,c),
(523,581,o),
(532,600,o),
(542,620,cs),
(547,629,o),
(552,639,o),
(559,647,c),
(563,665,o),
(579,672,o),
(577,696,cs),
(576,702,o),
(571,704,o),
(568,708,c),
(554,709,o),
(541,708,o),
(528,707,c),
(510,711,o),
(488,709,o),
(472,705,c),
(466,693,o),
(455,686,o),
(455,668,c),
(447,659,o),
(440,649,o),
(435,636,c),
(425,629,o),
(420,616,o),
(417,601,c),
(408,591,o),
(397,566,o),
(397,566,c),
(397,566,o),
(363,523,o),
(360,505,c),
(349,495,o),
(347,476,o),
(334,467,c),
(331,453,l),
(320,446,o),
(318,430,o),
(301,430,c),
(293,432,o),
(293,441,o),
(290,447,c),
(279,451,o),
(275,460,o),
(270,470,c),
(263,470,o),
(264,478,o),
(261,481,c),
(259,485,o),
(254,488,o),
(250,493,c),
(252,499,o),
(249,504,o),
(247,508,c),
(241,516,o),
(232,523,o),
(227,533,c),
(225,543,o),
(219,548,o),
(218,560,c),
(211,562,o),
(211,569,o),
(206,571,c),
(199,588,o),
(188,602,o),
(179,616,c),
(176,619,o),
(178,628,o),
(176,630,cs),
(167,639,o),
(159,651,o),
(152,664,c),
(150,670,o),
(146,675,o),
(142,682,c),
(135,685,o),
(136,695,o),
(129,699,c),
(113,705,o),
(85,701,o),
(67,707,c),
(54,702,o),
(33,705,o),
(26,695,c),
(23,687,o),
(26,682,o),
(26,671,c),
(30,660,o),
(41,654,o),
(46,643,c),
(52,621,o),
(69,608,o),
(82,593,c),
(91,578,o),
(99,561,o),
(105,543,c),
(112,536,o),
(118,530,o),
(122,523,c),
(134,494,o),
(154,474,o),
(166,446,c),
(183,427,l),
(183,422,o),
(185,418,o),
(186,412,c),
(200,399,o),
(208,379,o),
(221,364,c),
(227,348,l),
(234,340,o),
(239,333,o),
(243,324,cs),
(247,316,o),
(255,310,o),
(258,300,c),
(258,264,o),
(257,226,o),
(250,190,c),
(252,174,o),
(259,157,o),
(259,140,cs),
(259,134,o),
(257,127,o),
(256,120,cs),
(254,105,o),
(256,91,o),
(256,78,cs),
(256,57,o),
(247,37,o),
(253,17,c),
(256,16,o),
(256,12,o),
(258,10,cs),
(263,4,o),
(274,4,o),
(282,3,cs),
(309,-1,o),
(335,0,o),
(353,12,c),
(358,18,o),
(358,25,o),
(358,35,cs),
(358,43,o),
(354,54,o),
(354,61,c),
(364,86,o),
(355,116,o),
(349,139,c),
(352,151,o),
(354,170,o),
(351,183,c),
(354,192,o),
(349,265,o),
(351,299,c),
(356,312,o),
(364,323,o),
(368,337,cs),
(370,343,o),
(383,358,o),
(385,360,c),
(386,364,o),
(394,375,o),
(395,379,cs),
(396,383,o),
(398,386,o),
(400,389,cs),
(403,396,o),
(404,404,o),
(408,411,cs),
(411,416,o),
(415,419,o),
(418,423,cs),
(424,432,ls)
);
}
);
width = 602;
}
);
unicode = 89;
},
{
glyphname = Z;
kernLeft = Z;
kernRight = Z;
lastChange = "2023-09-12 03:35:45 +0000";
layers = (
{
anchors = (
{
name = bottom;
pos = (282,0);
},
{
name = center;
pos = (282,348);
},
{
name = top;
pos = (282,695);
}
);
layerId = "7C3BCDA4-8F92-4DF1-91BA-B714BE37B8B5";
shapes = (
{
closed = 1;
nodes = (
(243,6,o),
(260,7,o),
(273,8,cs),
(283,8,o),
(292,6,o),
(302,6,cs),
(327,6,o),
(357,11,o),
(377,4,c),
(384,6,o),
(392,10,o),
(400,10,cs),
(408,10,o),
(415,8,o),
(422,8,cs),
(437,8,o),
(453,12,o),
(469,12,cs),
(489,12,o),
(512,5,o),
(524,18,c),
(530,22,o),
(526,35,o),
(528,41,c),
(524,50,o),
(532,67,o),
(525,73,c),
(528,81,o),
(524,86,o),
(522,95,c),
(516,100,o),
(492,94,o),
(481,95,c),
(470,99,o),
(439,92,o),
(430,93,cs),
(420,94,o),
(415,91,o),
(407,91,c),
(393,98,o),
(344,93,o),
(336,91,c),
(327,91,o),
(319,94,o),
(310,95,cs),
(307,95,o),
(304,93,o),
(301,93,cs),
(296,93,o),
(292,95,o),
(289,95,cs),
(272,95,o),
(256,94,o),
(241,91,c),
(236,93,o),
(188,94,o),
(177,95,c),
(170,124,o),
(196,135,o),
(205,154,c),
(212,162,o),
(215,173,o),
(223,180,c),
(225,193,o),
(271,263,o),
(275,272,cs),
(279,281,o),
(284,292,o),
(292,297,c),
(293,306,o),
(298,311,o),
(301,319,c),
(306,325,o),
(323,350,o),
(324,357,c),
(330,365,o),
(343,390,o),
(345,392,cs),
(356,402,o),
(361,417,o),
(371,426,c),
(373,429,o),
(372,436,o),
(374,439,c),
(381,444,o),
(384,455,o),
(391,461,c),
(394,485,o),
(412,496,o),
(417,519,c),
(421,523,o),
(424,529,o),
(429,531,c),
(432,550,o),
(447,558,o),
(450,577,c),
(457,583,o),
(462,593,o),
(469,600,c),
(471,607,o),
(474,614,o),
(478,621,cs),
(484,629,o),
(490,635,o),
(496,643,c),
(498,653,o),
(507,660,o),
(510,670,c),
(512,672,o),
(513,676,o),
(513,676,c),
(515,685,o),
(514,689,o),
(510,696,c),
(500,706,o),
(468,701,o),
(468,701,c),
(468,701,o),
(436,701,o),
(424,700,cs),
(416,700,o),
(408,702,o),
(400,702,cs),
(371,702,o),
(344,700,o),
(315,702,cs),
(308,702,o),
(305,699,o),
(298,699,c),
(273,705,o),
(247,702,o),
(220,702,cs),
(213,702,o),
(206,703,o),
(200,703,cs),
(190,703,o),
(182,700,o),
(171,700,cs),
(154,700,o),
(136,703,o),
(119,703,cs),
(111,703,o),
(102,702,o),
(93,702,cs),
(83,702,o),
(71,707,o),
(61,700,c),
(54,688,o),
(62,671,o),
(60,653,c),
(58,646,o),
(59,623,o),
(61,620,c),
(79,611,o),
(101,616,o),
(121,616,cs),
(135,617,o),
(149,617,o),
(163,616,cs),
(203,615,o),
(242,616,o),
(282,615,c),
(294,620,o),
(309,617,o),
(322,616,cs),
(333,616,o),
(348,621,o),
(354,612,c),
(346,588,o),
(338,566,o),
(322,551,c),
(315,534,o),
(304,523,o),
(298,505,c),
(280,488,o),
(275,458,o),
(257,442,c),
(254,427,o),
(244,419,o),
(241,404,c),
(225,387,o),
(217,363,o),
(202,343,cs),
(189,322,o),
(180,299,o),
(163,282,c),
(162,271,o),
(156,265,o),
(150,259,c),
(146,240,o),
(133,228,o),
(127,212,c),
(125,202,o),
(116,198,o),
(113,190,cs),
(109,178,o),
(99,170,o),
(93,159,cs),
(86,147,o),
(83,134,o),
(75,123,cs),
(66,108,o),
(57,93,o),
(44,82,c),
(44,68,o),
(32,65,o),
(32,50,c),
(27,41,o),
(21,33,o),
(20,20,c),
(24,8,o),
(35,5,o),
(46,1,c),
(60,5,o),
(71,2,o),
(84,6,c),
(131,8,o),
(164,5,o),
(212,6,c),
(229,10,l)
);
}
);
width = 578;
}
);
unicode = 90;
},
{
glyphname = a;
kernLeft = a;
kernRight = n;
lastChange = "2023-09-12 03:35:45 +0000";
layers = (
{
anchors = (
{
name = bottom;
pos = (265,0);
},
{
name = ogonek;
pos = (426,10);
},
{
name = top;
pos = (265,455);
}
);
layerId = "7C3BCDA4-8F92-4DF1-91BA-B714BE37B8B5";
shapes = (
{
closed = 1;
nodes = (
(483,278,o),
(487,311,o),
(481,336,c),
(488,371,o),
(490,419,o),
(475,446,c),
(452,451,o),
(418,453,o),
(400,441,c),
(394,426,o),
(404,395,o),
(391,388,c),
(375,393,o),
(369,408,o),
(359,420,c),
(345,428,o),
(329,440,o),
(313,445,cs),
(296,449,l),
(287,454,l),
(269,457,o),
(250,453,o),
(231,454,cs),
(225,454,o),
(219,455,o),
(214,455,cs),
(205,455,o),
(192,449,o),
(186,448,cs),
(174,446,ls),
(161,443,o),
(151,435,o),
(139,434,c),
(127,424,o),
(117,414,o),
(104,406,c),
(99,399,o),
(92,392,o),
(86,385,cs),
(80,376,o),
(75,368,o),
(69,361,c),
(67,351,o),
(64,342,o),
(57,336,c),
(56,324,o),
(50,318,o),
(47,307,cs),
(43,293,o),
(47,271,o),
(39,261,c),
(43,246,o),
(38,229,o),
(35,216,c),
(41,194,o),
(39,162,o),
(43,139,c),
(50,128,o),
(56,119,o),
(57,102,c),
(67,95,o),
(72,85,o),
(75,72,c),
(84,67,o),
(88,59,o),
(92,51,c),
(100,47,o),
(106,42,o),
(109,34,c),
(119,32,o),
(124,25,o),
(130,20,c),
(140,18,o),
(146,13,o),
(153,7,c),
(163,5,o),
(173,2,o),
(182,-1,c),
(208,-1,o),
(232,-7,o),
(257,-6,cs),
(261,-6,o),
(267,-4,o),
(272,-3,cs),
(294,0,o),
(308,2,o),
(326,7,c),
(333,13,o),
(340,17,o),
(351,19,c),
(356,29,o),
(366,33,o),
(373,40,cs),
(382,47,o),
(385,58,o),
(396,60,c),
(404,55,o),
(400,43,o),
(400,32,cs),
(400,19,o),
(400,10,o),
(408,3,c),
(421,5,o),
(426,4,o),
(440,3,c),
(456,12,o),
(474,18,o),
(484,32,c),
(487,55,o),
(482,88,o),
(487,112,c),
(479,130,o),
(487,153,o),
(487,173,cs),
(487,192,o),
(480,211,o),
(484,229,c),
(481,249,l)
);
},
{
closed = 1;
nodes = (
(399,282,o),
(403,269,o),
(403,252,c),
(405,253,o),
(405,252,o),
(405,251,cs),
(406,196,o),
(404,144,o),
(371,124,c),
(367,119,o),
(364,111,o),
(359,106,c),
(352,102,o),
(345,99,o),
(339,92,c),
(333,91,o),
(328,89,o),
(323,86,c),
(317,85,o),
(310,87,o),
(306,84,c),
(298,85,o),
(297,77,o),
(289,77,cs),
(282,76,o),
(278,74,o),
(269,74,cs),
(257,73,o),
(253,81,o),
(241,78,c),
(232,81,o),
(225,85,o),
(213,84,c),
(200,91,o),
(189,98,o),
(179,107,c),
(171,118,o),
(157,123,o),
(147,133,c),
(144,143,o),
(138,151,o),
(139,165,c),
(127,193,l),
(128,204,o),
(126,211,o),
(124,219,c),
(125,234,o),
(129,246,o),
(129,263,c),
(134,272,o),
(137,283,o),
(141,295,cs),
(144,304,o),
(152,312,o),
(154,323,c),
(169,331,o),
(177,342,o),
(189,353,c),
(201,358,o),
(213,366,o),
(228,370,c),
(243,371,o),
(254,375,o),
(271,374,cs),
(287,374,o),
(297,368,o),
(313,368,c),
(319,363,o),
(330,359,o),
(338,356,c),
(351,347,o),
(361,335,o),
(374,326,c),
(376,320,o),
(382,316,o),
(385,312,cs),
(388,306,o),
(390,301,o),
(394,296,c)
);
}
);
width = 537;
}
);
unicode = 97;
},
{
glyphname = ae;
kernLeft = a;
kernRight = e;
lastChange = "2023-09-12 03:35:45 +0000";
layers = (
{
anchors = (
{
name = bottom;
pos = (408,0);
},
{
name = top;
pos = (408,455);
}
);
layerId = "7C3BCDA4-8F92-4DF1-91BA-B714BE37B8B5";
shapes = (
{
closed = 1;
nodes = (
(417,411,l),
(413,407,o),
(407,399,o),
(400,403,c),
(402,420,o),
(402,437,o),
(396,451,c),
(353,455,o),
(307,448,o),
(263,448,cs),
(252,448,o),
(242,452,o),
(231,452,cs),
(209,452,o),
(186,449,o),
(164,451,cs),
(154,451,o),
(142,455,o),
(134,446,cs),
(128,437,o),
(133,419,o),
(133,403,c),
(131,391,o),
(128,379,o),
(134,371,c),
(148,364,o),
(169,372,o),
(188,370,cs),
(195,370,o),
(196,374,o),
(205,373,cs),
(228,372,o),
(248,369,o),
(275,373,c),
(292,370,l),
(299,371,o),
(306,378,o),
(316,373,c),
(320,366,o),
(318,354,o),
(318,343,cs),
(318,331,o),
(320,319,o),
(318,310,c),
(323,292,o),
(319,273,o),
(319,257,cs),
(319,233,o),
(321,211,o),
(319,190,cs),
(319,178,o),
(317,166,o),
(318,155,c),
(316,141,o),
(311,131,o),
(306,123,cs),
(304,119,o),
(303,112,o),
(301,109,cs),
(299,106,o),
(294,104,o),
(292,101,c),
(289,100,o),
(289,95,o),
(288,94,cs),
(284,89,o),
(280,89,o),
(276,86,c),
(276,85,o),
(276,83,o),
(275,83,c),
(273,82,o),
(271,82,o),
(269,81,cs),
(260,74,o),
(251,71,o),
(240,68,cs),
(220,63,l),
(154,59,o),
(120,89,o),
(106,139,c),
(104,155,o),
(107,166,o),
(110,178,c),
(120,192,o),
(129,205,o),
(142,214,c),
(155,217,o),
(160,227,o),
(173,229,cs),
(194,230,o),
(222,223,o),
(234,234,c),
(239,245,o),
(231,257,o),
(231,268,cs),
(231,280,o),
(235,292,o),
(231,303,c),
(217,313,o),
(193,306,o),
(170,308,c),
(146,303,o),
(126,296,o),
(106,289,c),
(101,284,o),
(94,282,o),
(89,278,cs),
(84,275,o),
(78,268,o),
(72,266,c),
(69,260,o),
(64,254,o),
(57,251,c),
(52,240,o),
(47,229,o),
(39,219,c),
(38,206,o),
(31,193,o),
(29,178,cs),
(27,162,o),
(29,145,o),
(25,129,c),
(31,118,o),
(33,103,o),
(34,87,c),
(40,77,o),
(46,67,o),
(49,54,c),
(57,49,o),
(64,42,o),
(72,37,c),
(78,23,o),
(92,16,o),
(103,5,c),
(109,4,o),
(116,1,o),
(121,-3,c),
(139,-5,o),
(152,-13,o),
(171,-15,c),
(205,-15,o),
(234,-12,o),
(263,-7,cs),
(270,-5,o),
(275,0,o),
(283,2,cs),
(290,4,o),
(295,11,o),
(303,13,c),
(321,32,o),
(346,46,o),
(358,71,cs),
(361,76,o),
(360,85,o),
(370,84,cs),
(377,84,o),
(377,75,o),
(379,71,c),
(383,66,o),
(389,63,o),
(391,57,c),
(398,47,o),
(409,41,o),
(414,31,c),
(425,25,o),
(434,19,o),
(442,13,cs),
(452,7,o),
(461,2,o),
(470,-4,c),
(484,-6,o),
(499,-8,o),
(512,-13,c),
(549,-11,o),
(584,-6,o),
(622,-4,c),
(632,0,o),
(639,4,o),
(654,4,c),
(663,11,o),
(674,15,o),
(686,19,c),
(693,27,o),
(702,34,o),
(712,39,c),
(734,68,ls),
(743,80,o),
(756,89,o),
(762,101,cs),
(766,107,o),
(769,111,o),
(769,118,c),
(770,121,o),
(769,125,o),
(769,129,c),
(764,139,o),
(754,141,o),
(742,144,c),
(738,149,o),
(731,152,o),
(726,155,c),
(720,157,o),
(714,162,o),
(706,161,cs),
(702,161,o),
(699,157,o),
(697,155,cs),
(690,145,o),
(684,136,o),
(678,126,c),
(668,116,o),
(656,106,o),
(643,98,c),
(637,93,o),
(628,91,o),
(620,87,c),
(616,80,o),
(604,81,o),
(597,75,c),
(571,72,o),
(548,73,o),
(520,74,c),
(501,80,o),
(484,87,o),
(469,94,c),
(456,106,o),
(442,117,o),
(429,127,c),
(420,145,o),
(408,161,o),
(402,182,c),
(403,195,o),
(394,206,o),
(402,213,c),
(424,211,o),
(447,211,o),
(466,211,cs),
(482,211,o),
(499,208,o),
(512,208,cs),
(517,208,o),
(522,210,o),
(527,210,cs),
(536,209,o),
(547,208,o),
(557,208,cs),
(568,208,o),
(579,209,o),
(590,210,cs),
(605,210,o),
(621,206,o),
(635,206,cs),
(650,207,o),
(665,212,o),
(678,213,cs),
(684,213,o),
(688,211,o),
(692,211,cs),
(702,211,o),
(710,212,o),
(718,213,cs),
(741,214,o),
(759,205,o),
(777,217,c),
(781,239,o),
(774,270,o),
(774,288,c),
(767,300,o),
(764,316,o),
(759,330,cs),
(755,345,o),
(745,354,o),
(741,368,c),
(729,379,o),
(722,394,o),
(709,405,cs),
(703,411,o),
(695,419,o),
(689,422,c),
(687,422,o),
(684,427,o),
(683,428,cs),
(679,431,o),
(676,436,o),
(672,437,c),
(656,444,o),
(641,453,o),
(623,458,cs),
(613,461,o),
(598,459,o),
(588,463,c),
(578,459,o),
(561,460,o),
(547,458,c),
(537,460,o),
(532,466,o),
(520,465,cs),
(498,462,o),
(484,452,o),
(465,446,c),
(434,423,l)
);
},
{
closed = 1;
nodes = (
(685,281,o),
(674,282,o),
(664,281,cs),
(648,280,o),
(633,281,o),
(617,281,cs),
(601,282,o),
(585,280,o),
(568,280,cs),
(562,280,o),
(555,281,o),
(548,281,cs),
(531,281,o),
(514,278,o),
(497,278,cs),
(481,278,o),
(464,281,o),
(448,281,cs),
(434,282,o),
(419,278,o),
(406,286,c),
(407,305,o),
(421,311,o),
(426,324,c),
(440,334,o),
(449,347,o),
(460,358,c),
(485,371,o),
(523,386,o),
(560,383,cs),
(572,383,o),
(583,377,o),
(596,376,c),
(605,374,o),
(612,369,o),
(620,365,c),
(626,360,o),
(634,360,o),
(640,356,c),
(641,356,o),
(641,353,o),
(642,353,c),
(644,352,o),
(650,351,o),
(652,348,cs),
(653,347,o),
(653,343,o),
(655,341,cs),
(667,332,l),
(668,330,o),
(668,328,o),
(669,326,c),
(675,319,o),
(684,307,o),
(687,295,c),
(687,289,l)
);
}
);
width = 815;
}
);
unicode = 230;
},
{
glyphname = b;
kernLeft = h;
kernRight = o;
lastChange = "2023-09-12 03:35:45 +0000";
layers = (
{
anchors = (
{
name = bottom;
pos = (265,0);
},
{
name = center;
pos = (265,228);
},
{
name = top;
pos = (265,455);
}
);
layerId = "7C3BCDA4-8F92-4DF1-91BA-B714BE37B8B5";
shapes = (
{
closed = 1;
nodes = (
(412,17,o),
(420,31,o),
(435,35,c),
(439,42,o),
(446,48,o),
(450,53,cs),
(455,59,o),
(459,67,o),
(464,73,c),
(471,88,o),
(479,103,o),
(489,116,c),
(487,125,o),
(493,128,o),
(494,135,cs),
(494,145,o),
(497,153,o),
(496,163,c),
(499,164,o),
(496,165,o),
(496,169,cs),
(496,186,o),
(495,204,o),
(494,220,cs),
(494,239,o),
(495,258,o),
(493,276,cs),
(492,288,o),
(485,305,o),
(482,314,cs),
(480,321,o),
(478,330,o),
(473,336,c),
(472,340,o),
(468,343,o),
(466,348,c),
(464,350,o),
(464,352,o),
(462,354,c),
(454,366,ls),
(449,373,o),
(446,377,o),
(443,384,c),
(440,386,o),
(435,388,o),
(435,392,c),
(431,394,o),
(429,398,o),
(426,401,cs),
(423,404,o),
(417,406,o),
(414,409,cs),
(407,414,o),
(400,423,o),
(392,427,cs),
(378,436,o),
(359,437,o),
(347,449,c),
(334,448,o),
(325,455,o),
(313,456,cs),
(305,457,o),
(303,451,o),
(293,451,cs),
(271,452,o),
(257,445,o),
(235,446,c),
(223,441,o),
(211,436,o),
(197,432,c),
(189,423,o),
(179,417,o),
(170,409,c),
(159,403,o),
(155,390,o),
(140,389,c),
(132,399,o),
(136,408,o),
(136,418,cs),
(136,421,o),
(134,425,o),
(135,429,c),
(135,443,o),
(137,458,o),
(139,473,cs),
(139,480,o),
(136,488,o),
(136,496,cs),
(136,534,o),
(137,577,o),
(136,610,cs),
(136,638,o),
(135,666,o),
(136,693,cs),
(137,718,o),
(139,741,o),
(142,760,c),
(136,773,o),
(139,784,o),
(136,797,c),
(130,801,o),
(122,805,o),
(111,806,cs),
(104,806,o),
(95,801,o),
(88,801,cs),
(73,801,o),
(56,809,o),
(46,798,c),
(43,785,o),
(46,774,o),
(48,760,c),
(47,670,o),
(51,579,o),
(52,490,cs),
(52,443,o),
(47,399,o),
(53,356,c),
(46,338,o),
(48,320,o),
(49,299,cs),
(52,266,o),
(55,231,o),
(55,198,cs),
(55,192,o),
(53,187,o),
(53,180,cs),
(53,175,o),
(55,167,o),
(55,162,cs),
(55,146,o),
(49,131,o),
(56,120,c),
(51,94,o),
(56,69,o),
(55,38,c),
(51,22,o),
(49,3,o),
(60,-7,c),
(82,-11,o),
(113,-7,o),
(133,-7,c),
(137,-2,o),
(143,4,o),
(142,15,cs),
(142,27,o),
(139,32,o),
(143,40,c),
(152,40,o),
(152,32,o),
(159,30,c),
(161,24,o),
(167,22,o),
(171,18,c),
(181,11,o),
(190,3,o),
(202,-2,c),
(221,-6,o),
(241,-12,o),
(261,-15,c),
(281,-10,o),
(298,-12,o),
(317,-14,cs),
(336,-14,o),
(347,-6,o),
(365,-5,c),
(370,-1,o),
(375,1,o),
(380,3,cs),
(399,10,l)
);
},
{
closed = 1;
nodes = (
(404,269,o),
(406,244,c),
(407,244,o),
(407,243,o),
(407,242,cs),
(406,224,o),
(409,207,o),
(407,192,cs),
(406,180,o),
(399,170,o),
(400,159,c),
(393,146,o),
(388,133,o),
(382,119,c),
(374,109,o),
(365,100,o),
(356,91,c),
(330,85,o),
(309,70,o),
(278,68,cs),
(267,68,o),
(256,70,o),
(241,70,cs),
(233,71,o),
(229,78,o),
(217,76,c),
(207,88,o),
(194,94,o),
(178,100,c),
(165,116,o),
(155,135,o),
(143,152,c),
(141,162,o),
(139,174,o),
(135,183,c),
(137,193,o),
(134,201,o),
(135,210,cs),
(135,216,o),
(137,222,o),
(139,227,c),
(139,234,o),
(134,241,o),
(136,249,c),
(141,261,o),
(144,275,o),
(147,288,c),
(155,301,o),
(167,311,o),
(174,325,c),
(192,336,o),
(207,350,o),
(227,359,c),
(238,358,o),
(247,360,o),
(253,364,c),
(270,364,o),
(292,361,o),
(313,360,c),
(333,349,o),
(352,335,o),
(371,322,c),
(374,316,o),
(378,311,o),
(383,305,c),
(389,283,o)
);
}
);
width = 532;
}
);
unicode = 98;
},
{
glyphname = c;
kernLeft = o;
kernRight = c;
lastChange = "2023-09-12 03:35:45 +0000";
layers = (
{
anchors = (
{
name = bottom;
pos = (214,0);
},
{
name = top;
pos = (214,455);
}
);
layerId = "7C3BCDA4-8F92-4DF1-91BA-B714BE37B8B5";
shapes = (
{
closed = 1;
nodes = (
(40,161,o),
(41,159,o),
(41,155,c),
(44,148,o),
(44,142,o),
(47,135,cs),
(49,128,o),
(54,123,o),
(55,116,cs),
(61,92,o),
(78,81,o),
(88,61,c),
(101,56,o),
(107,46,o),
(115,35,c),
(130,23,o),
(148,16,o),
(160,3,c),
(192,-2,ls),
(193,-2,o),
(195,-5,o),
(198,-5,c),
(200,-6,o),
(204,-4,o),
(207,-5,cs),
(212,-6,o),
(218,-10,o),
(222,-11,c),
(236,-10,o),
(244,-13,o),
(257,-12,c),
(274,-8,o),
(286,-10,o),
(306,-8,c),
(323,-4,o),
(344,-4,o),
(361,0,c),
(368,3,o),
(373,10,o),
(380,15,c),
(383,22,o),
(393,24,o),
(395,35,c),
(394,43,o),
(396,55,o),
(393,61,c),
(389,85,o),
(398,111,o),
(384,125,c),
(369,124,o),
(365,112,o),
(355,105,cs),
(340,92,o),
(319,85,o),
(296,80,c),
(280,81,o),
(266,78,o),
(254,76,c),
(246,80,o),
(239,83,o),
(227,82,c),
(220,86,o),
(211,90,o),
(201,91,c),
(187,103,o),
(170,111,o),
(157,123,c),
(143,149,o),
(128,173,o),
(120,206,c),
(120,240,o),
(131,263,o),
(139,288,c),
(143,295,o),
(149,299,o),
(151,307,c),
(161,316,o),
(170,328,o),
(181,336,c),
(185,341,o),
(192,343,o),
(198,348,c),
(205,350,o),
(207,357,o),
(216,359,cs),
(261,369,l),
(272,366,o),
(280,365,o),
(293,366,c),
(301,363,o),
(309,356,o),
(323,357,c),
(332,350,o),
(346,347,o),
(354,339,c),
(367,335,o),
(369,319,o),
(387,320,c),
(396,329,o),
(392,341,o),
(392,352,c),
(389,374,o),
(389,396,o),
(392,416,c),
(389,417,o),
(389,419,o),
(389,421,c),
(383,431,o),
(370,438,o),
(355,441,c),
(346,448,o),
(328,448,o),
(316,455,c),
(277,459,o),
(252,448,o),
(210,453,c),
(201,449,o),
(192,446,o),
(181,444,c),
(173,437,o),
(161,434,o),
(151,429,c),
(141,419,o),
(129,411,o),
(115,406,c),
(105,393,o),
(93,384,o),
(84,371,cs),
(80,364,o),
(74,358,o),
(68,352,c),
(66,343,o),
(62,337,o),
(55,332,c),
(53,323,o),
(52,314,o),
(47,307,cs),
(43,300,o),
(42,289,o),
(39,281,c),
(37,257,o),
(34,236,o),
(35,210,cs),
(35,201,o),
(37,191,o),
(39,183,c),
(39,163,l)
);
}
);
width = 425;
}
);
unicode = 99;
},
{
glyphname = d;
kernLeft = o;
kernRight = l;
lastChange = "2023-09-12 03:35:45 +0000";
layers = (
{
anchors = (
{
name = bottom;
pos = (274,0);
},
{
name = center;
pos = (274,228);
},
{
name = top;
pos = (274,750);
},
{
name = topright;
pos = (525,750);
}
);
layerId = "7C3BCDA4-8F92-4DF1-91BA-B714BE37B8B5";
shapes = (
{
closed = 1;
nodes = (
(483,50,o),
(485,53,o),
(484,55,c),
(484,55,o),
(483,57,o),
(483,60,cs),
(479,89,o),
(485,119,o),
(480,143,c),
(482,147,o),
(482,154,o),
(483,159,c),
(479,204,o),
(484,251,o),
(481,293,cs),
(480,316,o),
(483,349,o),
(483,372,cs),
(482,457,o),
(483,551,o),
(481,632,cs),
(481,634,o),
(483,635,o),
(483,636,cs),
(483,641,o),
(482,653,o),
(481,659,c),
(481,707,ls),
(481,724,o),
(479,741,o),
(480,758,cs),
(480,774,o),
(484,789,o),
(478,803,c),
(462,816,o),
(440,806,o),
(420,810,c),
(412,806,o),
(397,808,o),
(391,801,c),
(384,776,o),
(393,746,o),
(394,717,cs),
(395,701,o),
(394,685,o),
(394,668,cs),
(394,648,ls),
(394,640,o),
(395,632,o),
(393,624,c),
(397,604,o),
(394,583,o),
(393,561,c),
(394,553,o),
(397,547,o),
(397,537,c),
(394,516,l),
(396,478,o),
(396,442,o),
(397,403,cs),
(397,394,o),
(398,386,o),
(393,383,c),
(385,385,o),
(379,390,o),
(374,395,c),
(371,403,o),
(362,406,o),
(358,412,c),
(343,422,o),
(327,430,o),
(315,441,c),
(307,442,o),
(301,444,o),
(295,446,cs),
(287,449,o),
(284,453,o),
(275,455,c),
(270,455,o),
(264,453,o),
(255,453,cs),
(248,453,o),
(240,456,o),
(232,455,cs),
(218,452,o),
(203,449,o),
(189,447,c),
(173,442,o),
(159,434,o),
(141,429,c),
(123,413,o),
(104,401,o),
(87,384,c),
(84,376,o),
(79,371,o),
(75,364,c),
(74,354,o),
(64,353,o),
(62,343,c),
(59,337,o),
(56,330,o),
(55,320,c),
(49,315,o),
(46,305,o),
(42,297,c),
(42,280,o),
(38,261,o),
(37,242,cs),
(36,232,o),
(37,220,o),
(37,210,cs),
(36,199,o),
(35,189,o),
(35,178,c),
(37,163,o),
(42,148,o),
(43,134,c),
(55,111,o),
(64,88,o),
(75,67,c),
(89,55,o),
(99,41,o),
(109,27,c),
(125,20,o),
(139,12,o),
(152,3,c),
(161,2,o),
(168,-1,o),
(176,-5,c),
(192,-6,o),
(208,-11,o),
(226,-12,cs),
(253,-14,o),
(279,-12,o),
(301,-8,cs),
(314,-6,o),
(325,-4,o),
(336,-3,c),
(337,-1,o),
(340,0,o),
(344,0,c),
(354,8,o),
(361,18,o),
(373,24,c),
(374,32,o),
(379,35,o),
(382,40,cs),
(386,46,o),
(397,52,o),
(397,52,c),
(397,52,o),
(396,19,o),
(396,3,c),
(406,-6,o),
(424,-11,o),
(440,-5,c),
(455,-10,o),
(470,-5,o),
(481,0,c),
(487,7,o),
(487,18,o),
(486,24,cs),
(483,50,l)
);
},
{
closed = 1;
nodes = (
(139,151,o),
(132,157,o),
(130,165,cs),
(127,184,o),
(125,208,o),
(125,233,c),
(129,245,o),
(131,258,o),
(133,269,c),
(137,280,o),
(141,289,o),
(145,299,c),
(155,308,o),
(164,317,o),
(170,329,c),
(184,337,o),
(195,347,o),
(208,356,c),
(214,357,o),
(221,359,o),
(226,364,c),
(238,364,o),
(250,365,o),
(257,369,c),
(267,365,o),
(282,367,o),
(292,364,c),
(303,363,o),
(309,355,o),
(321,354,c),
(328,349,o),
(335,342,o),
(344,339,c),
(353,329,o),
(361,318,o),
(373,311,c),
(376,305,o),
(376,297,o),
(379,293,c),
(394,279,o),
(397,252,o),
(399,227,cs),
(402,201,o),
(401,172,o),
(391,151,cs),
(388,143,o),
(384,138,o),
(379,131,cs),
(375,125,o),
(371,120,o),
(368,113,c),
(359,106,o),
(350,100,o),
(342,90,c),
(335,89,o),
(329,86,o),
(324,82,c),
(321,76,o),
(310,78,o),
(307,73,c),
(289,71,o),
(270,69,o),
(249,70,cs),
(237,71,o),
(228,77,o),
(217,80,cs),
(211,82,o),
(204,82,o),
(199,84,c),
(198,84,o),
(194,86,o),
(193,87,c),
(177,94,o),
(166,111,o),
(152,122,c),
(142,143,ls)
);
}
);
width = 531;
}
);
unicode = 100;
},
{
glyphname = eth;
kernLeft = eth;
kernRight = eth;
lastChange = "2023-09-12 03:35:45 +0000";
layers = (
{
layerId = "7C3BCDA4-8F92-4DF1-91BA-B714BE37B8B5";
shapes = (
{
closed = 1;
nodes = (
(346,499,l),
(343,507,o),
(339,512,o),
(335,517,c),
(329,529,o),
(320,540,o),
(315,554,c),
(302,565,o),
(292,579,o),
(287,599,c),
(280,604,o),
(276,614,o),
(268,619,c),
(267,625,o),
(264,630,o),
(263,636,c),
(250,644,o),
(246,661,o),
(235,673,c),
(229,675,o),
(223,679,o),
(216,683,c),
(201,681,o),
(190,675,o),
(183,665,c),
(170,661,o),
(160,655,o),
(155,644,c),
(155,634,o),
(160,628,o),
(164,622,cs),
(166,618,o),
(165,612,o),
(169,610,c),
(170,602,o),
(176,601,o),
(181,598,c),
(183,587,o),
(188,581,o),
(193,576,c),
(196,567,o),
(201,562,o),
(205,554,c),
(205,548,o),
(211,548,o),
(212,544,c),
(214,541,o),
(214,535,o),
(218,534,c),
(223,527,o),
(227,520,o),
(233,515,c),
(237,504,o),
(244,494,o),
(251,485,c),
(254,475,o),
(262,469,o),
(265,459,c),
(277,451,o),
(284,439,o),
(288,424,c),
(281,419,o),
(277,428,o),
(268,427,c),
(218,427,l),
(206,424,o),
(195,420,o),
(178,421,c),
(157,410,o),
(136,400,o),
(118,387,c),
(105,374,o),
(94,358,o),
(80,347,c),
(77,335,o),
(70,329,o),
(65,320,c),
(57,295,o),
(49,270,o),
(42,243,c),
(42,195,l),
(48,169,o),
(53,144,o),
(59,120,c),
(64,116,o),
(67,110,o),
(68,103,c),
(78,92,o),
(88,82,o),
(93,66,c),
(105,53,o),
(119,43,o),
(134,33,c),
(137,30,o),
(139,27,o),
(143,24,cs),
(154,18,o),
(167,14,o),
(178,4,c),
(192,2,o),
(204,-1,o),
(213,-7,c),
(225,-6,o),
(231,-10,o),
(239,-13,c),
(257,-12,o),
(278,-15,o),
(290,-7,c),
(297,-6,o),
(299,-10,o),
(305,-10,c),
(331,-4,o),
(349,8,o),
(374,13,c),
(379,17,o),
(384,22,o),
(393,22,c),
(409,38,o),
(426,52,o),
(442,66,c),
(442,80,l),
(445,86,o),
(455,86,o),
(459,91,c),
(462,102,o),
(464,112,o),
(471,120,c),
(470,126,o),
(469,133,o),
(469,141,c),
(473,155,o),
(482,161,o),
(485,175,c),
(485,181,o),
(482,184,o),
(482,192,cs),
(484,208,o),
(489,226,o),
(488,245,cs),
(485,285,o),
(462,315,o),
(451,347,c),
(442,355,o),
(438,368,o),
(429,377,c),
(422,387,o),
(417,398,o),
(407,405,c),
(405,412,o),
(402,419,o),
(399,425,c),
(391,427,o),
(394,438,o),
(389,442,c),
(389,447,o),
(384,448,o),
(381,451,cs),
(373,461,o),
(366,472,o),
(360,483,c)
);
},
{
closed = 1;
nodes = (
(169,302,l),
(175,310,o),
(182,317,o),
(189,325,c),
(200,328,o),
(206,335,o),
(216,338,c),
(231,340,o),
(246,341,o),
(259,346,c),
(271,343,o),
(278,345,o),
(292,346,c),
(307,340,o),
(322,337,o),
(335,330,cs),
(349,323,o),
(356,312,o),
(369,305,c),
(374,296,o),
(382,288,o),
(389,280,c),
(390,269,o),
(394,262,o),
(399,254,c),
(398,245,o),
(403,241,o),
(404,233,c),
(403,218,o),
(405,211,o),
(404,198,c),
(405,198,o),
(406,197,o),
(404,196,c),
(405,189,o),
(401,186,o),
(402,178,c),
(393,167,o),
(389,152,o),
(377,144,c),
(378,139,o),
(376,137,o),
(375,133,c),
(368,127,o),
(361,121,o),
(357,112,c),
(347,107,o),
(338,100,o),
(329,93,c),
(310,90,o),
(299,78,o),
(280,74,c),
(261,81,o),
(236,82,o),
(216,88,c),
(208,93,o),
(199,101,o),
(189,105,c),
(180,114,o),
(171,123,o),
(161,131,c),
(157,145,o),
(147,155,o),
(140,166,c),
(141,173,o),
(144,176,o),
(143,181,cs),
(142,186,o),
(137,188,o),
(135,192,cs),
(125,208,o),
(134,220,o),
(134,243,c),
(139,255,o),
(144,267,o),
(148,280,c)
);
}
);
width = 520;
}
);
unicode = 240;
},
{
glyphname = e;
kernLeft = o;
kernRight = e;
lastChange = "2023-09-12 03:35:45 +0000";
layers = (
{
anchors = (
{
name = bottom;
pos = (240,0);
},
{
name = ogonek;
pos = (283,10);
},
{
name = top;
pos = (240,455);
}
);
layerId = "7C3BCDA4-8F92-4DF1-91BA-B714BE37B8B5";
shapes = (
{
closed = 1;
nodes = (
(36,273,o),
(36,264,o),
(40,253,c),
(39,247,o),
(34,246,o),
(35,237,c),
(35,198,l),
(38,184,o),
(39,169,o),
(41,154,c),
(52,133,o),
(58,104,o),
(70,88,cs),
(73,84,o),
(75,83,o),
(78,80,cs),
(86,73,o),
(90,65,o),
(95,56,c),
(108,49,o),
(117,36,o),
(127,24,c),
(142,15,o),
(162,11,o),
(179,1,c),
(193,1,o),
(207,-3,o),
(220,-3,cs),
(230,-4,o),
(239,-2,o),
(250,-2,cs),
(261,-2,o),
(270,-4,o),
(279,-3,cs),
(292,-3,o),
(303,1,o),
(314,1,c),
(326,7,o),
(341,12,o),
(356,17,c),
(375,29,o),
(393,43,o),
(411,58,c),
(423,83,o),
(451,89,o),
(449,125,c),
(441,133,o),
(432,139,o),
(421,143,c),
(412,151,o),
(404,159,o),
(388,159,c),
(374,131,l),
(357,116,o),
(340,101,o),
(321,87,c),
(309,85,o),
(301,81,o),
(292,76,c),
(274,72,o),
(254,71,o),
(232,72,cs),
(215,74,o),
(203,82,o),
(189,87,c),
(180,94,o),
(172,102,o),
(160,107,c),
(149,123,o),
(135,133,o),
(128,146,cs),
(122,161,o),
(119,176,o),
(124,187,c),
(122,194,o),
(118,201,o),
(122,209,c),
(132,215,o),
(145,211,o),
(157,212,cs),
(189,214,o),
(220,213,o),
(253,215,cs),
(261,215,o),
(265,212,o),
(272,212,cs),
(306,210,o),
(340,217,o),
(372,212,c),
(394,217,o),
(429,214,o),
(455,215,c),
(462,220,o),
(461,234,o),
(461,247,c),
(455,260,o),
(457,281,o),
(455,297,c),
(448,313,o),
(441,328,o),
(438,346,c),
(428,360,o),
(420,372,o),
(409,384,c),
(406,392,o),
(401,401,o),
(397,409,c),
(383,411,o),
(377,423,o),
(368,430,c),
(356,432,o),
(352,432,o),
(340,436,cs),
(334,439,o),
(335,448,o),
(325,449,c),
(309,456,o),
(287,457,o),
(267,461,c),
(250,459,o),
(238,461,o),
(224,458,c),
(212,461,o),
(206,455,o),
(194,458,c),
(182,452,o),
(163,453,o),
(154,444,c),
(139,441,o),
(132,429,o),
(119,426,c),
(113,419,o),
(106,414,o),
(102,407,c),
(93,404,o),
(90,395,o),
(82,391,c),
(76,370,o),
(53,358,o),
(58,332,c),
(50,328,o),
(47,318,o),
(43,307,c),
(38,285,ls)
);
},
{
closed = 1;
nodes = (
(366,296,o),
(368,290,c),
(356,282,o),
(338,282,o),
(321,282,cs),
(305,282,o),
(290,285,o),
(279,281,c),
(266,284,o),
(251,284,o),
(234,284,cs),
(231,284,o),
(227,282,o),
(224,282,cs),
(219,282,o),
(217,284,o),
(214,284,cs),
(206,283,o),
(198,281,o),
(191,281,cs),
(180,280,o),
(170,282,o),
(159,282,cs),
(148,282,o),
(136,280,o),
(127,287,c),
(125,310,o),
(136,318,o),
(140,334,c),
(148,343,o),
(158,349,o),
(163,360,c),
(168,361,o),
(172,366,o),
(175,369,cs),
(180,373,o),
(190,375,o),
(195,381,c),
(211,382,o),
(225,389,o),
(241,389,cs),
(252,389,o),
(264,384,o),
(278,386,c),
(286,382,o),
(296,378,o),
(307,377,c),
(314,372,o),
(321,368,o),
(329,364,c),
(340,352,o),
(351,339,o),
(360,325,c),
(360,314,o),
(367,308,o),
(369,299,cs),
(370,295,o)
);
}
);
width = 491;
}
);
unicode = 101;
},
{
glyphname = f;
lastChange = "2023-09-12 06:49:20 +0000";
layers = (
{
anchors = (
{
name = bottom;
pos = (157,0);
},
{
name = top;
pos = (157,750);
}
);
layerId = "7C3BCDA4-8F92-4DF1-91BA-B714BE37B8B5";
shapes = (
{
closed = 1;
nodes = (
(160,807,o),
(153,808,o),
(149,806,c),
(146,803,o),
(146,799,o),
(142,801,c),
(130,791,o),
(119,777,o),
(106,769,c),
(103,757,o),
(93,748,o),
(89,739,cs),
(83,720,l),
(77,703,l),
(77,694,o),
(75,687,o),
(74,679,c),
(76,658,o),
(73,640,o),
(70,621,c),
(72,616,o),
(74,611,o),
(75,604,c),
(74,601,o),
(71,598,o),
(72,591,cs),
(74,578,o),
(73,562,o),
(74,546,cs),
(74,534,o),
(76,519,o),
(75,511,cs),
(75,507,o),
(73,504,o),
(74,499,c),
(75,479,ls),
(75,474,o),
(73,467,o),
(72,462,cs),
(71,457,o),
(74,449,o),
(68,446,cs),
(60,443,o),
(50,442,o),
(38,443,c),
(27,423,o),
(27,382,o),
(38,360,c),
(45,354,o),
(63,360,o),
(70,354,c),
(76,340,o),
(76,324,o),
(77,311,cs),
(77,305,o),
(75,300,o),
(75,294,cs),
(75,283,o),
(77,272,o),
(77,261,cs),
(77,230,o),
(75,193,o),
(77,159,cs),
(78,118,o),
(77,80,o),
(78,45,c),
(76,33,o),
(71,20,o),
(75,6,c),
(90,-13,o),
(123,3,o),
(150,-3,cs),
(163,-5,o),
(167,2,o),
(173,6,c),
(170,60,o),
(168,124,o),
(168,177,c),
(165,198,l),
(173,250,o),
(163,302,o),
(168,357,c),
(201,360,o),
(238,357,o),
(275,354,c),
(279,359,o),
(287,361,o),
(289,369,cs),
(290,377,o),
(290,387,o),
(292,394,c),
(286,407,o),
(293,435,o),
(284,444,c),
(275,449,o),
(262,445,o),
(249,444,cs),
(235,443,o),
(220,444,o),
(205,444,cs),
(191,444,o),
(178,444,o),
(170,449,c),
(166,459,o),
(166,472,o),
(165,482,cs),
(165,502,ls),
(165,509,o),
(166,518,o),
(167,522,cs),
(167,523,o),
(165,524,o),
(165,525,cs),
(163,576,o),
(166,621,o),
(165,671,c),
(173,689,o),
(177,711,o),
(191,722,c),
(204,721,o),
(211,726,o),
(220,726,cs),
(247,729,o),
(265,720,o),
(286,726,c),
(288,735,o),
(292,740,o),
(292,750,c),
(286,764,o),
(291,790,o),
(287,806,c),
(283,815,o),
(268,816,o),
(259,822,c),
(246,819,o),
(225,819,o),
(212,822,c),
(203,816,o),
(191,816,o),
(180,813,cs),
(165,809,ls)
);
}
);
width = 307;
}
);
unicode = 102;
},
{
glyphname = g;
kernLeft = g;
kernRight = g;
lastChange = "2023-09-12 03:35:46 +0000";
layers = (
{
anchors = (
{
name = bottom;
pos = (281,-250);
},
{
name = top;
pos = (281,455);
}
);
layerId = "7C3BCDA4-8F92-4DF1-91BA-B714BE37B8B5";
shapes = (
{
closed = 1;
nodes = (
(478,-42,o),
(476,-32,o),
(476,-22,cs),
(477,-14,o),
(478,-6,o),
(478,1,cs),
(478,8,o),
(479,22,o),
(478,29,cs),
(476,52,o),
(479,77,o),
(478,102,cs),
(477,136,o),
(478,165,o),
(478,198,cs),
(479,226,o),
(475,254,o),
(476,282,cs),
(478,308,o),
(477,336,o),
(478,363,cs),
(479,389,o),
(479,417,o),
(473,443,c),
(463,451,o),
(448,447,o),
(434,447,cs),
(419,447,o),
(402,451,o),
(393,441,c),
(389,430,o),
(399,406,o),
(388,400,c),
(374,398,o),
(372,408,o),
(365,412,c),
(359,420,o),
(349,422,o),
(345,430,c),
(330,435,o),
(321,445,o),
(308,451,c),
(296,453,o),
(283,451,o),
(273,453,cs),
(265,454,o),
(260,457,o),
(252,458,cs),
(245,458,o),
(238,456,o),
(229,456,cs),
(203,456,l),
(178,449,o),
(157,441,o),
(136,430,c),
(125,420,o),
(114,410,o),
(101,401,c),
(97,390,o),
(88,385,o),
(84,374,c),
(76,369,o),
(69,365,o),
(63,359,c),
(55,333,o),
(41,314,o),
(38,284,cs),
(36,251,o),
(34,230,o),
(35,194,c),
(38,182,o),
(39,171,o),
(38,157,c),
(63,95,l),
(68,88,o),
(74,81,o),
(81,73,c),
(84,63,o),
(93,59,o),
(98,50,c),
(107,45,o),
(116,36,o),
(125,30,cs),
(142,21,l),
(157,12,l),
(175,11,o),
(183,0,o),
(203,1,c),
(209,-2,o),
(217,-2,o),
(226,-3,cs),
(247,-7,o),
(266,-6,o),
(289,-5,cs),
(297,-5,o),
(295,3,o),
(303,1,c),
(319,5,l),
(334,16,o),
(347,28,o),
(365,35,c),
(368,40,o),
(372,45,o),
(376,50,c),
(382,52,o),
(385,63,o),
(391,58,c),
(394,54,o),
(393,49,o),
(393,43,cs),
(393,30,ls),
(393,1,o),
(394,-34,o),
(393,-67,cs),
(392,-83,o),
(395,-98,o),
(390,-110,c),
(369,-121,o),
(345,-117,o),
(319,-118,cs),
(263,-118,ls),
(243,-117,o),
(223,-116,o),
(203,-116,cs),
(182,-116,o),
(162,-118,o),
(142,-118,cs),
(122,-117,o),
(104,-113,o),
(86,-116,c),
(80,-126,o),
(84,-139,o),
(84,-153,cs),
(84,-163,o),
(80,-175,o),
(84,-184,c),
(96,-196,o),
(117,-191,o),
(134,-191,cs),
(145,-191,o),
(156,-193,o),
(168,-193,cs),
(176,-192,o),
(185,-191,o),
(193,-191,cs),
(341,-191,ls),
(389,-191,o),
(427,-193,o),
(469,-191,c),
(478,-181,o),
(480,-174,o),
(478,-159,cs),
(477,-146,o),
(478,-136,o),
(478,-124,cs),
(478,-52,ls)
);
},
{
closed = 1;
nodes = (
(134,278,o),
(134,283,o),
(136,287,c),
(137,292,o),
(141,295,o),
(142,299,cs),
(144,303,o),
(144,308,o),
(145,313,c),
(146,314,o),
(149,314,o),
(150,316,cs),
(152,320,o),
(158,329,o),
(162,334,cs),
(163,335,o),
(167,334,o),
(168,336,cs),
(169,337,o),
(169,338,o),
(169,339,c),
(171,341,o),
(173,343,o),
(174,346,c),
(186,350,o),
(192,357,o),
(203,363,c),
(230,368,o),
(259,377,o),
(289,372,cs),
(309,369,o),
(322,357,o),
(341,352,c),
(355,339,o),
(367,323,o),
(380,308,c),
(382,299,o),
(385,290,o),
(390,284,c),
(389,276,o),
(392,271,o),
(393,264,c),
(394,264,o),
(394,263,o),
(394,262,cs),
(394,245,o),
(395,229,o),
(394,214,cs),
(394,199,o),
(389,186,o),
(390,172,c),
(383,163,o),
(383,153,o),
(377,143,cs),
(375,139,o),
(370,134,o),
(366,128,cs),
(358,118,o),
(350,110,o),
(339,100,c),
(328,95,o),
(319,88,o),
(306,85,c),
(296,80,o),
(281,80,o),
(271,73,c),
(264,73,o),
(258,76,o),
(251,73,c),
(235,77,o),
(220,81,o),
(206,87,cs),
(191,92,o),
(180,103,o),
(168,110,c),
(162,122,o),
(153,130,o),
(145,140,c),
(142,153,o),
(138,165,o),
(130,175,c),
(132,186,o),
(128,191,o),
(125,197,c),
(129,219,o),
(123,241,o),
(127,261,c),
(133,273,l)
);
}
);
width = 524;
}
);
unicode = 103;
},
{
glyphname = h;
kernLeft = h;
kernRight = n;
lastChange = "2023-09-12 03:35:46 +0000";
layers = (
{
anchors = (
{
name = bottom;
pos = (237,0);
},
{
name = center;
pos = (237,375);
},
{
name = top;
pos = (95,810);
}
);
layerId = "7C3BCDA4-8F92-4DF1-91BA-B714BE37B8B5";
shapes = (
{
closed = 1;
nodes = (
(133,505,o),
(135,513,o),
(135,522,cs),
(135,529,o),
(134,536,o),
(133,545,c),
(143,577,o),
(129,615,o),
(137,647,c),
(135,653,o),
(134,660,o),
(133,668,cs),
(133,681,o),
(136,701,o),
(133,708,c),
(133,710,o),
(135,711,o),
(135,711,c),
(135,728,ls),
(134,736,o),
(132,741,o),
(130,748,c),
(136,761,o),
(139,783,o),
(137,800,c),
(130,811,o),
(112,810,o),
(95,810,cs),
(79,811,o),
(61,813,o),
(50,807,c),
(44,787,o),
(47,762,o),
(46,739,cs),
(46,714,o),
(47,692,o),
(45,671,c),
(49,657,o),
(47,643,o),
(46,630,cs),
(46,608,ls),
(47,586,o),
(46,566,o),
(46,545,cs),
(47,527,o),
(50,502,o),
(50,482,cs),
(50,455,o),
(50,426,o),
(46,403,c),
(50,384,o),
(48,365,o),
(48,349,cs),
(48,343,o),
(49,338,o),
(50,332,c),
(51,296,o),
(51,263,o),
(51,227,c),
(47,210,o),
(49,184,o),
(46,165,c),
(48,158,o),
(51,151,o),
(51,142,cs),
(51,136,o),
(50,129,o),
(50,122,cs),
(49,98,o),
(54,73,o),
(51,53,cs),
(50,37,o),
(45,22,o),
(55,12,c),
(63,6,o),
(80,8,o),
(94,8,c),
(107,3,o),
(128,3,o),
(137,12,c),
(145,23,o),
(137,42,o),
(135,55,c),
(137,72,o),
(133,91,o),
(133,110,cs),
(134,124,o),
(133,144,o),
(135,160,cs),
(135,169,o),
(130,172,o),
(130,180,c),
(133,188,o),
(133,202,o),
(130,210,c),
(138,227,o),
(134,260,o),
(137,279,c),
(137,290,ls),
(138,301,o),
(142,308,o),
(142,317,c),
(153,337,o),
(168,355,o),
(188,366,cs),
(215,379,o),
(263,381,o),
(294,369,c),
(312,356,o),
(329,342,o),
(338,319,c),
(338,307,o),
(337,296,o),
(338,282,cs),
(338,260,o),
(340,235,o),
(339,212,cs),
(339,199,o),
(337,188,o),
(338,175,cs),
(339,151,o),
(341,125,o),
(341,102,cs),
(341,93,o),
(339,84,o),
(339,76,cs),
(339,66,o),
(342,56,o),
(341,47,cs),
(340,33,o),
(331,25,o),
(338,17,c),
(345,3,o),
(368,10,o),
(387,10,cs),
(399,10,o),
(408,7,o),
(417,10,c),
(426,15,o),
(432,28,o),
(428,40,c),
(421,104,o),
(421,173,o),
(425,235,c),
(420,250,o),
(419,276,o),
(422,293,c),
(418,312,o),
(418,338,o),
(419,359,c),
(414,373,o),
(407,385,o),
(401,398,c),
(387,407,o),
(377,423,o),
(364,430,c),
(356,437,o),
(344,437,o),
(336,444,c),
(323,446,o),
(316,453,o),
(306,456,c),
(274,458,o),
(238,463,o),
(210,455,c),
(204,452,o),
(198,447,o),
(190,444,cs),
(183,441,o),
(173,440,o),
(167,436,cs),
(156,430,o),
(149,417,o),
(137,419,c),
(132,438,o),
(137,457,o),
(137,474,c),
(133,496,l)
);
}
);
width = 474;
}
);
unicode = 104;
},
{
glyphname = i;
kernRight = i;
lastChange = "2023-09-12 06:50:18 +0000";
layers = (
{
anchors = (
{
name = bottom;
pos = (102,0);
}
);
layerId = "7C3BCDA4-8F92-4DF1-91BA-B714BE37B8B5";
shapes = (
{
closed = 1;
nodes = (
(150,671,o),
(133,687,c),
(121,693,o),
(102,693,o),
(86,696,c),
(78,692,o),
(68,688,o),
(60,683,c),
(53,669,o),
(46,657,o),
(45,638,c),
(46,624,o),
(52,616,o),
(60,608,c),
(65,598,o),
(73,590,o),
(83,584,c),
(97,586,o),
(106,583,o),
(118,583,c),
(133,589,o),
(145,598,o),
(153,612,c),
(154,644,o)
);
},
{
closed = 1;
nodes = (
(60,181,o),
(65,151,o),
(65,121,cs),
(65,110,o),
(61,100,o),
(61,89,cs),
(62,63,o),
(65,36,o),
(61,10,c),
(73,-5,o),
(102,-2,o),
(123,2,c),
(132,6,o),
(133,17,o),
(140,22,c),
(140,28,o),
(144,30,o),
(148,33,c),
(150,37,o),
(147,81,o),
(147,89,cs),
(147,91,o),
(149,91,o),
(148,94,c),
(148,108,o),
(144,123,o),
(144,138,cs),
(144,144,o),
(147,151,o),
(147,158,cs),
(147,164,o),
(144,171,o),
(144,178,cs),
(145,214,o),
(147,252,o),
(147,288,cs),
(147,313,o),
(143,337,o),
(143,360,cs),
(143,386,o),
(149,411,o),
(144,435,c),
(126,451,o),
(89,443,o),
(63,440,c),
(57,424,o),
(60,406,o),
(60,388,cs),
(60,371,o),
(57,353,o),
(57,335,cs),
(57,324,o),
(61,312,o),
(61,301,cs),
(62,289,o),
(63,278,o),
(63,266,cs),
(63,255,o),
(61,245,o),
(61,234,c),
(65,213,l)
);
}
);
width = 198;
}
);
unicode = 105;
},
{
glyphname = idotless;
kernLeft = i;
kernRight = i;
lastChange = "2023-09-12 03:35:46 +0000";
layers = (
{
anchors = (
{
name = bottom;
pos = (106,0);
},
{
name = ogonek;
pos = (82,10);
},
{
name = top;
pos = (106,455);
}
);
layerId = "7C3BCDA4-8F92-4DF1-91BA-B714BE37B8B5";
shapes = (
{
closed = 1;
nodes = (
(64,181,o),
(69,151,o),
(69,121,cs),
(69,110,o),
(65,100,o),
(65,89,cs),
(66,63,o),
(69,36,o),
(65,10,c),
(77,-5,o),
(106,-2,o),
(127,2,c),
(136,6,o),
(137,17,o),
(144,22,c),
(144,28,o),
(148,30,o),
(152,33,c),
(154,37,o),
(151,81,o),
(151,89,cs),
(151,91,o),
(153,91,o),
(152,94,c),
(152,108,o),
(148,123,o),
(148,138,cs),
(148,144,o),
(151,151,o),
(151,158,cs),
(151,164,o),
(148,171,o),
(148,178,cs),
(149,214,o),
(151,252,o),
(151,288,cs),
(151,313,o),
(147,337,o),
(147,360,cs),
(147,386,o),
(153,411,o),
(148,435,c),
(130,451,o),
(93,443,o),
(67,440,c),
(61,424,o),
(64,406,o),
(64,388,cs),
(64,371,o),
(61,353,o),
(61,335,cs),
(61,324,o),
(65,312,o),
(65,301,cs),
(66,289,o),
(67,278,o),
(67,266,cs),
(67,255,o),
(65,245,o),
(65,234,c),
(69,213,l)
);
}
);
width = 211;
}
);
unicode = 305;
},
{
glyphname = j;
kernRight = j;
lastChange = "2023-09-12 06:46:24 +0000";
layers = (
{
layerId = "7C3BCDA4-8F92-4DF1-91BA-B714BE37B8B5";
shapes = (
{
closed = 1;
nodes = (
(162,649,o),
(162,650,o),
(160,650,c),
(160,651,o),
(160,653,o),
(159,653,c),
(152,673,o),
(140,689,o),
(120,696,cs),
(111,700,o),
(98,697,o),
(88,700,c),
(80,696,o),
(73,691,o),
(64,688,c),
(61,678,o),
(51,675,o),
(49,665,c),
(39,640,o),
(50,612,o),
(62,598,c),
(68,595,o),
(73,590,o),
(79,586,c),
(100,581,o),
(131,581,o),
(145,591,c),
(153,601,o),
(157,615,o),
(162,626,c),
(162,648,ls)
);
},
{
closed = 1;
nodes = (
(156,-173,o),
(156,-167,c),
(155,-165,o),
(154,-165,o),
(154,-162,cs),
(149,-117,o),
(153,-70,o),
(152,-23,cs),
(152,-3,o),
(149,18,o),
(149,38,cs),
(149,47,o),
(151,54,o),
(151,61,cs),
(151,73,o),
(147,85,o),
(147,96,cs),
(147,102,o),
(149,106,o),
(149,111,cs),
(149,143,o),
(147,175,o),
(149,209,cs),
(149,220,o),
(147,232,o),
(147,244,cs),
(146,285,o),
(146,323,o),
(149,363,c),
(146,369,o),
(145,375,o),
(145,384,cs),
(145,405,o),
(153,429,o),
(145,446,c),
(137,453,o),
(122,453,o),
(107,453,cs),
(92,453,o),
(75,454,o),
(65,453,c),
(54,428,o),
(62,393,o),
(62,360,cs),
(62,351,o),
(61,341,o),
(61,332,cs),
(61,321,o),
(62,310,o),
(62,299,cs),
(62,288,o),
(59,277,o),
(64,267,c),
(61,257,o),
(62,245,o),
(62,233,cs),
(63,223,o),
(62,211,o),
(62,200,cs),
(63,158,o),
(65,113,o),
(64,72,cs),
(63,56,o),
(62,40,o),
(62,24,cs),
(62,16,o),
(65,6,o),
(65,-2,cs),
(66,-16,o),
(64,-29,o),
(64,-42,cs),
(64,-74,o),
(65,-104,o),
(62,-134,cs),
(62,-138,o),
(63,-142,o),
(62,-147,cs),
(62,-152,o),
(58,-155,o),
(58,-159,cs),
(58,-167,o),
(58,-175,o),
(64,-182,cs),
(72,-193,o),
(93,-189,o),
(108,-193,c),
(118,-187,o),
(137,-191,o),
(145,-188,c),
(149,-185,o),
(150,-182,o),
(154,-180,c),
(155,-177,o)
);
}
);
width = 207;
}
);
unicode = 106;
},
{
glyphname = jdotless;
kernLeft = j;
kernRight = j;
lastChange = "2023-09-12 03:35:46 +0000";
layers = (
{
anchors = (
{
name = bottom;
pos = (102,-250);
},
{
name = top;
pos = (104,455);
}
);
layerId = "7C3BCDA4-8F92-4DF1-91BA-B714BE37B8B5";
shapes = (
{
closed = 1;
nodes = (
(158,-173,o),
(158,-167,c),
(157,-165,o),
(156,-165,o),
(156,-162,cs),
(151,-117,o),
(155,-70,o),
(154,-23,cs),
(154,-3,o),
(151,18,o),
(151,38,cs),
(151,47,o),
(153,54,o),
(153,61,cs),
(153,73,o),
(149,85,o),
(149,96,cs),
(149,102,o),
(151,106,o),
(151,111,cs),
(151,143,o),
(149,175,o),
(151,209,cs),
(151,220,o),
(149,232,o),
(149,244,cs),
(148,285,o),
(148,323,o),
(151,363,c),
(148,369,o),
(147,375,o),
(147,384,cs),
(147,405,o),
(155,429,o),
(147,446,c),
(139,453,o),
(124,453,o),
(109,453,cs),
(94,453,o),
(77,454,o),
(67,453,c),
(56,428,o),
(64,393,o),
(64,360,cs),
(64,351,o),
(63,341,o),
(63,332,cs),
(63,321,o),
(64,310,o),
(64,299,cs),
(64,288,o),
(61,277,o),
(66,267,c),
(63,257,o),
(64,245,o),
(64,233,cs),
(65,223,o),
(64,211,o),
(64,200,cs),
(65,158,o),
(67,113,o),
(66,72,cs),
(65,56,o),
(64,40,o),
(64,24,cs),
(64,16,o),
(67,6,o),
(67,-2,cs),
(68,-16,o),
(66,-29,o),
(66,-42,cs),
(66,-74,o),
(67,-104,o),
(64,-134,cs),
(64,-138,o),
(65,-142,o),
(64,-147,cs),
(64,-152,o),
(60,-155,o),
(60,-159,cs),
(60,-167,o),
(60,-175,o),
(66,-182,cs),
(74,-193,o),
(95,-189,o),
(110,-193,c),
(120,-187,o),
(139,-191,o),
(147,-188,c),
(151,-185,o),
(152,-182,o),
(156,-180,c),
(157,-177,o)
);
}
);
width = 203;
}
);
unicode = 567;
},
{
glyphname = k;
kernLeft = h;
kernRight = k;
lastChange = "2023-09-12 03:35:46 +0000";
layers = (
{
anchors = (
{
name = bottom;
pos = (228,0);
},
{
name = top;
pos = (228,750);
}
);
layerId = "7C3BCDA4-8F92-4DF1-91BA-B714BE37B8B5";
shapes = (
{
closed = 1;
nodes = (
(409,45,o),
(398,63,o),
(386,72,c),
(385,72,o),
(382,72,o),
(381,73,cs),
(380,74,o),
(380,77,o),
(380,78,c),
(376,83,o),
(372,86,o),
(369,90,c),
(359,98,o),
(356,112,o),
(344,119,c),
(337,129,o),
(328,138,o),
(321,151,c),
(294,177,o),
(271,208,o),
(244,235,c),
(238,248,o),
(225,253,o),
(222,269,c),
(224,282,o),
(239,283,o),
(239,297,c),
(251,295,o),
(252,302,o),
(257,305,c),
(262,311,o),
(269,314,o),
(274,317,c),
(289,336,o),
(308,351,o),
(325,368,c),
(328,372,o),
(332,376,o),
(338,379,cs),
(345,381,o),
(345,388,o),
(351,391,cs),
(362,396,o),
(368,407,o),
(376,416,c),
(389,423,o),
(407,431,o),
(401,451,c),
(400,458,o),
(387,454,o),
(383,458,c),
(374,459,o),
(370,454,o),
(363,453,c),
(342,454,o),
(325,455,o),
(303,455,c),
(285,446,o),
(276,428,o),
(261,418,c),
(258,408,o),
(249,405,o),
(242,398,cs),
(235,392,o),
(232,383,o),
(222,377,c),
(184,337,ls),
(171,324,o),
(162,304,o),
(137,304,c),
(129,317,o),
(135,334,o),
(135,349,cs),
(135,357,o),
(134,366,o),
(134,374,cs),
(134,398,o),
(135,421,o),
(135,441,cs),
(136,455,o),
(134,469,o),
(134,482,cs),
(134,502,ls),
(134,534,o),
(132,562,o),
(135,586,c),
(132,602,o),
(133,621,o),
(132,640,cs),
(131,681,o),
(132,721,o),
(132,760,cs),
(132,780,o),
(136,800,o),
(124,813,c),
(112,817,o),
(96,814,o),
(85,812,c),
(75,813,o),
(63,815,o),
(54,812,c),
(42,802,o),
(44,773,o),
(48,757,c),
(47,752,o),
(49,746,o),
(48,742,c),
(48,735,o),
(47,729,o),
(47,723,cs),
(47,718,o),
(50,711,o),
(50,705,cs),
(50,702,o),
(48,702,o),
(48,699,cs),
(49,692,o),
(50,684,o),
(47,678,c),
(51,653,o),
(48,624,o),
(48,601,cs),
(49,547,o),
(51,483,o),
(50,429,cs),
(50,421,o),
(48,412,o),
(48,404,c),
(52,368,ls),
(54,330,o),
(50,287,o),
(50,247,cs),
(50,235,o),
(54,224,o),
(54,212,cs),
(54,186,o),
(49,159,o),
(54,134,c),
(46,112,o),
(54,89,o),
(54,67,cs),
(54,50,o),
(50,35,o),
(56,20,c),
(65,11,o),
(86,14,o),
(103,13,cs),
(117,13,o),
(130,8,o),
(137,17,c),
(142,27,o),
(136,38,o),
(135,48,cs),
(132,83,o),
(136,120,o),
(135,152,cs),
(135,157,o),
(134,161,o),
(134,165,cs),
(134,174,o),
(139,183,o),
(137,192,c),
(142,196,o),
(147,197,o),
(149,204,c),
(153,210,o),
(175,196,o),
(179,189,c),
(196,178,o),
(204,159,o),
(218,145,cs),
(232,131,o),
(240,113,o),
(254,100,cs),
(261,93,o),
(264,85,o),
(271,76,cs),
(277,69,o),
(286,64,o),
(289,53,c),
(302,38,o),
(313,22,o),
(329,12,c),
(341,12,o),
(360,11,o),
(372,12,cs),
(383,12,ls),
(402,12,o),
(427,10,o),
(425,29,c),
(421,33,ls)
);
}
);
width = 455;
}
);
unicode = 107;
},
{
glyphname = kgreenlandic;
kernLeft = n;
kernRight = k;
lastChange = "2023-09-12 03:35:46 +0000";
layers = (
{
anchors = (
{
name = bottom;
pos = (237,0);
},
{
name = top;
pos = (237,750);
}
);
layerId = "7C3BCDA4-8F92-4DF1-91BA-B714BE37B8B5";
shapes = (
{
closed = 1;
nodes = (
(418,45,o),
(407,63,o),
(395,72,c),
(394,72,o),
(391,72,o),
(390,73,cs),
(389,74,o),
(389,77,o),
(389,78,c),
(385,83,o),
(381,86,o),
(378,90,c),
(368,98,o),
(365,112,o),
(353,119,c),
(346,129,o),
(337,138,o),
(330,151,c),
(303,177,o),
(280,208,o),
(253,235,c),
(247,248,o),
(234,253,o),
(231,269,c),
(233,282,o),
(248,283,o),
(248,297,c),
(260,295,o),
(261,302,o),
(266,305,c),
(271,311,o),
(278,314,o),
(283,317,c),
(298,336,o),
(317,351,o),
(334,368,c),
(337,372,o),
(341,376,o),
(347,379,cs),
(354,381,o),
(354,388,o),
(360,391,cs),
(371,396,o),
(377,407,o),
(385,416,c),
(398,423,o),
(416,431,o),
(410,451,c),
(409,458,o),
(396,454,o),
(392,458,c),
(383,459,o),
(379,454,o),
(372,453,c),
(351,454,o),
(334,455,o),
(312,455,c),
(294,446,o),
(285,428,o),
(270,418,c),
(267,408,o),
(258,405,o),
(251,398,cs),
(244,392,o),
(241,383,o),
(231,377,c),
(193,337,ls),
(180,324,o),
(171,304,o),
(146,304,c),
(138,317,o),
(144,334,o),
(144,349,cs),
(144,357,o),
(143,366,o),
(143,374,cs),
(141,402,ls),
(141,422,o),
(145,442,o),
(133,455,c),
(121,459,o),
(105,456,o),
(94,454,c),
(84,455,o),
(72,457,o),
(63,454,c),
(51,444,o),
(53,415,o),
(57,399,c),
(56,394,o),
(58,388,o),
(57,384,c),
(61,368,l),
(63,330,o),
(59,287,o),
(59,247,cs),
(59,235,o),
(63,224,o),
(63,212,cs),
(63,186,o),
(58,159,o),
(63,134,c),
(55,112,o),
(63,89,o),
(63,67,cs),
(63,50,o),
(59,35,o),
(65,20,c),
(74,11,o),
(95,14,o),
(112,13,cs),
(126,13,o),
(139,8,o),
(146,17,c),
(151,27,o),
(145,38,o),
(144,48,cs),
(141,83,o),
(145,120,o),
(144,152,cs),
(144,157,o),
(143,161,o),
(143,165,cs),
(143,174,o),
(148,183,o),
(146,192,c),
(151,196,o),
(156,197,o),
(158,204,c),
(162,210,o),
(184,196,o),
(188,189,c),
(205,178,o),
(213,159,o),
(227,145,cs),
(241,131,o),
(249,113,o),
(263,100,cs),
(270,93,o),
(273,85,o),
(280,76,cs),
(286,69,o),
(295,64,o),
(298,53,c),
(311,38,o),
(322,22,o),
(338,12,c),
(350,12,o),
(369,11,o),
(381,12,cs),
(392,12,ls),
(411,12,o),
(436,10,o),
(434,29,c),
(430,33,ls)
);
}
);
width = 474;
}
);
unicode = 312;
},
{
glyphname = l;
kernLeft = h;
kernRight = l;
lastChange = "2023-09-12 06:50:11 +0000";
layers = (
{
anchors = (
{
name = bottom;
pos = (101,0);
},
{
name = center;
pos = (101,375);
},
{
name = top;
pos = (92,809);
},
{
name = topright;
pos = (188,750);
}
);
layerId = "7C3BCDA4-8F92-4DF1-91BA-B714BE37B8B5";
shapes = (
{
closed = 1;
nodes = (
(140,51,o),
(141,68,c),
(138,74,o),
(140,84,o),
(136,88,c),
(139,144,o),
(139,205,o),
(138,255,cs),
(138,275,o),
(137,294,o),
(140,313,c),
(133,328,o),
(138,346,o),
(138,363,cs),
(138,372,o),
(137,382,o),
(136,391,cs),
(136,410,o),
(138,431,o),
(136,449,cs),
(136,456,o),
(139,460,o),
(140,466,c),
(136,525,o),
(136,590,o),
(136,655,cs),
(136,664,o),
(138,674,o),
(138,683,cs),
(138,695,o),
(135,708,o),
(135,720,cs),
(135,723,o),
(137,726,o),
(136,728,c),
(136,738,o),
(135,747,o),
(133,757,c),
(136,762,o),
(137,772,o),
(136,780,cs),
(136,789,o),
(135,796,o),
(132,801,c),
(123,809,o),
(106,808,o),
(92,809,cs),
(76,809,o),
(60,811,o),
(51,803,cs),
(43,794,o),
(48,771,o),
(45,757,c),
(52,727,o),
(45,691,o),
(51,664,c),
(49,605,o),
(49,548,o),
(51,491,cs),
(52,451,o),
(48,412,o),
(53,379,c),
(49,351,o),
(52,322,o),
(53,293,cs),
(53,280,o),
(54,276,o),
(51,265,c),
(54,260,o),
(56,251,o),
(54,242,cs),
(50,214,o),
(57,188,o),
(57,162,cs),
(57,144,o),
(54,126,o),
(54,108,cs),
(54,92,o),
(53,76,o),
(53,61,cs),
(52,45,o),
(50,27,o),
(58,12,c),
(67,5,o),
(83,10,o),
(98,10,cs),
(113,11,o),
(129,8,o),
(138,15,c),
(145,27,o)
);
}
);
width = 187;
}
);
unicode = 108;
},
{
glyphname = lslash;
kernLeft = lslash;
kernRight = lslash;
lastChange = "2023-09-12 03:35:46 +0000";
layers = (
{
layerId = "7C3BCDA4-8F92-4DF1-91BA-B714BE37B8B5";
shapes = (
{
closed = 1;
nodes = (
(84,332,o),
(65,330,o),
(48,318,c),
(35,299,o),
(43,275,o),
(58,257,c),
(69,254,o),
(84,261,o),
(96,259,c),
(105,265,o),
(116,271,o),
(127,277,c),
(127,273,o),
(126,269,o),
(125,265,c),
(128,260,o),
(129,251,o),
(128,242,cs),
(124,214,o),
(130,188,o),
(130,162,cs),
(130,144,o),
(128,126,o),
(128,108,cs),
(128,92,o),
(127,76,o),
(127,61,cs),
(126,45,o),
(124,27,o),
(131,12,c),
(141,5,o),
(157,10,o),
(172,10,cs),
(187,11,o),
(202,8,o),
(212,15,c),
(218,27,o),
(214,51,o),
(215,68,c),
(212,74,o),
(214,84,o),
(210,88,c),
(213,144,o),
(213,205,o),
(212,255,cs),
(212,272,o),
(211,288,o),
(213,305,c),
(220,307,o),
(227,308,o),
(234,312,cs),
(255,322,o),
(276,334,o),
(296,342,c),
(295,346,o),
(298,348,o),
(298,350,c),
(302,364,o),
(299,378,o),
(295,384,cs),
(288,392,o),
(281,401,o),
(269,402,c),
(248,396,o),
(233,383,o),
(211,382,c),
(210,385,o),
(210,388,o),
(210,391,cs),
(210,410,o),
(212,431,o),
(210,449,cs),
(210,456,o),
(213,460,o),
(214,466,c),
(210,525,o),
(210,590,o),
(210,655,cs),
(210,664,o),
(212,674,o),
(212,683,cs),
(212,695,o),
(209,708,o),
(209,720,cs),
(209,723,o),
(211,726,o),
(210,728,c),
(210,738,o),
(209,747,o),
(207,757,c),
(210,762,o),
(211,772,o),
(210,780,cs),
(210,789,o),
(209,796,o),
(206,801,c),
(197,809,o),
(180,808,o),
(165,809,cs),
(149,809,o),
(134,811,o),
(125,803,cs),
(117,794,o),
(122,771,o),
(119,757,c),
(126,727,o),
(119,691,o),
(125,664,c),
(123,605,o),
(123,548,o),
(125,491,cs),
(126,451,o),
(122,412,o),
(127,379,c),
(125,369,o),
(125,358,o),
(125,348,c),
(101,342,l)
);
}
);
width = 331;
}
);
unicode = 322;
},
{
glyphname = m;
kernLeft = n;
kernRight = n;
lastChange = "2023-09-12 03:35:46 +0000";
layers = (
{
anchors = (
{
name = bottom;
pos = (356,0);
},
{
name = top;
pos = (356,455);
}
);
layerId = "7C3BCDA4-8F92-4DF1-91BA-B714BE37B8B5";
shapes = (
{
closed = 1;
nodes = (
(176,449,o),
(117,452,o),
(56,449,c),
(44,434,o),
(48,411,o),
(48,389,cs),
(49,371,o),
(47,353,o),
(47,334,cs),
(47,304,ls),
(47,294,o),
(45,283,o),
(45,273,cs),
(46,265,o),
(48,255,o),
(48,247,cs),
(49,235,o),
(46,224,o),
(50,214,c),
(45,192,o),
(48,165,o),
(48,140,cs),
(49,112,o),
(47,85,o),
(50,58,c),
(47,47,o),
(43,28,o),
(47,13,c),
(52,8,o),
(58,3,o),
(67,3,c),
(87,10,o),
(119,-2,o),
(134,8,c),
(141,25,o),
(135,46,o),
(134,65,cs),
(134,159,ls),
(133,190,o),
(131,220,o),
(131,250,cs),
(131,276,o),
(132,303,o),
(132,325,c),
(130,340,o),
(126,363,o),
(135,372,c),
(144,375,o),
(149,371,o),
(159,372,c),
(196,381,o),
(240,369,o),
(274,379,c),
(282,373,o),
(293,379,o),
(303,375,c),
(310,363,o),
(307,348,o),
(306,332,cs),
(306,306,o),
(309,275,o),
(309,250,cs),
(309,241,o),
(308,231,o),
(308,222,cs),
(308,205,o),
(312,189,o),
(306,175,c),
(314,152,o),
(308,125,o),
(308,100,cs),
(308,83,o),
(311,66,o),
(309,48,cs),
(306,35,o),
(304,17,o),
(313,8,c),
(325,1,o),
(341,10,o),
(355,10,c),
(367,7,o),
(386,3,o),
(398,10,c),
(403,23,o),
(398,37,o),
(396,52,cs),
(394,87,o),
(397,126,o),
(392,162,c),
(395,190,o),
(393,226,o),
(390,252,c),
(392,258,o),
(393,263,o),
(393,269,cs),
(394,275,o),
(395,283,o),
(395,288,cs),
(395,297,o),
(392,304,o),
(392,313,cs),
(392,319,o),
(393,326,o),
(393,334,cs),
(393,348,o),
(386,364,o),
(396,374,cs),
(405,381,o),
(424,375,o),
(436,374,c),
(444,377,o),
(456,375,o),
(465,377,c),
(483,374,ls),
(489,373,o),
(494,372,o),
(500,372,cs),
(508,373,o),
(515,377,o),
(523,379,c),
(541,377,o),
(554,382,o),
(567,375,c),
(572,355,o),
(568,334,o),
(569,313,cs),
(569,302,o),
(570,292,o),
(570,281,cs),
(570,269,o),
(572,258,o),
(572,247,cs),
(572,242,o),
(570,236,o),
(570,230,cs),
(570,216,o),
(572,202,o),
(572,189,cs),
(572,173,o),
(570,159,o),
(570,143,cs),
(570,128,o),
(572,113,o),
(572,99,cs),
(572,72,o),
(570,38,o),
(570,15,c),
(579,6,o),
(596,11,o),
(612,12,cs),
(627,12,o),
(641,10,o),
(652,12,c),
(660,21,o),
(657,40,o),
(657,56,c),
(652,67,o),
(657,75,o),
(652,85,c),
(658,96,o),
(653,109,o),
(653,122,cs),
(653,124,o),
(656,126,o),
(656,130,cs),
(655,157,o),
(656,190,o),
(653,218,c),
(653,229,o),
(650,237,o),
(650,247,cs),
(650,290,o),
(656,334,o),
(648,374,c),
(653,394,o),
(657,429,o),
(650,451,c),
(638,458,o),
(623,454,o),
(609,453,cs),
(580,452,o),
(551,455,o),
(523,453,cs),
(516,452,o),
(508,449,o),
(500,449,cs),
(492,448,o),
(484,451,o),
(476,451,cs),
(456,451,o),
(439,447,o),
(423,453,c),
(405,449,o),
(381,451,o),
(363,453,c),
(344,448,o),
(326,454,o),
(308,447,c),
(294,453,o),
(280,449,o),
(265,449,cs),
(242,449,ls)
);
}
);
width = 703;
}
);
unicode = 109;
},
{
glyphname = n;
kernLeft = n;
kernRight = n;
lastChange = "2023-09-12 03:35:46 +0000";
layers = (
{
anchors = (
{
name = bottom;
pos = (233,0);
},
{
name = top;
pos = (233,455);
}
);
layerId = "7C3BCDA4-8F92-4DF1-91BA-B714BE37B8B5";
shapes = (
{
closed = 1;
nodes = (
(130,109,o),
(135,113,o),
(134,122,cs),
(131,136,o),
(129,151,o),
(130,166,cs),
(130,175,o),
(134,183,o),
(134,192,cs),
(135,209,o),
(130,226,o),
(130,244,cs),
(130,259,o),
(136,272,o),
(128,284,c),
(132,308,o),
(131,338,o),
(134,360,c),
(136,367,o),
(143,367,o),
(148,369,c),
(158,369,o),
(154,381,o),
(162,381,c),
(171,378,o),
(176,371,o),
(185,369,cs),
(197,367,o),
(216,370,o),
(226,369,cs),
(234,369,ls),
(255,369,o),
(276,367,o),
(295,368,cs),
(309,368,o),
(324,373,o),
(336,364,c),
(340,342,o),
(337,321,o),
(338,301,cs),
(338,284,o),
(341,268,o),
(341,252,cs),
(341,237,o),
(337,224,o),
(336,209,cs),
(336,205,o),
(337,200,o),
(338,195,cs),
(338,191,o),
(336,187,o),
(336,182,cs),
(336,175,o),
(339,169,o),
(339,162,cs),
(339,157,o),
(337,152,o),
(338,146,c),
(338,127,o),
(339,108,o),
(339,90,cs),
(339,83,o),
(338,75,o),
(339,68,c),
(336,51,o),
(332,33,o),
(338,17,c),
(343,16,o),
(346,10,o),
(354,12,cs),
(377,16,o),
(397,10,o),
(417,12,c),
(426,19,o),
(424,29,o),
(423,41,cs),
(422,63,o),
(418,89,o),
(421,108,c),
(421,113,o),
(418,118,o),
(418,123,cs),
(419,152,o),
(421,179,o),
(421,207,cs),
(421,230,o),
(418,252,o),
(418,276,cs),
(418,281,o),
(420,288,o),
(420,294,cs),
(420,301,o),
(418,307,o),
(418,314,cs),
(419,320,o),
(421,324,o),
(421,331,cs),
(422,347,o),
(419,361,o),
(420,377,cs),
(420,392,o),
(422,407,o),
(421,423,c),
(418,431,o),
(417,442,o),
(409,447,c),
(393,451,o),
(373,446,o),
(356,451,c),
(335,445,o),
(302,454,o),
(286,447,c),
(277,454,o),
(267,449,o),
(259,449,cs),
(255,449,o),
(252,451,o),
(249,451,cs),
(227,451,o),
(205,447,o),
(182,447,cs),
(172,447,o),
(161,451,o),
(150,451,cs),
(136,452,o),
(121,448,o),
(105,449,cs),
(88,451,o),
(69,454,o),
(55,444,c),
(50,438,o),
(48,427,o),
(46,418,c),
(47,403,o),
(49,382,o),
(46,368,c),
(51,359,o),
(47,349,o),
(47,339,cs),
(48,321,o),
(47,303,o),
(47,287,cs),
(47,270,o),
(50,252,o),
(50,235,cs),
(50,213,o),
(46,191,o),
(47,171,cs),
(48,164,o),
(47,161,o),
(47,159,cs),
(47,149,o),
(47,141,o),
(49,131,c),
(42,118,o),
(47,102,o),
(47,87,cs),
(48,69,o),
(44,50,o),
(49,33,c),
(59,25,o),
(109,19,o),
(118,21,cs),
(125,23,o),
(131,58,o),
(134,82,c),
(130,102,l)
);
}
);
width = 469;
}
);
unicode = 110;
},
{
glyphname = nhookleft;
kernLeft = nhookleft;
kernRight = nhookleft;
lastChange = "2023-09-12 03:35:46 +0000";
layers = (
{
layerId = "7C3BCDA4-8F92-4DF1-91BA-B714BE37B8B5";
shapes = (
{
ref = n;
},
{
closed = 1;
nodes = (
(49,213,o),
(49,205,o),
(50,194,cs),
(51,189,l),
(51,94,l),
(50,85,ls),
(48,74,o),
(48,68,o),
(49,61,cs),
(50,34,l),
(49,28,ls),
(48,24,o),
(49,18,o),
(50,7,cs),
(51,-1,l),
(51,-49,l),
(50,-61,ls),
(48,-72,o),
(48,-77,o),
(49,-81,c),
(50,-108,l),
(49,-114,ls),
(48,-118,o),
(48,-122,o),
(49,-127,c),
(46,-155,l),
(28,-168,l),
(0,-161,l),
(-18,-149,l),
(-30,-139,ls),
(-41,-129,o),
(-53,-129,o),
(-63,-140,cs),
(-73,-151,l),
(-82,-161,ls),
(-93,-173,o),
(-93,-185,o),
(-81,-196,cs),
(-71,-205,l),
(-62,-214,ls),
(-53,-223,o),
(-46,-227,o),
(-34,-231,cs),
(-21,-235,l),
(-13,-237,ls),
(-2,-240,o),
(6,-241,o),
(17,-241,cs),
(32,-241,l),
(41,-240,ls),
(53,-239,o),
(61,-237,o),
(71,-231,cs),
(79,-227,l),
(83,-224,ls),
(93,-217,o),
(98,-212,o),
(105,-204,cs),
(112,-196,o),
(116,-190,o),
(120,-181,cs),
(124,-172,o),
(125,-165,o),
(126,-153,cs),
(127,-144,l),
(128,-120,l),
(127,-96,l),
(128,-73,l),
(127,-49,l),
(127,-1,l),
(128,22,l),
(127,46,l),
(126,55,l),
(126,82,ls),
(127,91,o),
(127,96,o),
(126,102,c),
(126,129,l),
(127,141,l),
(126,147,l),
(126,176,ls),
(127,186,o),
(127,191,o),
(126,197,c),
(126,224,l),
(127,231,o),
(125,236,o),
(121,235,c),
(97,235,l),
(89,236,l),
(83,235,l),
(52,236,ls),
(51,236,o),
(50,231,o),
(50,223,cs)
);
}
);
width = 469;
}
);
unicode = 626;
},
{
glyphname = eng;
kernLeft = n;
kernRight = j;
lastChange = "2023-09-12 03:35:46 +0000";
layers = (
{
layerId = "7C3BCDA4-8F92-4DF1-91BA-B714BE37B8B5";
shapes = (
{
ref = n;
},
{
closed = 1;
nodes = (
(337,5,l),
(336,-8,ls),
(335,-19,o),
(334,-25,o),
(335,-30,cs),
(339,-59,l),
(338,-66,ls),
(337,-71,o),
(337,-75,o),
(338,-79,c),
(339,-108,l),
(337,-122,l),
(338,-127,l),
(335,-155,l),
(317,-168,l),
(289,-160,l),
(271,-148,l),
(259,-138,l),
(257,-136,ls),
(247,-127,o),
(238,-127,o),
(229,-136,cs),
(216,-151,l),
(200,-168,ls),
(193,-175,o),
(196,-185,o),
(208,-196,cs),
(218,-205,l),
(227,-214,ls),
(236,-223,o),
(243,-227,o),
(255,-231,cs),
(268,-235,l),
(276,-237,ls),
(287,-240,o),
(295,-241,o),
(306,-241,cs),
(321,-241,l),
(327,-240,ls),
(339,-238,o),
(347,-237,o),
(357,-232,cs),
(368,-227,l),
(374,-223,ls),
(384,-217,o),
(391,-211,o),
(397,-202,cs),
(403,-193,l),
(406,-187,ls),
(411,-177,o),
(414,-169,o),
(415,-157,cs),
(416,-144,l),
(420,-45,l),
(421,-20,l),
(424,5,l),
(423,14,l),
(423,42,l),
(424,49,o),
(422,54,o),
(420,53,c),
(385,53,l),
(375,54,l),
(369,53,l),
(338,54,ls),
(337,54,o),
(337,45,o),
(337,30,cs)
);
}
);
width = 469;
}
);
unicode = 331;
},
{
glyphname = o;
kernLeft = o;
kernRight = o;
lastChange = "2023-09-12 03:35:46 +0000";
layers = (
{
anchors = (
{
name = bottom;
pos = (265,0);
},
{
name = center;
pos = (265,228);
},
{
name = ogonek;
pos = (274,10);
},
{
name = top;
pos = (265,455);
},
{
name = topright;
pos = (522,455);
}
);
layerId = "7C3BCDA4-8F92-4DF1-91BA-B714BE37B8B5";
shapes = (
{
closed = 1;
nodes = (
(221,460,o),
(195,457,o),
(175,447,c),
(162,446,o),
(151,442,o),
(140,439,c),
(132,435,o),
(129,425,o),
(123,419,cs),
(116,413,o),
(107,410,o),
(102,403,c),
(99,393,o),
(92,389,o),
(84,384,c),
(80,376,o),
(74,370,o),
(68,364,c),
(66,353,o),
(59,349,o),
(56,339,cs),
(52,324,o),
(45,313,o),
(43,296,c),
(39,281,o),
(38,262,o),
(35,247,c),
(38,233,o),
(33,220,o),
(35,204,cs),
(36,195,o),
(39,190,o),
(38,178,c),
(49,148,l),
(51,145,o),
(52,145,o),
(53,143,cs),
(64,120,l),
(71,109,o),
(80,101,o),
(84,88,c),
(100,75,o),
(116,60,o),
(133,50,cs),
(139,47,o),
(146,43,o),
(153,40,cs),
(168,33,o),
(188,23,o),
(204,20,c),
(206,19,o),
(210,20,o),
(212,20,c),
(216,17,l),
(249,8,o),
(286,12,o),
(326,13,c),
(337,17,o),
(345,23,o),
(358,24,c),
(361,30,o),
(367,31,o),
(374,33,c),
(377,38,o),
(382,41,o),
(389,43,c),
(398,50,o),
(409,56,o),
(420,61,c),
(426,68,o),
(433,74,o),
(441,80,c),
(446,87,o),
(453,93,o),
(461,99,c),
(466,110,o),
(473,122,o),
(481,134,c),
(497,172,l),
(500,182,o),
(499,198,o),
(502,209,cs),
(504,222,o),
(506,233,o),
(505,249,cs),
(505,250,o),
(505,251,o),
(504,250,c),
(503,271,o),
(496,286,o),
(496,307,c),
(490,315,o),
(487,321,o),
(484,329,cs),
(482,333,o),
(479,335,o),
(477,339,cs),
(476,343,o),
(477,348,o),
(473,352,cs),
(467,359,o),
(463,368,o),
(457,374,c),
(452,383,o),
(445,389,o),
(441,398,c),
(436,401,o),
(432,402,o),
(429,404,cs),
(423,409,o),
(420,413,o),
(415,418,cs),
(408,423,o),
(401,430,o),
(394,435,cs),
(386,439,o),
(379,440,o),
(374,446,c),
(365,445,o),
(362,449,o),
(355,451,c),
(352,455,o),
(340,452,o),
(339,458,c),
(325,460,o),
(312,462,o),
(300,466,c),
(245,466,l)
);
},
{
closed = 1;
nodes = (
(273,382,o),
(300,381,o),
(322,371,cs),
(331,366,o),
(341,358,o),
(351,354,c),
(359,348,o),
(367,341,o),
(377,336,c),
(379,330,o),
(383,325,o),
(389,322,c),
(398,303,o),
(408,285,o),
(415,264,c),
(417,264,o),
(416,262,o),
(417,261,c),
(418,261,o),
(418,260,o),
(418,259,cs),
(416,242,o),
(418,220,o),
(415,204,cs),
(406,169,o),
(382,148,o),
(363,123,c),
(352,117,o),
(339,110,o),
(330,102,c),
(322,102,o),
(317,100,o),
(311,96,c),
(298,96,o),
(283,98,o),
(273,93,c),
(255,96,o),
(238,96,o),
(218,100,c),
(218,102,o),
(217,102,o),
(216,102,c),
(208,105,o),
(199,108,o),
(193,113,c),
(188,120,o),
(178,121,o),
(172,128,cs),
(162,140,o),
(147,147,o),
(137,162,cs),
(133,170,o),
(131,179,o),
(128,189,cs),
(125,197,o),
(122,206,o),
(117,214,c),
(114,246,o),
(123,268,o),
(128,296,c),
(134,305,o),
(142,314,o),
(146,325,c),
(165,340,o),
(183,357,o),
(203,371,c),
(241,381,l)
);
}
);
width = 540;
}
);
unicode = 111;
},
{
glyphname = oslash;
kernLeft = o;
kernRight = o;
lastChange = "2023-09-12 03:35:46 +0000";
layers = (
{
layerId = "7C3BCDA4-8F92-4DF1-91BA-B714BE37B8B5";
shapes = (
{
closed = 1;
nodes = (
(395,442,o),
(398,445,o),
(398,446,c),
(401,456,o),
(402,460,o),
(402,462,c),
(403,463,o),
(406,470,o),
(417,494,c),
(427,508,o),
(438,530,o),
(431,538,c),
(422,544,o),
(406,541,o),
(392,541,cs),
(375,541,o),
(385,544,o),
(366,537,c),
(352,523,o),
(351,506,o),
(345,490,cs),
(342,483,o),
(339,473,o),
(334,460,c),
(326,462,o),
(319,463,o),
(312,466,c),
(257,466,l),
(233,460,o),
(207,457,o),
(187,447,c),
(174,446,o),
(163,442,o),
(152,439,c),
(144,435,o),
(141,425,o),
(135,419,cs),
(128,413,o),
(119,410,o),
(114,403,c),
(111,393,o),
(104,389,o),
(96,384,c),
(92,376,o),
(86,370,o),
(80,364,c),
(78,353,o),
(71,349,o),
(68,339,cs),
(64,324,o),
(57,313,o),
(55,296,c),
(51,281,o),
(50,262,o),
(47,247,c),
(50,233,o),
(45,220,o),
(47,204,cs),
(48,195,o),
(51,190,o),
(50,178,c),
(61,148,l),
(63,145,o),
(64,145,o),
(65,143,cs),
(76,120,l),
(83,109,o),
(92,101,o),
(96,88,c),
(112,75,o),
(128,60,o),
(145,50,c),
(147,48,o),
(151,47,o),
(154,45,c),
(146,29,o),
(139,14,o),
(136,3,c),
(128,-8,o),
(122,-21,o),
(119,-33,c),
(113,-41,o),
(105,-48,o),
(103,-58,cs),
(100,-74,o),
(124,-77,o),
(145,-76,cs),
(167,-75,o),
(169,-76,o),
(181,-59,c),
(190,-53,o),
(187,-45,o),
(190,-38,c),
(195,-33,o),
(193,-23,o),
(196,-16,cs),
(210,16,o),
(210,14,o),
(209,13,c),
(212,20,l),
(216,20,l),
(218,19,o),
(222,20,o),
(224,20,c),
(228,17,l),
(261,8,o),
(298,12,o),
(338,13,c),
(349,17,o),
(357,23,o),
(370,24,c),
(373,30,o),
(379,31,o),
(386,33,c),
(389,38,o),
(394,41,o),
(401,43,c),
(410,50,o),
(421,56,o),
(432,61,c),
(438,68,o),
(445,74,o),
(453,80,c),
(458,87,o),
(465,93,o),
(473,99,c),
(478,110,o),
(485,122,o),
(493,134,c),
(509,172,l),
(512,182,o),
(511,198,o),
(514,209,cs),
(516,222,o),
(518,233,o),
(517,249,cs),
(517,250,o),
(517,251,o),
(516,250,c),
(515,271,o),
(508,286,o),
(508,307,c),
(502,315,o),
(499,321,o),
(496,329,cs),
(494,333,o),
(491,335,o),
(489,339,cs),
(488,343,o),
(489,348,o),
(485,352,cs),
(479,359,o),
(475,368,o),
(469,374,c),
(464,383,o),
(457,389,o),
(453,398,c),
(448,401,o),
(444,402,o),
(441,404,cs),
(435,409,o),
(432,413,o),
(427,418,cs),
(420,423,o),
(413,430,o),
(406,435,c),
(393,440,l)
);
},
{
closed = 1;
nodes = (
(188,124,o),
(186,126,o),
(184,128,cs),
(174,140,o),
(159,147,o),
(149,162,cs),
(145,170,o),
(143,179,o),
(140,189,cs),
(137,197,o),
(134,206,o),
(129,214,c),
(126,246,o),
(135,268,o),
(140,296,c),
(146,305,o),
(154,314,o),
(158,325,c),
(177,340,o),
(195,357,o),
(215,371,c),
(253,381,l),
(269,381,o),
(284,381,o),
(297,379,c),
(294,364,ls),
(289,346,o),
(276,329,o),
(273,312,c),
(261,295,o),
(259,277,o),
(248,260,c),
(237,220,o),
(210,170,o),
(193,131,cs),
(190,123,l)
);
},
{
closed = 1;
nodes = (
(308,245,o),
(315,253,o),
(318,260,cs),
(328,278,o),
(332,295,o),
(338,310,cs),
(345,325,o),
(349,341,o),
(358,356,c),
(359,355,o),
(360,354,o),
(363,354,c),
(371,348,o),
(379,341,o),
(389,336,c),
(391,330,o),
(395,325,o),
(401,322,c),
(410,303,o),
(420,285,o),
(427,264,c),
(429,264,o),
(428,262,o),
(429,261,c),
(430,261,o),
(430,260,o),
(430,259,cs),
(428,242,o),
(430,220,o),
(427,204,cs),
(418,169,o),
(394,148,o),
(375,123,c),
(364,117,o),
(351,110,o),
(342,102,c),
(334,102,o),
(329,100,o),
(323,96,c),
(310,96,o),
(295,98,o),
(285,93,c),
(272,95,o),
(260,95,o),
(246,98,c),
(247,100,o),
(249,102,o),
(250,105,cs),
(251,107,o),
(249,107,o),
(250,109,cs),
(257,121,o),
(266,135,o),
(267,146,c),
(278,167,o),
(286,191,o),
(297,215,c),
(305,239,l)
);
}
);
width = 554;
}
);
unicode = 248;
},
{
glyphname = oe;
kernLeft = o;
kernRight = e;
lastChange = "2023-09-12 03:35:46 +0000";
layers = (
{
layerId = "7C3BCDA4-8F92-4DF1-91BA-B714BE37B8B5";
shapes = (
{
closed = 1;
nodes = (
(893,242,o),
(891,253,o),
(894,264,c),
(889,277,o),
(889,292,o),
(885,304,c),
(884,319,o),
(875,325,o),
(873,340,c),
(868,348,o),
(864,355,o),
(860,363,cs),
(852,381,ls),
(847,390,o),
(843,392,o),
(836,400,cs),
(825,412,o),
(812,425,o),
(800,436,c),
(781,443,o),
(767,456,o),
(752,466,c),
(731,473,o),
(707,477,o),
(679,478,cs),
(664,478,o),
(648,480,o),
(635,478,cs),
(621,476,o),
(611,469,o),
(598,470,c),
(586,463,o),
(571,459,o),
(558,455,c),
(550,447,o),
(542,441,o),
(534,435,cs),
(526,428,o),
(519,419,o),
(513,411,c),
(505,405,o),
(497,398,o),
(493,388,c),
(482,383,o),
(484,366,o),
(470,366,cs),
(460,367,o),
(464,383,o),
(456,384,c),
(451,390,o),
(447,396,o),
(444,404,c),
(435,410,o),
(427,420,o),
(419,427,cs),
(390,449,l),
(377,452,o),
(368,459,o),
(355,463,cs),
(342,466,o),
(331,472,o),
(317,475,c),
(292,474,o),
(278,475,o),
(253,476,c),
(229,473,o),
(211,462,o),
(187,459,c),
(170,451,o),
(156,438,o),
(137,431,c),
(125,418,l),
(119,414,ls),
(111,409,o),
(106,402,o),
(99,398,c),
(95,388,o),
(88,382,o),
(83,374,cs),
(78,367,o),
(75,357,o),
(68,351,c),
(68,343,o),
(65,340,o),
(61,336,c),
(52,299,o),
(38,265,o),
(39,217,c),
(42,197,o),
(48,180,o),
(50,159,c),
(59,147,o),
(61,131,o),
(68,119,cs),
(72,110,o),
(81,106,o),
(82,96,c),
(91,92,o),
(96,83,o),
(105,76,c),
(107,64,o),
(121,63,o),
(123,50,c),
(127,50,o),
(129,47,o),
(131,45,c),
(137,45,o),
(135,38,o),
(140,38,c),
(151,32,o),
(163,27,o),
(174,18,c),
(189,17,o),
(197,7,o),
(212,5,cs),
(230,2,o),
(249,-3,o),
(268,-5,cs),
(277,-6,o),
(285,-4,o),
(294,-6,c),
(310,-3,o),
(322,3,o),
(342,3,c),
(354,7,o),
(365,13,o),
(378,15,c),
(386,22,o),
(396,28,o),
(407,32,c),
(412,39,o),
(421,43,o),
(426,50,c),
(427,54,o),
(431,57,o),
(434,60,cs),
(438,64,o),
(442,65,o),
(446,69,c),
(448,77,o),
(454,84,o),
(459,90,c),
(466,95,o),
(465,108,o),
(476,110,c),
(485,105,o),
(487,91,o),
(494,84,c),
(499,82,o),
(498,73,o),
(505,72,c),
(509,69,o),
(511,64,o),
(514,58,c),
(525,55,o),
(528,46,o),
(537,41,c),
(544,34,o),
(554,31,o),
(561,23,c),
(568,21,o),
(576,20,o),
(581,17,c),
(585,12,o),
(594,12,o),
(598,6,c),
(608,6,o),
(617,2,o),
(626,0,cs),
(647,-3,o),
(673,2,o),
(696,-3,c),
(705,0,o),
(717,0,o),
(728,1,c),
(738,4,o),
(744,10,o),
(758,8,c),
(777,20,o),
(795,31,o),
(816,40,c),
(820,49,o),
(830,55,o),
(835,60,cs),
(836,61,o),
(835,64,o),
(836,65,cs),
(845,74,o),
(855,82,o),
(860,92,c),
(864,93,l),
(867,100,o),
(867,108,o),
(873,112,cs),
(880,118,o),
(883,128,o),
(882,142,c),
(876,152,o),
(863,154,o),
(853,159,cs),
(844,164,o),
(836,173,o),
(822,174,c),
(810,170,o),
(810,156,o),
(800,151,c),
(796,140,o),
(787,134,o),
(780,125,c),
(764,119,o),
(756,105,o),
(740,99,cs),
(724,92,o),
(705,88,o),
(687,84,c),
(674,85,o),
(667,85,o),
(655,84,c),
(626,87,o),
(606,99,o),
(583,107,c),
(570,118,o),
(558,128,o),
(546,140,c),
(543,147,o),
(535,152,o),
(534,162,c),
(531,171,o),
(524,175,o),
(520,183,c),
(520,198,o),
(511,209,o),
(514,223,c),
(562,227,o),
(616,220,o),
(663,224,cs),
(691,226,o),
(720,219,o),
(745,227,c),
(756,226,o),
(766,224,o),
(777,220,c),
(793,226,o),
(816,227,o),
(833,223,c),
(850,225,o),
(861,217,o),
(877,224,c),
(888,234,l)
);
},
{
closed = 1;
nodes = (
(789,292,o),
(773,294,o),
(758,294,cs),
(747,294,o),
(735,292,o),
(725,293,cs),
(703,294,o),
(666,293,o),
(636,293,cs),
(628,293,o),
(618,290,o),
(610,290,cs),
(588,292,o),
(566,293,o),
(543,290,c),
(535,294,o),
(525,293,o),
(519,297,c),
(520,310,o),
(529,315,o),
(536,322,c),
(541,332,o),
(548,338,o),
(552,348,c),
(565,356,o),
(577,366,o),
(587,376,c),
(605,384,o),
(626,388,o),
(644,394,c),
(659,394,o),
(674,393,o),
(687,395,c),
(697,392,o),
(706,391,o),
(717,386,cs),
(722,383,o),
(726,379,o),
(738,381,c),
(752,369,o),
(767,361,o),
(780,349,c),
(787,335,o),
(796,325,o),
(801,311,c),
(801,299,l)
);
},
{
closed = 1;
nodes = (
(197,104,o),
(182,117,o),
(165,127,c),
(152,147,o),
(138,166,o),
(126,189,c),
(125,205,o),
(119,216,o),
(120,235,cs),
(123,265,o),
(131,289,o),
(142,313,c),
(148,322,o),
(158,331,o),
(163,342,c),
(174,350,o),
(183,357,o),
(192,366,c),
(205,371,o),
(214,378,o),
(225,384,c),
(237,385,o),
(248,390,o),
(261,391,cs),
(273,392,o),
(287,388,o),
(302,391,c),
(318,387,o),
(331,378,o),
(349,376,c),
(363,365,o),
(377,354,o),
(392,345,c),
(399,332,o),
(407,322,o),
(416,313,c),
(416,305,o),
(419,301,o),
(422,297,c),
(426,279,o),
(434,265,o),
(434,244,c),
(436,244,o),
(435,242,o),
(434,242,c),
(436,211,o),
(425,192,o),
(419,169,c),
(412,160,o),
(406,152,o),
(401,142,c),
(389,129,o),
(374,121,o),
(363,108,c),
(348,104,o),
(336,95,o),
(323,88,c),
(308,90,o),
(294,82,o),
(279,82,cs),
(268,82,o),
(257,85,o),
(245,87,cs),
(215,93,l)
);
}
);
width = 928;
}
);
unicode = 339;
},
{
glyphname = p;
kernLeft = p;
kernRight = o;
lastChange = "2023-09-12 03:35:46 +0000";
layers = (
{
anchors = (
{
name = bottom;
pos = (265,0);
},
{
name = top;
pos = (265,455);
}
);
layerId = "7C3BCDA4-8F92-4DF1-91BA-B714BE37B8B5";
shapes = (
{
closed = 1;
nodes = (
(451,369,o),
(451,373,o),
(448,375,c),
(442,382,o),
(436,386,o),
(431,392,c),
(422,409,l),
(412,416,o),
(404,425,o),
(396,435,c),
(381,437,o),
(371,445,o),
(360,451,c),
(347,452,o),
(336,457,o),
(324,458,cs),
(317,458,o),
(311,456,o),
(304,456,cs),
(282,456,o),
(262,456,o),
(242,459,c),
(236,458,o),
(231,455,o),
(224,456,c),
(216,451,o),
(208,445,o),
(195,444,c),
(185,435,o),
(172,427,o),
(158,421,c),
(156,416,o),
(150,413,o),
(147,407,c),
(141,405,o),
(142,394,o),
(132,395,c),
(122,408,o),
(135,435,o),
(127,446,c),
(123,448,o),
(119,451,o),
(112,449,cs),
(103,447,o),
(102,453,o),
(95,453,c),
(83,449,o),
(69,454,o),
(59,451,c),
(57,444,o),
(55,436,o),
(55,429,c),
(52,407,o),
(53,384,o),
(50,359,cs),
(48,345,o),
(45,330,o),
(45,316,cs),
(45,299,o),
(48,280,o),
(48,267,cs),
(48,262,o),
(46,255,o),
(47,250,cs),
(47,246,o),
(50,241,o),
(50,235,c),
(45,195,o),
(48,151,o),
(47,102,c),
(48,93,o),
(51,89,o),
(51,80,cs),
(51,72,o),
(49,66,o),
(47,60,c),
(49,32,o),
(47,-4,o),
(48,-32,cs),
(49,-52,o),
(46,-73,o),
(48,-90,cs),
(49,-96,o),
(52,-102,o),
(51,-107,cs),
(46,-127,o),
(46,-156,o),
(48,-176,c),
(59,-190,o),
(87,-183,o),
(108,-182,c),
(117,-176,o),
(128,-172,o),
(134,-164,c),
(128,-137,o),
(132,-106,o),
(132,-77,cs),
(132,-32,o),
(127,14,o),
(131,56,cs),
(131,65,o),
(125,72,o),
(132,76,c),
(142,76,o),
(143,67,o),
(149,61,cs),
(154,55,o),
(159,50,o),
(164,43,c),
(184,31,o),
(202,17,o),
(225,10,c),
(240,10,o),
(253,2,o),
(267,1,cs),
(286,0,o),
(305,10,o),
(323,1,c),
(345,4,o),
(363,13,o),
(383,18,c),
(390,23,o),
(397,31,o),
(407,33,c),
(422,49,o),
(437,64,o),
(453,78,c),
(458,91,o),
(466,102,o),
(474,111,c),
(477,125,o),
(483,136,o),
(488,146,c),
(487,155,o),
(490,162,o),
(491,171,cs),
(493,187,o),
(490,202,o),
(494,217,c),
(492,232,o),
(491,249,o),
(491,267,c),
(487,282,o),
(482,297,o),
(482,316,c),
(473,329,o),
(468,343,o),
(463,359,c),
(460,360,o),
(458,364,o),
(458,364,c),
(454,366,l)
);
},
{
closed = 1;
nodes = (
(403,273,o),
(404,255,c),
(405,255,o),
(406,254,o),
(406,253,cs),
(404,235,o),
(406,217,o),
(404,202,cs),
(402,191,o),
(396,182,o),
(396,172,c),
(387,158,o),
(379,142,o),
(371,127,c),
(364,121,o),
(358,116,o),
(352,108,c),
(337,102,o),
(326,92,o),
(311,85,c),
(287,89,o),
(265,77,o),
(242,80,cs),
(237,81,o),
(231,83,o),
(225,85,cs),
(211,90,o),
(198,101,o),
(182,107,c),
(177,113,o),
(172,118,o),
(167,123,cs),
(159,131,o),
(152,139,o),
(146,151,c),
(139,161,o),
(136,174,o),
(131,187,c),
(125,217,o),
(125,246,o),
(129,279,c),
(133,289,o),
(138,298,o),
(140,311,c),
(151,324,o),
(164,336,o),
(174,351,c),
(180,353,o),
(186,355,o),
(189,360,c),
(202,367,o),
(218,371,o),
(229,379,c),
(247,381,o),
(266,385,o),
(286,381,cs),
(313,374,o),
(334,360,o),
(358,349,c),
(369,333,o),
(384,321,o),
(395,304,c),
(397,286,o)
);
}
);
width = 529;
}
);
unicode = 112;
},
